%TF.GenerationSoftware,KiCad,Pcbnew,(6.0.0)*%
%TF.CreationDate,2023-05-28T15:04:35-04:00*%
%TF.ProjectId,Breadboard Power Supply,42726561-6462-46f6-9172-6420506f7765,2.0*%
%TF.SameCoordinates,Original*%
%TF.FileFunction,Legend,Bot*%
%TF.FilePolarity,Positive*%
%FSLAX46Y46*%
G04 Gerber Fmt 4.6, Leading zero omitted, Abs format (unit mm)*
G04 Created by KiCad (PCBNEW (6.0.0)) date 2023-05-28 15:04:35*
%MOMM*%
%LPD*%
G01*
G04 APERTURE LIST*
%ADD10C,0.150000*%
%ADD11C,0.010000*%
G04 APERTURE END LIST*
D10*
X112872571Y-79164371D02*
X112920190Y-79307228D01*
X112967809Y-79354847D01*
X113063047Y-79402466D01*
X113205904Y-79402466D01*
X113301142Y-79354847D01*
X113348761Y-79307228D01*
X113396380Y-79211990D01*
X113396380Y-78831038D01*
X112396380Y-78831038D01*
X112396380Y-79164371D01*
X112444000Y-79259609D01*
X112491619Y-79307228D01*
X112586857Y-79354847D01*
X112682095Y-79354847D01*
X112777333Y-79307228D01*
X112824952Y-79259609D01*
X112872571Y-79164371D01*
X112872571Y-78831038D01*
X113396380Y-79831038D02*
X112729714Y-79831038D01*
X112920190Y-79831038D02*
X112824952Y-79878657D01*
X112777333Y-79926276D01*
X112729714Y-80021514D01*
X112729714Y-80116752D01*
X113348761Y-80831038D02*
X113396380Y-80735800D01*
X113396380Y-80545323D01*
X113348761Y-80450085D01*
X113253523Y-80402466D01*
X112872571Y-80402466D01*
X112777333Y-80450085D01*
X112729714Y-80545323D01*
X112729714Y-80735800D01*
X112777333Y-80831038D01*
X112872571Y-80878657D01*
X112967809Y-80878657D01*
X113063047Y-80402466D01*
X113396380Y-81735800D02*
X112872571Y-81735800D01*
X112777333Y-81688180D01*
X112729714Y-81592942D01*
X112729714Y-81402466D01*
X112777333Y-81307228D01*
X113348761Y-81735800D02*
X113396380Y-81640561D01*
X113396380Y-81402466D01*
X113348761Y-81307228D01*
X113253523Y-81259609D01*
X113158285Y-81259609D01*
X113063047Y-81307228D01*
X113015428Y-81402466D01*
X113015428Y-81640561D01*
X112967809Y-81735800D01*
X113396380Y-82640561D02*
X112396380Y-82640561D01*
X113348761Y-82640561D02*
X113396380Y-82545323D01*
X113396380Y-82354847D01*
X113348761Y-82259609D01*
X113301142Y-82211990D01*
X113205904Y-82164371D01*
X112920190Y-82164371D01*
X112824952Y-82211990D01*
X112777333Y-82259609D01*
X112729714Y-82354847D01*
X112729714Y-82545323D01*
X112777333Y-82640561D01*
X113396380Y-83116752D02*
X112396380Y-83116752D01*
X112777333Y-83116752D02*
X112729714Y-83211990D01*
X112729714Y-83402466D01*
X112777333Y-83497704D01*
X112824952Y-83545323D01*
X112920190Y-83592942D01*
X113205904Y-83592942D01*
X113301142Y-83545323D01*
X113348761Y-83497704D01*
X113396380Y-83402466D01*
X113396380Y-83211990D01*
X113348761Y-83116752D01*
X113396380Y-84164371D02*
X113348761Y-84069133D01*
X113301142Y-84021514D01*
X113205904Y-83973895D01*
X112920190Y-83973895D01*
X112824952Y-84021514D01*
X112777333Y-84069133D01*
X112729714Y-84164371D01*
X112729714Y-84307228D01*
X112777333Y-84402466D01*
X112824952Y-84450085D01*
X112920190Y-84497704D01*
X113205904Y-84497704D01*
X113301142Y-84450085D01*
X113348761Y-84402466D01*
X113396380Y-84307228D01*
X113396380Y-84164371D01*
X113396380Y-85354847D02*
X112872571Y-85354847D01*
X112777333Y-85307228D01*
X112729714Y-85211990D01*
X112729714Y-85021514D01*
X112777333Y-84926276D01*
X113348761Y-85354847D02*
X113396380Y-85259609D01*
X113396380Y-85021514D01*
X113348761Y-84926276D01*
X113253523Y-84878657D01*
X113158285Y-84878657D01*
X113063047Y-84926276D01*
X113015428Y-85021514D01*
X113015428Y-85259609D01*
X112967809Y-85354847D01*
X113396380Y-85831038D02*
X112729714Y-85831038D01*
X112920190Y-85831038D02*
X112824952Y-85878657D01*
X112777333Y-85926276D01*
X112729714Y-86021514D01*
X112729714Y-86116752D01*
X113396380Y-86878657D02*
X112396380Y-86878657D01*
X113348761Y-86878657D02*
X113396380Y-86783419D01*
X113396380Y-86592942D01*
X113348761Y-86497704D01*
X113301142Y-86450085D01*
X113205904Y-86402466D01*
X112920190Y-86402466D01*
X112824952Y-86450085D01*
X112777333Y-86497704D01*
X112729714Y-86592942D01*
X112729714Y-86783419D01*
X112777333Y-86878657D01*
X115006380Y-80878657D02*
X114006380Y-80878657D01*
X114006380Y-81259609D01*
X114054000Y-81354847D01*
X114101619Y-81402466D01*
X114196857Y-81450085D01*
X114339714Y-81450085D01*
X114434952Y-81402466D01*
X114482571Y-81354847D01*
X114530190Y-81259609D01*
X114530190Y-80878657D01*
X115006380Y-82021514D02*
X114958761Y-81926276D01*
X114911142Y-81878657D01*
X114815904Y-81831038D01*
X114530190Y-81831038D01*
X114434952Y-81878657D01*
X114387333Y-81926276D01*
X114339714Y-82021514D01*
X114339714Y-82164371D01*
X114387333Y-82259609D01*
X114434952Y-82307228D01*
X114530190Y-82354847D01*
X114815904Y-82354847D01*
X114911142Y-82307228D01*
X114958761Y-82259609D01*
X115006380Y-82164371D01*
X115006380Y-82021514D01*
X114339714Y-82688180D02*
X115006380Y-82878657D01*
X114530190Y-83069133D01*
X115006380Y-83259609D01*
X114339714Y-83450085D01*
X114958761Y-84211990D02*
X115006380Y-84116752D01*
X115006380Y-83926276D01*
X114958761Y-83831038D01*
X114863523Y-83783419D01*
X114482571Y-83783419D01*
X114387333Y-83831038D01*
X114339714Y-83926276D01*
X114339714Y-84116752D01*
X114387333Y-84211990D01*
X114482571Y-84259609D01*
X114577809Y-84259609D01*
X114673047Y-83783419D01*
X115006380Y-84688180D02*
X114339714Y-84688180D01*
X114530190Y-84688180D02*
X114434952Y-84735800D01*
X114387333Y-84783419D01*
X114339714Y-84878657D01*
X114339714Y-84973895D01*
X116568761Y-80950085D02*
X116616380Y-81092942D01*
X116616380Y-81331038D01*
X116568761Y-81426276D01*
X116521142Y-81473895D01*
X116425904Y-81521514D01*
X116330666Y-81521514D01*
X116235428Y-81473895D01*
X116187809Y-81426276D01*
X116140190Y-81331038D01*
X116092571Y-81140561D01*
X116044952Y-81045323D01*
X115997333Y-80997704D01*
X115902095Y-80950085D01*
X115806857Y-80950085D01*
X115711619Y-80997704D01*
X115664000Y-81045323D01*
X115616380Y-81140561D01*
X115616380Y-81378657D01*
X115664000Y-81521514D01*
X115949714Y-82378657D02*
X116616380Y-82378657D01*
X115949714Y-81950085D02*
X116473523Y-81950085D01*
X116568761Y-81997704D01*
X116616380Y-82092942D01*
X116616380Y-82235800D01*
X116568761Y-82331038D01*
X116521142Y-82378657D01*
X115949714Y-82854847D02*
X116949714Y-82854847D01*
X115997333Y-82854847D02*
X115949714Y-82950085D01*
X115949714Y-83140561D01*
X115997333Y-83235800D01*
X116044952Y-83283419D01*
X116140190Y-83331038D01*
X116425904Y-83331038D01*
X116521142Y-83283419D01*
X116568761Y-83235800D01*
X116616380Y-83140561D01*
X116616380Y-82950085D01*
X116568761Y-82854847D01*
X115949714Y-83759609D02*
X116949714Y-83759609D01*
X115997333Y-83759609D02*
X115949714Y-83854847D01*
X115949714Y-84045323D01*
X115997333Y-84140561D01*
X116044952Y-84188180D01*
X116140190Y-84235800D01*
X116425904Y-84235800D01*
X116521142Y-84188180D01*
X116568761Y-84140561D01*
X116616380Y-84045323D01*
X116616380Y-83854847D01*
X116568761Y-83759609D01*
X116616380Y-84807228D02*
X116568761Y-84711990D01*
X116473523Y-84664371D01*
X115616380Y-84664371D01*
X115949714Y-85092942D02*
X116616380Y-85331038D01*
X115949714Y-85569133D02*
X116616380Y-85331038D01*
X116854476Y-85235800D01*
X116902095Y-85188180D01*
X116949714Y-85092942D01*
X111506705Y-84251800D02*
G75*
G03*
X111506705Y-84251800I-2286705J0D01*
G01*
X108773980Y-82347038D02*
X109773980Y-82680371D01*
X108773980Y-83013704D01*
X108869219Y-84061323D02*
X108821600Y-84108942D01*
X108773980Y-84204180D01*
X108773980Y-84442276D01*
X108821600Y-84537514D01*
X108869219Y-84585133D01*
X108964457Y-84632752D01*
X109059695Y-84632752D01*
X109202552Y-84585133D01*
X109773980Y-84013704D01*
X109773980Y-84632752D01*
X109678742Y-85061323D02*
X109726361Y-85108942D01*
X109773980Y-85061323D01*
X109726361Y-85013704D01*
X109678742Y-85061323D01*
X109773980Y-85061323D01*
X108773980Y-85727990D02*
X108773980Y-85823228D01*
X108821600Y-85918466D01*
X108869219Y-85966085D01*
X108964457Y-86013704D01*
X109154933Y-86061323D01*
X109393028Y-86061323D01*
X109583504Y-86013704D01*
X109678742Y-85966085D01*
X109726361Y-85918466D01*
X109773980Y-85823228D01*
X109773980Y-85727990D01*
X109726361Y-85632752D01*
X109678742Y-85585133D01*
X109583504Y-85537514D01*
X109393028Y-85489895D01*
X109154933Y-85489895D01*
X108964457Y-85537514D01*
X108869219Y-85585133D01*
X108821600Y-85632752D01*
X108773980Y-85727990D01*
D11*
%TO.C,REF\u002A\u002A*%
X121822737Y-92588771D02*
X121822773Y-92853294D01*
X121822773Y-92853294D02*
X121822778Y-92976426D01*
X121822778Y-92976426D02*
X121822778Y-94947325D01*
X121822778Y-94947325D02*
X121938958Y-94947325D01*
X121938958Y-94947325D02*
X122080339Y-94959725D01*
X122080339Y-94959725D02*
X122210732Y-94997150D01*
X122210732Y-94997150D02*
X122330910Y-95059937D01*
X122330910Y-95059937D02*
X122441650Y-95148420D01*
X122441650Y-95148420D02*
X122471559Y-95178357D01*
X122471559Y-95178357D02*
X122556396Y-95286048D01*
X122556396Y-95286048D02*
X122618269Y-95404789D01*
X122618269Y-95404789D02*
X122657207Y-95531054D01*
X122657207Y-95531054D02*
X122673238Y-95661317D01*
X122673238Y-95661317D02*
X122666390Y-95792049D01*
X122666390Y-95792049D02*
X122636691Y-95919726D01*
X122636691Y-95919726D02*
X122584168Y-96040819D01*
X122584168Y-96040819D02*
X122508851Y-96151802D01*
X122508851Y-96151802D02*
X122463411Y-96201646D01*
X122463411Y-96201646D02*
X122352000Y-96294531D01*
X122352000Y-96294531D02*
X122229483Y-96362641D01*
X122229483Y-96362641D02*
X122097263Y-96405385D01*
X122097263Y-96405385D02*
X121956740Y-96422167D01*
X121956740Y-96422167D02*
X121942915Y-96422390D01*
X121942915Y-96422390D02*
X121822782Y-96423270D01*
X121822782Y-96423270D02*
X121822780Y-96476071D01*
X121822780Y-96476071D02*
X121829137Y-96522910D01*
X121829137Y-96522910D02*
X121844604Y-96565697D01*
X121844604Y-96565697D02*
X121846202Y-96568525D01*
X121846202Y-96568525D02*
X121851216Y-96578189D01*
X121851216Y-96578189D02*
X121855121Y-96587063D01*
X121855121Y-96587063D02*
X121859055Y-96595179D01*
X121859055Y-96595179D02*
X121864154Y-96602571D01*
X121864154Y-96602571D02*
X121871556Y-96609269D01*
X121871556Y-96609269D02*
X121882399Y-96615306D01*
X121882399Y-96615306D02*
X121897820Y-96620713D01*
X121897820Y-96620713D02*
X121918957Y-96625524D01*
X121918957Y-96625524D02*
X121946947Y-96629769D01*
X121946947Y-96629769D02*
X121982927Y-96633482D01*
X121982927Y-96633482D02*
X122028035Y-96636693D01*
X122028035Y-96636693D02*
X122083408Y-96639436D01*
X122083408Y-96639436D02*
X122150185Y-96641742D01*
X122150185Y-96641742D02*
X122229501Y-96643643D01*
X122229501Y-96643643D02*
X122322495Y-96645172D01*
X122322495Y-96645172D02*
X122430305Y-96646360D01*
X122430305Y-96646360D02*
X122554067Y-96647240D01*
X122554067Y-96647240D02*
X122694919Y-96647844D01*
X122694919Y-96647844D02*
X122853998Y-96648203D01*
X122853998Y-96648203D02*
X123032443Y-96648349D01*
X123032443Y-96648349D02*
X123231390Y-96648316D01*
X123231390Y-96648316D02*
X123451977Y-96648134D01*
X123451977Y-96648134D02*
X123695341Y-96647837D01*
X123695341Y-96647837D02*
X123962620Y-96647455D01*
X123962620Y-96647455D02*
X124254951Y-96647022D01*
X124254951Y-96647022D02*
X124573472Y-96646569D01*
X124573472Y-96646569D02*
X124612278Y-96646516D01*
X124612278Y-96646516D02*
X124932830Y-96646110D01*
X124932830Y-96646110D02*
X125227060Y-96645765D01*
X125227060Y-96645765D02*
X125496104Y-96645445D01*
X125496104Y-96645445D02*
X125741100Y-96645114D01*
X125741100Y-96645114D02*
X125963185Y-96644735D01*
X125963185Y-96644735D02*
X126163495Y-96644271D01*
X126163495Y-96644271D02*
X126343167Y-96643686D01*
X126343167Y-96643686D02*
X126503338Y-96642944D01*
X126503338Y-96642944D02*
X126645146Y-96642008D01*
X126645146Y-96642008D02*
X126769727Y-96640841D01*
X126769727Y-96640841D02*
X126878218Y-96639407D01*
X126878218Y-96639407D02*
X126971755Y-96637670D01*
X126971755Y-96637670D02*
X127051477Y-96635592D01*
X127051477Y-96635592D02*
X127118520Y-96633138D01*
X127118520Y-96633138D02*
X127174021Y-96630270D01*
X127174021Y-96630270D02*
X127219116Y-96626953D01*
X127219116Y-96626953D02*
X127254943Y-96623150D01*
X127254943Y-96623150D02*
X127282639Y-96618824D01*
X127282639Y-96618824D02*
X127303341Y-96613939D01*
X127303341Y-96613939D02*
X127318185Y-96608459D01*
X127318185Y-96608459D02*
X127328308Y-96602346D01*
X127328308Y-96602346D02*
X127334848Y-96595564D01*
X127334848Y-96595564D02*
X127338941Y-96588077D01*
X127338941Y-96588077D02*
X127341724Y-96579848D01*
X127341724Y-96579848D02*
X127344335Y-96570841D01*
X127344335Y-96570841D02*
X127347910Y-96561019D01*
X127347910Y-96561019D02*
X127348998Y-96558620D01*
X127348998Y-96558620D02*
X127351444Y-96551079D01*
X127351444Y-96551079D02*
X127353690Y-96538458D01*
X127353690Y-96538458D02*
X127355746Y-96519655D01*
X127355746Y-96519655D02*
X127357620Y-96493567D01*
X127357620Y-96493567D02*
X127359319Y-96459092D01*
X127359319Y-96459092D02*
X127360851Y-96415129D01*
X127360851Y-96415129D02*
X127362225Y-96360575D01*
X127362225Y-96360575D02*
X127363448Y-96294329D01*
X127363448Y-96294329D02*
X127364529Y-96215288D01*
X127364529Y-96215288D02*
X127365475Y-96122351D01*
X127365475Y-96122351D02*
X127366295Y-96014415D01*
X127366295Y-96014415D02*
X127366995Y-95890378D01*
X127366995Y-95890378D02*
X127367586Y-95749138D01*
X127367586Y-95749138D02*
X127368073Y-95589593D01*
X127368073Y-95589593D02*
X127368467Y-95410642D01*
X127368467Y-95410642D02*
X127368773Y-95211182D01*
X127368773Y-95211182D02*
X127369001Y-94990110D01*
X127369001Y-94990110D02*
X127369158Y-94746326D01*
X127369158Y-94746326D02*
X127369253Y-94478727D01*
X127369253Y-94478727D02*
X127369293Y-94186211D01*
X127369293Y-94186211D02*
X127369286Y-93867675D01*
X127369286Y-93867675D02*
X127369276Y-93764493D01*
X127369276Y-93764493D02*
X127369224Y-93438891D01*
X127369224Y-93438891D02*
X127369139Y-93139633D01*
X127369139Y-93139633D02*
X127369011Y-92865605D01*
X127369011Y-92865605D02*
X127368833Y-92615690D01*
X127368833Y-92615690D02*
X127368596Y-92388774D01*
X127368596Y-92388774D02*
X127368290Y-92183741D01*
X127368290Y-92183741D02*
X127367908Y-91999476D01*
X127367908Y-91999476D02*
X127367440Y-91834864D01*
X127367440Y-91834864D02*
X127366878Y-91688789D01*
X127366878Y-91688789D02*
X127366213Y-91560138D01*
X127366213Y-91560138D02*
X127365436Y-91447793D01*
X127365436Y-91447793D02*
X127364539Y-91350640D01*
X127364539Y-91350640D02*
X127363513Y-91267564D01*
X127363513Y-91267564D02*
X127362349Y-91197450D01*
X127362349Y-91197450D02*
X127361039Y-91139182D01*
X127361039Y-91139182D02*
X127359573Y-91091645D01*
X127359573Y-91091645D02*
X127357944Y-91053724D01*
X127357944Y-91053724D02*
X127356141Y-91024304D01*
X127356141Y-91024304D02*
X127354158Y-91002269D01*
X127354158Y-91002269D02*
X127351984Y-90986504D01*
X127351984Y-90986504D02*
X127349611Y-90975894D01*
X127349611Y-90975894D02*
X127347439Y-90970110D01*
X127347439Y-90970110D02*
X127343104Y-90959830D01*
X127343104Y-90959830D02*
X127339907Y-90950392D01*
X127339907Y-90950392D02*
X127336713Y-90941759D01*
X127336713Y-90941759D02*
X127332386Y-90933895D01*
X127332386Y-90933895D02*
X127325792Y-90926766D01*
X127325792Y-90926766D02*
X127315795Y-90920335D01*
X127315795Y-90920335D02*
X127301260Y-90914567D01*
X127301260Y-90914567D02*
X127281051Y-90909425D01*
X127281051Y-90909425D02*
X127254033Y-90904874D01*
X127254033Y-90904874D02*
X127219071Y-90900879D01*
X127219071Y-90900879D02*
X127175029Y-90897403D01*
X127175029Y-90897403D02*
X127120772Y-90894412D01*
X127120772Y-90894412D02*
X127055165Y-90891868D01*
X127055165Y-90891868D02*
X126977072Y-90889737D01*
X126977072Y-90889737D02*
X126885358Y-90887982D01*
X126885358Y-90887982D02*
X126778888Y-90886569D01*
X126778888Y-90886569D02*
X126738021Y-90886199D01*
X126738021Y-90886199D02*
X126738021Y-91252630D01*
X126738021Y-91252630D02*
X126738021Y-92547780D01*
X126738021Y-92547780D02*
X126700265Y-92522859D01*
X126700265Y-92522859D02*
X126661465Y-92498067D01*
X126661465Y-92498067D02*
X126624517Y-92477074D01*
X126624517Y-92477074D02*
X126586836Y-92459579D01*
X126586836Y-92459579D02*
X126545836Y-92445284D01*
X126545836Y-92445284D02*
X126498931Y-92433891D01*
X126498931Y-92433891D02*
X126443535Y-92425101D01*
X126443535Y-92425101D02*
X126377064Y-92418616D01*
X126377064Y-92418616D02*
X126296931Y-92414137D01*
X126296931Y-92414137D02*
X126200550Y-92411364D01*
X126200550Y-92411364D02*
X126085337Y-92410001D01*
X126085337Y-92410001D02*
X125948705Y-92409747D01*
X125948705Y-92409747D02*
X125788068Y-92410305D01*
X125788068Y-92410305D02*
X125728430Y-92410621D01*
X125728430Y-92410621D02*
X125089089Y-92414189D01*
X125089089Y-92414189D02*
X125640497Y-92819216D01*
X125640497Y-92819216D02*
X125796924Y-92933960D01*
X125796924Y-92933960D02*
X125933136Y-93033371D01*
X125933136Y-93033371D02*
X126050938Y-93118524D01*
X126050938Y-93118524D02*
X126152132Y-93190492D01*
X126152132Y-93190492D02*
X126238525Y-93250348D01*
X126238525Y-93250348D02*
X126311922Y-93299166D01*
X126311922Y-93299166D02*
X126374125Y-93338019D01*
X126374125Y-93338019D02*
X126426941Y-93367980D01*
X126426941Y-93367980D02*
X126472173Y-93390123D01*
X126472173Y-93390123D02*
X126511626Y-93405521D01*
X126511626Y-93405521D02*
X126547106Y-93415248D01*
X126547106Y-93415248D02*
X126580416Y-93420377D01*
X126580416Y-93420377D02*
X126613361Y-93421982D01*
X126613361Y-93421982D02*
X126647745Y-93421135D01*
X126647745Y-93421135D02*
X126652067Y-93420919D01*
X126652067Y-93420919D02*
X126738079Y-93416460D01*
X126738079Y-93416460D02*
X126738021Y-94835822D01*
X126738021Y-94835822D02*
X126631570Y-94730249D01*
X126631570Y-94730249D02*
X126602454Y-94701601D01*
X126602454Y-94701601D02*
X126574124Y-94674424D01*
X126574124Y-94674424D02*
X126545016Y-94647525D01*
X126545016Y-94647525D02*
X126513568Y-94619711D01*
X126513568Y-94619711D02*
X126478217Y-94589789D01*
X126478217Y-94589789D02*
X126437402Y-94556568D01*
X126437402Y-94556568D02*
X126389559Y-94518853D01*
X126389559Y-94518853D02*
X126333127Y-94475454D01*
X126333127Y-94475454D02*
X126266542Y-94425176D01*
X126266542Y-94425176D02*
X126188243Y-94366826D01*
X126188243Y-94366826D02*
X126096667Y-94299214D01*
X126096667Y-94299214D02*
X125990252Y-94221145D01*
X125990252Y-94221145D02*
X125867435Y-94131426D01*
X125867435Y-94131426D02*
X125726653Y-94028866D01*
X125726653Y-94028866D02*
X125566345Y-93912272D01*
X125566345Y-93912272D02*
X125434846Y-93816705D01*
X125434846Y-93816705D02*
X125269644Y-93696765D01*
X125269644Y-93696765D02*
X125125200Y-93592134D01*
X125125200Y-93592134D02*
X125000142Y-93501866D01*
X125000142Y-93501866D02*
X124893100Y-93425011D01*
X124893100Y-93425011D02*
X124802702Y-93360623D01*
X124802702Y-93360623D02*
X124727577Y-93307753D01*
X124727577Y-93307753D02*
X124666352Y-93265454D01*
X124666352Y-93265454D02*
X124617658Y-93232778D01*
X124617658Y-93232778D02*
X124580122Y-93208776D01*
X124580122Y-93208776D02*
X124552373Y-93192501D01*
X124552373Y-93192501D02*
X124533040Y-93183006D01*
X124533040Y-93183006D02*
X124520751Y-93179341D01*
X124520751Y-93179341D02*
X124514290Y-93180443D01*
X124514290Y-93180443D02*
X124497096Y-93193790D01*
X124497096Y-93193790D02*
X124460703Y-93222648D01*
X124460703Y-93222648D02*
X124407272Y-93265274D01*
X124407272Y-93265274D02*
X124338967Y-93319929D01*
X124338967Y-93319929D02*
X124257951Y-93384870D01*
X124257951Y-93384870D02*
X124166388Y-93458356D01*
X124166388Y-93458356D02*
X124066440Y-93538646D01*
X124066440Y-93538646D02*
X123960272Y-93623999D01*
X123960272Y-93623999D02*
X123850045Y-93712674D01*
X123850045Y-93712674D02*
X123737924Y-93802928D01*
X123737924Y-93802928D02*
X123676292Y-93852570D01*
X123676292Y-93852570D02*
X123676292Y-95085141D01*
X123676292Y-95085141D02*
X123768967Y-95136368D01*
X123768967Y-95136368D02*
X123861643Y-95187595D01*
X123861643Y-95187595D02*
X126552670Y-95187595D01*
X126552670Y-95187595D02*
X126645346Y-95136368D01*
X126645346Y-95136368D02*
X126738021Y-95085141D01*
X126738021Y-95085141D02*
X126738021Y-95691118D01*
X126738021Y-95691118D02*
X126737979Y-95835780D01*
X126737979Y-95835780D02*
X126737789Y-95955270D01*
X126737789Y-95955270D02*
X126737356Y-96051872D01*
X126737356Y-96051872D02*
X126736584Y-96127872D01*
X126736584Y-96127872D02*
X126735378Y-96185557D01*
X126735378Y-96185557D02*
X126733642Y-96227213D01*
X126733642Y-96227213D02*
X126731280Y-96255125D01*
X126731280Y-96255125D02*
X126728198Y-96271579D01*
X126728198Y-96271579D02*
X126724299Y-96278862D01*
X126724299Y-96278862D02*
X126719488Y-96279259D01*
X126719488Y-96279259D02*
X126713670Y-96275056D01*
X126713670Y-96275056D02*
X126713622Y-96275013D01*
X126713622Y-96275013D02*
X126688580Y-96257701D01*
X126688580Y-96257701D02*
X126647863Y-96234778D01*
X126647863Y-96234778D02*
X126607216Y-96214533D01*
X126607216Y-96214533D02*
X126525210Y-96176135D01*
X126525210Y-96176135D02*
X123676292Y-96168303D01*
X123676292Y-96168303D02*
X123676292Y-95085141D01*
X123676292Y-95085141D02*
X123676292Y-93852570D01*
X123676292Y-93852570D02*
X123626072Y-93893021D01*
X123626072Y-93893021D02*
X123516652Y-93981212D01*
X123516652Y-93981212D02*
X123411826Y-94065760D01*
X123411826Y-94065760D02*
X123313759Y-94144922D01*
X123313759Y-94144922D02*
X123224614Y-94216958D01*
X123224614Y-94216958D02*
X123146553Y-94280127D01*
X123146553Y-94280127D02*
X123081740Y-94332687D01*
X123081740Y-94332687D02*
X123032338Y-94372897D01*
X123032338Y-94372897D02*
X123003535Y-94396514D01*
X123003535Y-94396514D02*
X122895826Y-94488224D01*
X122895826Y-94488224D02*
X122798628Y-94576454D01*
X122798628Y-94576454D02*
X122715124Y-94658111D01*
X122715124Y-94658111D02*
X122648496Y-94730104D01*
X122648496Y-94730104D02*
X122607647Y-94781195D01*
X122607647Y-94781195D02*
X122564183Y-94841607D01*
X122564183Y-94841607D02*
X122564183Y-93452216D01*
X122564183Y-93452216D02*
X122645714Y-93452606D01*
X122645714Y-93452606D02*
X122705654Y-93448723D01*
X122705654Y-93448723D02*
X122761225Y-93434124D01*
X122761225Y-93434124D02*
X122813903Y-93411526D01*
X122813903Y-93411526D02*
X122843663Y-93396836D01*
X122843663Y-93396836D02*
X122873151Y-93381042D01*
X122873151Y-93381042D02*
X122904324Y-93362700D01*
X122904324Y-93362700D02*
X122939141Y-93340369D01*
X122939141Y-93340369D02*
X122979558Y-93312605D01*
X122979558Y-93312605D02*
X123027534Y-93277965D01*
X123027534Y-93277965D02*
X123085026Y-93235007D01*
X123085026Y-93235007D02*
X123153991Y-93182287D01*
X123153991Y-93182287D02*
X123236387Y-93118363D01*
X123236387Y-93118363D02*
X123334172Y-93041793D01*
X123334172Y-93041793D02*
X123449303Y-92951133D01*
X123449303Y-92951133D02*
X123583738Y-92844940D01*
X123583738Y-92844940D02*
X123598907Y-92832946D01*
X123598907Y-92832946D02*
X124128460Y-92414189D01*
X124128460Y-92414189D02*
X123541970Y-92410136D01*
X123541970Y-92410136D02*
X123366299Y-92409319D01*
X123366299Y-92409319D02*
X123217580Y-92409493D01*
X123217580Y-92409493D02*
X123095323Y-92410665D01*
X123095323Y-92410665D02*
X122999037Y-92412845D01*
X122999037Y-92412845D02*
X122928231Y-92416040D01*
X122928231Y-92416040D02*
X122882417Y-92420258D01*
X122882417Y-92420258D02*
X122873727Y-92421676D01*
X122873727Y-92421676D02*
X122782183Y-92443923D01*
X122782183Y-92443923D02*
X122699656Y-92473071D01*
X122699656Y-92473071D02*
X122633301Y-92506332D01*
X122633301Y-92506332D02*
X122605158Y-92526314D01*
X122605158Y-92526314D02*
X122564183Y-92560792D01*
X122564183Y-92560792D02*
X122564183Y-91906600D01*
X122564183Y-91906600D02*
X122564317Y-91750545D01*
X122564317Y-91750545D02*
X122564751Y-91620047D01*
X122564751Y-91620047D02*
X122565537Y-91513204D01*
X122565537Y-91513204D02*
X122566724Y-91428116D01*
X122566724Y-91428116D02*
X122568365Y-91362879D01*
X122568365Y-91362879D02*
X122570509Y-91315593D01*
X122570509Y-91315593D02*
X122573207Y-91284357D01*
X122573207Y-91284357D02*
X122576510Y-91267268D01*
X122576510Y-91267268D02*
X122580469Y-91262426D01*
X122580469Y-91262426D02*
X122581346Y-91262761D01*
X122581346Y-91262761D02*
X122602279Y-91276629D01*
X122602279Y-91276629D02*
X122635460Y-91299782D01*
X122635460Y-91299782D02*
X122652241Y-91311760D01*
X122652241Y-91311760D02*
X122668988Y-91324145D01*
X122668988Y-91324145D02*
X122683963Y-91335277D01*
X122683963Y-91335277D02*
X122698642Y-91345226D01*
X122698642Y-91345226D02*
X122714497Y-91354063D01*
X122714497Y-91354063D02*
X122733003Y-91361857D01*
X122733003Y-91361857D02*
X122755633Y-91368679D01*
X122755633Y-91368679D02*
X122783861Y-91374598D01*
X122783861Y-91374598D02*
X122819161Y-91379685D01*
X122819161Y-91379685D02*
X122863006Y-91384010D01*
X122863006Y-91384010D02*
X122916870Y-91387643D01*
X122916870Y-91387643D02*
X122982228Y-91390654D01*
X122982228Y-91390654D02*
X123060552Y-91393113D01*
X123060552Y-91393113D02*
X123153316Y-91395091D01*
X123153316Y-91395091D02*
X123261995Y-91396656D01*
X123261995Y-91396656D02*
X123388061Y-91397880D01*
X123388061Y-91397880D02*
X123532990Y-91398833D01*
X123532990Y-91398833D02*
X123698254Y-91399584D01*
X123698254Y-91399584D02*
X123885327Y-91400203D01*
X123885327Y-91400203D02*
X124095683Y-91400762D01*
X124095683Y-91400762D02*
X124330796Y-91401329D01*
X124330796Y-91401329D02*
X124546789Y-91401859D01*
X124546789Y-91401859D02*
X124787583Y-91402359D01*
X124787583Y-91402359D02*
X125017322Y-91402619D01*
X125017322Y-91402619D02*
X125234541Y-91402646D01*
X125234541Y-91402646D02*
X125437770Y-91402447D01*
X125437770Y-91402447D02*
X125625544Y-91402028D01*
X125625544Y-91402028D02*
X125796393Y-91401396D01*
X125796393Y-91401396D02*
X125948851Y-91400558D01*
X125948851Y-91400558D02*
X126081451Y-91399522D01*
X126081451Y-91399522D02*
X126192724Y-91398294D01*
X126192724Y-91398294D02*
X126281204Y-91396881D01*
X126281204Y-91396881D02*
X126345423Y-91395289D01*
X126345423Y-91395289D02*
X126383913Y-91393527D01*
X126383913Y-91393527D02*
X126387981Y-91393193D01*
X126387981Y-91393193D02*
X126481296Y-91381048D01*
X126481296Y-91381048D02*
X126556238Y-91362087D01*
X126556238Y-91362087D02*
X126621642Y-91333212D01*
X126621642Y-91333212D02*
X126686341Y-91291324D01*
X126686341Y-91291324D02*
X126693400Y-91286085D01*
X126693400Y-91286085D02*
X126738021Y-91252630D01*
X126738021Y-91252630D02*
X126738021Y-90886199D01*
X126738021Y-90886199D02*
X126656527Y-90885460D01*
X126656527Y-90885460D02*
X126517138Y-90884621D01*
X126517138Y-90884621D02*
X126359587Y-90884016D01*
X126359587Y-90884016D02*
X126182739Y-90883609D01*
X126182739Y-90883609D02*
X125985458Y-90883364D01*
X125985458Y-90883364D02*
X125766608Y-90883247D01*
X125766608Y-90883247D02*
X125525055Y-90883219D01*
X125525055Y-90883219D02*
X125259663Y-90883247D01*
X125259663Y-90883247D02*
X124969297Y-90883294D01*
X124969297Y-90883294D02*
X124652821Y-90883324D01*
X124652821Y-90883324D02*
X124589994Y-90883325D01*
X124589994Y-90883325D02*
X124270185Y-90883342D01*
X124270185Y-90883342D02*
X123976709Y-90883402D01*
X123976709Y-90883402D02*
X123708438Y-90883512D01*
X123708438Y-90883512D02*
X123464246Y-90883681D01*
X123464246Y-90883681D02*
X123243005Y-90883917D01*
X123243005Y-90883917D02*
X123043588Y-90884230D01*
X123043588Y-90884230D02*
X122864868Y-90884629D01*
X122864868Y-90884629D02*
X122705719Y-90885121D01*
X122705719Y-90885121D02*
X122565014Y-90885717D01*
X122565014Y-90885717D02*
X122441624Y-90886424D01*
X122441624Y-90886424D02*
X122334424Y-90887251D01*
X122334424Y-90887251D02*
X122242286Y-90888207D01*
X122242286Y-90888207D02*
X122164083Y-90889301D01*
X122164083Y-90889301D02*
X122098689Y-90890541D01*
X122098689Y-90890541D02*
X122044976Y-90891936D01*
X122044976Y-90891936D02*
X122001817Y-90893496D01*
X122001817Y-90893496D02*
X121968085Y-90895228D01*
X121968085Y-90895228D02*
X121942653Y-90897142D01*
X121942653Y-90897142D02*
X121924395Y-90899246D01*
X121924395Y-90899246D02*
X121912182Y-90901548D01*
X121912182Y-90901548D02*
X121904889Y-90904059D01*
X121904889Y-90904059D02*
X121904707Y-90904151D01*
X121904707Y-90904151D02*
X121893566Y-90909322D01*
X121893566Y-90909322D02*
X121883479Y-90913629D01*
X121883479Y-90913629D02*
X121874394Y-90918393D01*
X121874394Y-90918393D02*
X121866260Y-90924936D01*
X121866260Y-90924936D02*
X121859024Y-90934579D01*
X121859024Y-90934579D02*
X121852634Y-90948643D01*
X121852634Y-90948643D02*
X121847037Y-90968451D01*
X121847037Y-90968451D02*
X121842181Y-90995323D01*
X121842181Y-90995323D02*
X121838014Y-91030581D01*
X121838014Y-91030581D02*
X121834484Y-91075546D01*
X121834484Y-91075546D02*
X121831539Y-91131540D01*
X121831539Y-91131540D02*
X121829125Y-91199885D01*
X121829125Y-91199885D02*
X121827192Y-91281900D01*
X121827192Y-91281900D02*
X121825686Y-91378909D01*
X121825686Y-91378909D02*
X121824556Y-91492232D01*
X121824556Y-91492232D02*
X121823750Y-91623191D01*
X121823750Y-91623191D02*
X121823214Y-91773107D01*
X121823214Y-91773107D02*
X121822897Y-91943301D01*
X121822897Y-91943301D02*
X121822747Y-92135096D01*
X121822747Y-92135096D02*
X121822711Y-92349812D01*
X121822711Y-92349812D02*
X121822737Y-92588771D01*
X121822737Y-92588771D02*
X121822737Y-92588771D01*
G36*
X126885358Y-90887982D02*
G01*
X126977072Y-90889737D01*
X127055165Y-90891868D01*
X127120772Y-90894412D01*
X127175029Y-90897403D01*
X127219071Y-90900879D01*
X127254033Y-90904874D01*
X127281051Y-90909425D01*
X127301260Y-90914567D01*
X127315795Y-90920335D01*
X127325792Y-90926766D01*
X127332386Y-90933895D01*
X127336713Y-90941759D01*
X127339907Y-90950392D01*
X127343104Y-90959830D01*
X127347439Y-90970110D01*
X127349611Y-90975894D01*
X127351984Y-90986504D01*
X127354158Y-91002269D01*
X127356141Y-91024304D01*
X127357944Y-91053724D01*
X127359573Y-91091645D01*
X127361039Y-91139182D01*
X127362349Y-91197450D01*
X127363513Y-91267564D01*
X127364539Y-91350640D01*
X127365436Y-91447793D01*
X127366213Y-91560138D01*
X127366878Y-91688789D01*
X127367440Y-91834864D01*
X127367908Y-91999476D01*
X127368290Y-92183741D01*
X127368596Y-92388774D01*
X127368833Y-92615690D01*
X127369011Y-92865605D01*
X127369139Y-93139633D01*
X127369224Y-93438891D01*
X127369276Y-93764493D01*
X127369286Y-93867675D01*
X127369293Y-94186211D01*
X127369253Y-94478727D01*
X127369158Y-94746326D01*
X127369001Y-94990110D01*
X127368773Y-95211182D01*
X127368467Y-95410642D01*
X127368073Y-95589593D01*
X127367586Y-95749138D01*
X127366995Y-95890378D01*
X127366295Y-96014415D01*
X127365475Y-96122351D01*
X127364529Y-96215288D01*
X127363448Y-96294329D01*
X127362225Y-96360575D01*
X127360851Y-96415129D01*
X127359319Y-96459092D01*
X127357620Y-96493567D01*
X127355746Y-96519655D01*
X127353690Y-96538458D01*
X127351444Y-96551079D01*
X127348998Y-96558620D01*
X127347910Y-96561019D01*
X127344335Y-96570841D01*
X127341724Y-96579848D01*
X127338941Y-96588077D01*
X127334848Y-96595564D01*
X127328308Y-96602346D01*
X127318185Y-96608459D01*
X127303341Y-96613939D01*
X127282639Y-96618824D01*
X127254943Y-96623150D01*
X127219116Y-96626953D01*
X127174021Y-96630270D01*
X127118520Y-96633138D01*
X127051477Y-96635592D01*
X126971755Y-96637670D01*
X126878218Y-96639407D01*
X126769727Y-96640841D01*
X126645146Y-96642008D01*
X126503338Y-96642944D01*
X126343167Y-96643686D01*
X126163495Y-96644271D01*
X125963185Y-96644735D01*
X125741100Y-96645114D01*
X125496104Y-96645445D01*
X125227060Y-96645765D01*
X124932830Y-96646110D01*
X124612278Y-96646516D01*
X124573472Y-96646569D01*
X124254951Y-96647022D01*
X123962620Y-96647455D01*
X123695341Y-96647837D01*
X123451977Y-96648134D01*
X123231390Y-96648316D01*
X123032443Y-96648349D01*
X122853998Y-96648203D01*
X122694919Y-96647844D01*
X122554067Y-96647240D01*
X122430305Y-96646360D01*
X122322495Y-96645172D01*
X122229501Y-96643643D01*
X122150185Y-96641742D01*
X122083408Y-96639436D01*
X122028035Y-96636693D01*
X121982927Y-96633482D01*
X121946947Y-96629769D01*
X121918957Y-96625524D01*
X121897820Y-96620713D01*
X121882399Y-96615306D01*
X121871556Y-96609269D01*
X121864154Y-96602571D01*
X121859055Y-96595179D01*
X121855121Y-96587063D01*
X121851216Y-96578189D01*
X121846202Y-96568525D01*
X121844604Y-96565697D01*
X121829137Y-96522910D01*
X121822780Y-96476071D01*
X121822782Y-96423270D01*
X121942915Y-96422390D01*
X121956740Y-96422167D01*
X122097263Y-96405385D01*
X122229483Y-96362641D01*
X122352000Y-96294531D01*
X122463411Y-96201646D01*
X122508851Y-96151802D01*
X122584168Y-96040819D01*
X122636691Y-95919726D01*
X122666390Y-95792049D01*
X122673238Y-95661317D01*
X122657207Y-95531054D01*
X122618269Y-95404789D01*
X122556396Y-95286048D01*
X122471559Y-95178357D01*
X122441650Y-95148420D01*
X122362454Y-95085141D01*
X123676292Y-95085141D01*
X123676292Y-96168303D01*
X126525210Y-96176135D01*
X126607216Y-96214533D01*
X126647863Y-96234778D01*
X126688580Y-96257701D01*
X126713622Y-96275013D01*
X126713670Y-96275056D01*
X126719488Y-96279259D01*
X126724299Y-96278862D01*
X126728198Y-96271579D01*
X126731280Y-96255125D01*
X126733642Y-96227213D01*
X126735378Y-96185557D01*
X126736584Y-96127872D01*
X126737356Y-96051872D01*
X126737789Y-95955270D01*
X126737979Y-95835780D01*
X126738021Y-95691118D01*
X126738021Y-95085141D01*
X126645346Y-95136368D01*
X126552670Y-95187595D01*
X123861643Y-95187595D01*
X123768967Y-95136368D01*
X123676292Y-95085141D01*
X122362454Y-95085141D01*
X122330910Y-95059937D01*
X122210732Y-94997150D01*
X122080339Y-94959725D01*
X121938958Y-94947325D01*
X121822778Y-94947325D01*
X121822778Y-94841607D01*
X122564183Y-94841607D01*
X122607647Y-94781195D01*
X122648496Y-94730104D01*
X122715124Y-94658111D01*
X122798628Y-94576454D01*
X122895826Y-94488224D01*
X123003535Y-94396514D01*
X123032338Y-94372897D01*
X123081740Y-94332687D01*
X123146553Y-94280127D01*
X123224614Y-94216958D01*
X123313759Y-94144922D01*
X123411826Y-94065760D01*
X123516652Y-93981212D01*
X123626072Y-93893021D01*
X123676292Y-93852570D01*
X123737924Y-93802928D01*
X123850045Y-93712674D01*
X123960272Y-93623999D01*
X124066440Y-93538646D01*
X124166388Y-93458356D01*
X124257951Y-93384870D01*
X124338967Y-93319929D01*
X124407272Y-93265274D01*
X124460703Y-93222648D01*
X124497096Y-93193790D01*
X124514290Y-93180443D01*
X124520751Y-93179341D01*
X124533040Y-93183006D01*
X124552373Y-93192501D01*
X124580122Y-93208776D01*
X124617658Y-93232778D01*
X124666352Y-93265454D01*
X124727577Y-93307753D01*
X124802702Y-93360623D01*
X124893100Y-93425011D01*
X125000142Y-93501866D01*
X125125200Y-93592134D01*
X125269644Y-93696765D01*
X125434846Y-93816705D01*
X125566345Y-93912272D01*
X125726653Y-94028866D01*
X125867435Y-94131426D01*
X125990252Y-94221145D01*
X126096667Y-94299214D01*
X126188243Y-94366826D01*
X126266542Y-94425176D01*
X126333127Y-94475454D01*
X126389559Y-94518853D01*
X126437402Y-94556568D01*
X126478217Y-94589789D01*
X126513568Y-94619711D01*
X126545016Y-94647525D01*
X126574124Y-94674424D01*
X126602454Y-94701601D01*
X126631570Y-94730249D01*
X126738021Y-94835822D01*
X126738079Y-93416460D01*
X126652067Y-93420919D01*
X126647745Y-93421135D01*
X126613361Y-93421982D01*
X126580416Y-93420377D01*
X126547106Y-93415248D01*
X126511626Y-93405521D01*
X126472173Y-93390123D01*
X126426941Y-93367980D01*
X126374125Y-93338019D01*
X126311922Y-93299166D01*
X126238525Y-93250348D01*
X126152132Y-93190492D01*
X126050938Y-93118524D01*
X125933136Y-93033371D01*
X125796924Y-92933960D01*
X125640497Y-92819216D01*
X125089089Y-92414189D01*
X125728430Y-92410621D01*
X125788068Y-92410305D01*
X125948705Y-92409747D01*
X126085337Y-92410001D01*
X126200550Y-92411364D01*
X126296931Y-92414137D01*
X126377064Y-92418616D01*
X126443535Y-92425101D01*
X126498931Y-92433891D01*
X126545836Y-92445284D01*
X126586836Y-92459579D01*
X126624517Y-92477074D01*
X126661465Y-92498067D01*
X126700265Y-92522859D01*
X126738021Y-92547780D01*
X126738021Y-91252630D01*
X126693400Y-91286085D01*
X126686341Y-91291324D01*
X126621642Y-91333212D01*
X126556238Y-91362087D01*
X126481296Y-91381048D01*
X126387981Y-91393193D01*
X126383913Y-91393527D01*
X126345423Y-91395289D01*
X126281204Y-91396881D01*
X126192724Y-91398294D01*
X126081451Y-91399522D01*
X125948851Y-91400558D01*
X125796393Y-91401396D01*
X125625544Y-91402028D01*
X125437770Y-91402447D01*
X125234541Y-91402646D01*
X125017322Y-91402619D01*
X124787583Y-91402359D01*
X124546789Y-91401859D01*
X124330796Y-91401329D01*
X124095683Y-91400762D01*
X123885327Y-91400203D01*
X123698254Y-91399584D01*
X123532990Y-91398833D01*
X123388061Y-91397880D01*
X123261995Y-91396656D01*
X123153316Y-91395091D01*
X123060552Y-91393113D01*
X122982228Y-91390654D01*
X122916870Y-91387643D01*
X122863006Y-91384010D01*
X122819161Y-91379685D01*
X122783861Y-91374598D01*
X122755633Y-91368679D01*
X122733003Y-91361857D01*
X122714497Y-91354063D01*
X122698642Y-91345226D01*
X122683963Y-91335277D01*
X122668988Y-91324145D01*
X122652241Y-91311760D01*
X122635460Y-91299782D01*
X122602279Y-91276629D01*
X122581346Y-91262761D01*
X122580469Y-91262426D01*
X122576510Y-91267268D01*
X122573207Y-91284357D01*
X122570509Y-91315593D01*
X122568365Y-91362879D01*
X122566724Y-91428116D01*
X122565537Y-91513204D01*
X122564751Y-91620047D01*
X122564317Y-91750545D01*
X122564183Y-91906600D01*
X122564183Y-92560792D01*
X122605158Y-92526314D01*
X122633301Y-92506332D01*
X122699656Y-92473071D01*
X122782183Y-92443923D01*
X122873727Y-92421676D01*
X122882417Y-92420258D01*
X122928231Y-92416040D01*
X122999037Y-92412845D01*
X123095323Y-92410665D01*
X123217580Y-92409493D01*
X123366299Y-92409319D01*
X123541970Y-92410136D01*
X124128460Y-92414189D01*
X123598907Y-92832946D01*
X123583738Y-92844940D01*
X123449303Y-92951133D01*
X123334172Y-93041793D01*
X123236387Y-93118363D01*
X123153991Y-93182287D01*
X123085026Y-93235007D01*
X123027534Y-93277965D01*
X122979558Y-93312605D01*
X122939141Y-93340369D01*
X122904324Y-93362700D01*
X122873151Y-93381042D01*
X122843663Y-93396836D01*
X122813903Y-93411526D01*
X122761225Y-93434124D01*
X122705654Y-93448723D01*
X122645714Y-93452606D01*
X122564183Y-93452216D01*
X122564183Y-94841607D01*
X121822778Y-94841607D01*
X121822778Y-92976426D01*
X121822773Y-92853294D01*
X121822737Y-92588771D01*
X121822711Y-92349812D01*
X121822747Y-92135096D01*
X121822897Y-91943301D01*
X121823214Y-91773107D01*
X121823750Y-91623191D01*
X121824556Y-91492232D01*
X121825686Y-91378909D01*
X121827192Y-91281900D01*
X121829125Y-91199885D01*
X121831539Y-91131540D01*
X121834484Y-91075546D01*
X121838014Y-91030581D01*
X121842181Y-90995323D01*
X121847037Y-90968451D01*
X121852634Y-90948643D01*
X121859024Y-90934579D01*
X121866260Y-90924936D01*
X121874394Y-90918393D01*
X121883479Y-90913629D01*
X121893566Y-90909322D01*
X121904707Y-90904151D01*
X121904889Y-90904059D01*
X121912182Y-90901548D01*
X121924395Y-90899246D01*
X121942653Y-90897142D01*
X121968085Y-90895228D01*
X122001817Y-90893496D01*
X122044976Y-90891936D01*
X122098689Y-90890541D01*
X122164083Y-90889301D01*
X122242286Y-90888207D01*
X122334424Y-90887251D01*
X122441624Y-90886424D01*
X122565014Y-90885717D01*
X122705719Y-90885121D01*
X122864868Y-90884629D01*
X123043588Y-90884230D01*
X123243005Y-90883917D01*
X123464246Y-90883681D01*
X123708438Y-90883512D01*
X123976709Y-90883402D01*
X124270185Y-90883342D01*
X124589994Y-90883325D01*
X124652821Y-90883324D01*
X124969297Y-90883294D01*
X125259663Y-90883247D01*
X125525055Y-90883219D01*
X125766608Y-90883247D01*
X125985458Y-90883364D01*
X126182739Y-90883609D01*
X126359587Y-90884016D01*
X126517138Y-90884621D01*
X126656527Y-90885460D01*
X126738021Y-90886199D01*
X126778888Y-90886569D01*
X126885358Y-90887982D01*
G37*
X126885358Y-90887982D02*
X126977072Y-90889737D01*
X127055165Y-90891868D01*
X127120772Y-90894412D01*
X127175029Y-90897403D01*
X127219071Y-90900879D01*
X127254033Y-90904874D01*
X127281051Y-90909425D01*
X127301260Y-90914567D01*
X127315795Y-90920335D01*
X127325792Y-90926766D01*
X127332386Y-90933895D01*
X127336713Y-90941759D01*
X127339907Y-90950392D01*
X127343104Y-90959830D01*
X127347439Y-90970110D01*
X127349611Y-90975894D01*
X127351984Y-90986504D01*
X127354158Y-91002269D01*
X127356141Y-91024304D01*
X127357944Y-91053724D01*
X127359573Y-91091645D01*
X127361039Y-91139182D01*
X127362349Y-91197450D01*
X127363513Y-91267564D01*
X127364539Y-91350640D01*
X127365436Y-91447793D01*
X127366213Y-91560138D01*
X127366878Y-91688789D01*
X127367440Y-91834864D01*
X127367908Y-91999476D01*
X127368290Y-92183741D01*
X127368596Y-92388774D01*
X127368833Y-92615690D01*
X127369011Y-92865605D01*
X127369139Y-93139633D01*
X127369224Y-93438891D01*
X127369276Y-93764493D01*
X127369286Y-93867675D01*
X127369293Y-94186211D01*
X127369253Y-94478727D01*
X127369158Y-94746326D01*
X127369001Y-94990110D01*
X127368773Y-95211182D01*
X127368467Y-95410642D01*
X127368073Y-95589593D01*
X127367586Y-95749138D01*
X127366995Y-95890378D01*
X127366295Y-96014415D01*
X127365475Y-96122351D01*
X127364529Y-96215288D01*
X127363448Y-96294329D01*
X127362225Y-96360575D01*
X127360851Y-96415129D01*
X127359319Y-96459092D01*
X127357620Y-96493567D01*
X127355746Y-96519655D01*
X127353690Y-96538458D01*
X127351444Y-96551079D01*
X127348998Y-96558620D01*
X127347910Y-96561019D01*
X127344335Y-96570841D01*
X127341724Y-96579848D01*
X127338941Y-96588077D01*
X127334848Y-96595564D01*
X127328308Y-96602346D01*
X127318185Y-96608459D01*
X127303341Y-96613939D01*
X127282639Y-96618824D01*
X127254943Y-96623150D01*
X127219116Y-96626953D01*
X127174021Y-96630270D01*
X127118520Y-96633138D01*
X127051477Y-96635592D01*
X126971755Y-96637670D01*
X126878218Y-96639407D01*
X126769727Y-96640841D01*
X126645146Y-96642008D01*
X126503338Y-96642944D01*
X126343167Y-96643686D01*
X126163495Y-96644271D01*
X125963185Y-96644735D01*
X125741100Y-96645114D01*
X125496104Y-96645445D01*
X125227060Y-96645765D01*
X124932830Y-96646110D01*
X124612278Y-96646516D01*
X124573472Y-96646569D01*
X124254951Y-96647022D01*
X123962620Y-96647455D01*
X123695341Y-96647837D01*
X123451977Y-96648134D01*
X123231390Y-96648316D01*
X123032443Y-96648349D01*
X122853998Y-96648203D01*
X122694919Y-96647844D01*
X122554067Y-96647240D01*
X122430305Y-96646360D01*
X122322495Y-96645172D01*
X122229501Y-96643643D01*
X122150185Y-96641742D01*
X122083408Y-96639436D01*
X122028035Y-96636693D01*
X121982927Y-96633482D01*
X121946947Y-96629769D01*
X121918957Y-96625524D01*
X121897820Y-96620713D01*
X121882399Y-96615306D01*
X121871556Y-96609269D01*
X121864154Y-96602571D01*
X121859055Y-96595179D01*
X121855121Y-96587063D01*
X121851216Y-96578189D01*
X121846202Y-96568525D01*
X121844604Y-96565697D01*
X121829137Y-96522910D01*
X121822780Y-96476071D01*
X121822782Y-96423270D01*
X121942915Y-96422390D01*
X121956740Y-96422167D01*
X122097263Y-96405385D01*
X122229483Y-96362641D01*
X122352000Y-96294531D01*
X122463411Y-96201646D01*
X122508851Y-96151802D01*
X122584168Y-96040819D01*
X122636691Y-95919726D01*
X122666390Y-95792049D01*
X122673238Y-95661317D01*
X122657207Y-95531054D01*
X122618269Y-95404789D01*
X122556396Y-95286048D01*
X122471559Y-95178357D01*
X122441650Y-95148420D01*
X122362454Y-95085141D01*
X123676292Y-95085141D01*
X123676292Y-96168303D01*
X126525210Y-96176135D01*
X126607216Y-96214533D01*
X126647863Y-96234778D01*
X126688580Y-96257701D01*
X126713622Y-96275013D01*
X126713670Y-96275056D01*
X126719488Y-96279259D01*
X126724299Y-96278862D01*
X126728198Y-96271579D01*
X126731280Y-96255125D01*
X126733642Y-96227213D01*
X126735378Y-96185557D01*
X126736584Y-96127872D01*
X126737356Y-96051872D01*
X126737789Y-95955270D01*
X126737979Y-95835780D01*
X126738021Y-95691118D01*
X126738021Y-95085141D01*
X126645346Y-95136368D01*
X126552670Y-95187595D01*
X123861643Y-95187595D01*
X123768967Y-95136368D01*
X123676292Y-95085141D01*
X122362454Y-95085141D01*
X122330910Y-95059937D01*
X122210732Y-94997150D01*
X122080339Y-94959725D01*
X121938958Y-94947325D01*
X121822778Y-94947325D01*
X121822778Y-94841607D01*
X122564183Y-94841607D01*
X122607647Y-94781195D01*
X122648496Y-94730104D01*
X122715124Y-94658111D01*
X122798628Y-94576454D01*
X122895826Y-94488224D01*
X123003535Y-94396514D01*
X123032338Y-94372897D01*
X123081740Y-94332687D01*
X123146553Y-94280127D01*
X123224614Y-94216958D01*
X123313759Y-94144922D01*
X123411826Y-94065760D01*
X123516652Y-93981212D01*
X123626072Y-93893021D01*
X123676292Y-93852570D01*
X123737924Y-93802928D01*
X123850045Y-93712674D01*
X123960272Y-93623999D01*
X124066440Y-93538646D01*
X124166388Y-93458356D01*
X124257951Y-93384870D01*
X124338967Y-93319929D01*
X124407272Y-93265274D01*
X124460703Y-93222648D01*
X124497096Y-93193790D01*
X124514290Y-93180443D01*
X124520751Y-93179341D01*
X124533040Y-93183006D01*
X124552373Y-93192501D01*
X124580122Y-93208776D01*
X124617658Y-93232778D01*
X124666352Y-93265454D01*
X124727577Y-93307753D01*
X124802702Y-93360623D01*
X124893100Y-93425011D01*
X125000142Y-93501866D01*
X125125200Y-93592134D01*
X125269644Y-93696765D01*
X125434846Y-93816705D01*
X125566345Y-93912272D01*
X125726653Y-94028866D01*
X125867435Y-94131426D01*
X125990252Y-94221145D01*
X126096667Y-94299214D01*
X126188243Y-94366826D01*
X126266542Y-94425176D01*
X126333127Y-94475454D01*
X126389559Y-94518853D01*
X126437402Y-94556568D01*
X126478217Y-94589789D01*
X126513568Y-94619711D01*
X126545016Y-94647525D01*
X126574124Y-94674424D01*
X126602454Y-94701601D01*
X126631570Y-94730249D01*
X126738021Y-94835822D01*
X126738079Y-93416460D01*
X126652067Y-93420919D01*
X126647745Y-93421135D01*
X126613361Y-93421982D01*
X126580416Y-93420377D01*
X126547106Y-93415248D01*
X126511626Y-93405521D01*
X126472173Y-93390123D01*
X126426941Y-93367980D01*
X126374125Y-93338019D01*
X126311922Y-93299166D01*
X126238525Y-93250348D01*
X126152132Y-93190492D01*
X126050938Y-93118524D01*
X125933136Y-93033371D01*
X125796924Y-92933960D01*
X125640497Y-92819216D01*
X125089089Y-92414189D01*
X125728430Y-92410621D01*
X125788068Y-92410305D01*
X125948705Y-92409747D01*
X126085337Y-92410001D01*
X126200550Y-92411364D01*
X126296931Y-92414137D01*
X126377064Y-92418616D01*
X126443535Y-92425101D01*
X126498931Y-92433891D01*
X126545836Y-92445284D01*
X126586836Y-92459579D01*
X126624517Y-92477074D01*
X126661465Y-92498067D01*
X126700265Y-92522859D01*
X126738021Y-92547780D01*
X126738021Y-91252630D01*
X126693400Y-91286085D01*
X126686341Y-91291324D01*
X126621642Y-91333212D01*
X126556238Y-91362087D01*
X126481296Y-91381048D01*
X126387981Y-91393193D01*
X126383913Y-91393527D01*
X126345423Y-91395289D01*
X126281204Y-91396881D01*
X126192724Y-91398294D01*
X126081451Y-91399522D01*
X125948851Y-91400558D01*
X125796393Y-91401396D01*
X125625544Y-91402028D01*
X125437770Y-91402447D01*
X125234541Y-91402646D01*
X125017322Y-91402619D01*
X124787583Y-91402359D01*
X124546789Y-91401859D01*
X124330796Y-91401329D01*
X124095683Y-91400762D01*
X123885327Y-91400203D01*
X123698254Y-91399584D01*
X123532990Y-91398833D01*
X123388061Y-91397880D01*
X123261995Y-91396656D01*
X123153316Y-91395091D01*
X123060552Y-91393113D01*
X122982228Y-91390654D01*
X122916870Y-91387643D01*
X122863006Y-91384010D01*
X122819161Y-91379685D01*
X122783861Y-91374598D01*
X122755633Y-91368679D01*
X122733003Y-91361857D01*
X122714497Y-91354063D01*
X122698642Y-91345226D01*
X122683963Y-91335277D01*
X122668988Y-91324145D01*
X122652241Y-91311760D01*
X122635460Y-91299782D01*
X122602279Y-91276629D01*
X122581346Y-91262761D01*
X122580469Y-91262426D01*
X122576510Y-91267268D01*
X122573207Y-91284357D01*
X122570509Y-91315593D01*
X122568365Y-91362879D01*
X122566724Y-91428116D01*
X122565537Y-91513204D01*
X122564751Y-91620047D01*
X122564317Y-91750545D01*
X122564183Y-91906600D01*
X122564183Y-92560792D01*
X122605158Y-92526314D01*
X122633301Y-92506332D01*
X122699656Y-92473071D01*
X122782183Y-92443923D01*
X122873727Y-92421676D01*
X122882417Y-92420258D01*
X122928231Y-92416040D01*
X122999037Y-92412845D01*
X123095323Y-92410665D01*
X123217580Y-92409493D01*
X123366299Y-92409319D01*
X123541970Y-92410136D01*
X124128460Y-92414189D01*
X123598907Y-92832946D01*
X123583738Y-92844940D01*
X123449303Y-92951133D01*
X123334172Y-93041793D01*
X123236387Y-93118363D01*
X123153991Y-93182287D01*
X123085026Y-93235007D01*
X123027534Y-93277965D01*
X122979558Y-93312605D01*
X122939141Y-93340369D01*
X122904324Y-93362700D01*
X122873151Y-93381042D01*
X122843663Y-93396836D01*
X122813903Y-93411526D01*
X122761225Y-93434124D01*
X122705654Y-93448723D01*
X122645714Y-93452606D01*
X122564183Y-93452216D01*
X122564183Y-94841607D01*
X121822778Y-94841607D01*
X121822778Y-92976426D01*
X121822773Y-92853294D01*
X121822737Y-92588771D01*
X121822711Y-92349812D01*
X121822747Y-92135096D01*
X121822897Y-91943301D01*
X121823214Y-91773107D01*
X121823750Y-91623191D01*
X121824556Y-91492232D01*
X121825686Y-91378909D01*
X121827192Y-91281900D01*
X121829125Y-91199885D01*
X121831539Y-91131540D01*
X121834484Y-91075546D01*
X121838014Y-91030581D01*
X121842181Y-90995323D01*
X121847037Y-90968451D01*
X121852634Y-90948643D01*
X121859024Y-90934579D01*
X121866260Y-90924936D01*
X121874394Y-90918393D01*
X121883479Y-90913629D01*
X121893566Y-90909322D01*
X121904707Y-90904151D01*
X121904889Y-90904059D01*
X121912182Y-90901548D01*
X121924395Y-90899246D01*
X121942653Y-90897142D01*
X121968085Y-90895228D01*
X122001817Y-90893496D01*
X122044976Y-90891936D01*
X122098689Y-90890541D01*
X122164083Y-90889301D01*
X122242286Y-90888207D01*
X122334424Y-90887251D01*
X122441624Y-90886424D01*
X122565014Y-90885717D01*
X122705719Y-90885121D01*
X122864868Y-90884629D01*
X123043588Y-90884230D01*
X123243005Y-90883917D01*
X123464246Y-90883681D01*
X123708438Y-90883512D01*
X123976709Y-90883402D01*
X124270185Y-90883342D01*
X124589994Y-90883325D01*
X124652821Y-90883324D01*
X124969297Y-90883294D01*
X125259663Y-90883247D01*
X125525055Y-90883219D01*
X125766608Y-90883247D01*
X125985458Y-90883364D01*
X126182739Y-90883609D01*
X126359587Y-90884016D01*
X126517138Y-90884621D01*
X126656527Y-90885460D01*
X126738021Y-90886199D01*
X126778888Y-90886569D01*
X126885358Y-90887982D01*
X122509547Y-98984476D02*
X122525755Y-99132528D01*
X122525755Y-99132528D02*
X122554766Y-99275966D01*
X122554766Y-99275966D02*
X122598093Y-99420624D01*
X122598093Y-99420624D02*
X122657249Y-99572338D01*
X122657249Y-99572338D02*
X122733748Y-99736942D01*
X122733748Y-99736942D02*
X122748565Y-99766585D01*
X122748565Y-99766585D02*
X122782079Y-99834612D01*
X122782079Y-99834612D02*
X122812256Y-99898770D01*
X122812256Y-99898770D02*
X122836214Y-99952729D01*
X122836214Y-99952729D02*
X122851072Y-99990154D01*
X122851072Y-99990154D02*
X122852943Y-99995903D01*
X122852943Y-99995903D02*
X122869450Y-100051000D01*
X122869450Y-100051000D02*
X123228249Y-99804365D01*
X123228249Y-99804365D02*
X123315941Y-99744066D01*
X123315941Y-99744066D02*
X123396060Y-99688936D01*
X123396060Y-99688936D02*
X123465884Y-99640850D01*
X123465884Y-99640850D02*
X123522695Y-99601682D01*
X123522695Y-99601682D02*
X123563771Y-99573308D01*
X123563771Y-99573308D02*
X123586394Y-99557601D01*
X123586394Y-99557601D02*
X123589976Y-99555050D01*
X123589976Y-99555050D02*
X123582486Y-99544685D01*
X123582486Y-99544685D02*
X123559966Y-99519174D01*
X123559966Y-99519174D02*
X123526509Y-99483077D01*
X123526509Y-99483077D02*
X123507598Y-99463156D01*
X123507598Y-99463156D02*
X123417826Y-99350287D01*
X123417826Y-99350287D02*
X123349609Y-99223528D01*
X123349609Y-99223528D02*
X123312243Y-99114297D01*
X123312243Y-99114297D02*
X123300508Y-99048728D01*
X123300508Y-99048728D02*
X123293356Y-98966630D01*
X123293356Y-98966630D02*
X123290922Y-98877658D01*
X123290922Y-98877658D02*
X123293336Y-98791470D01*
X123293336Y-98791470D02*
X123300731Y-98717719D01*
X123300731Y-98717719D02*
X123306395Y-98688290D01*
X123306395Y-98688290D02*
X123352030Y-98555647D01*
X123352030Y-98555647D02*
X123421711Y-98436120D01*
X123421711Y-98436120D02*
X123515308Y-98329797D01*
X123515308Y-98329797D02*
X123632697Y-98236767D01*
X123632697Y-98236767D02*
X123773748Y-98157119D01*
X123773748Y-98157119D02*
X123938334Y-98090940D01*
X123938334Y-98090940D02*
X124126328Y-98038320D01*
X124126328Y-98038320D02*
X124287265Y-98007047D01*
X124287265Y-98007047D02*
X124358311Y-97998888D01*
X124358311Y-97998888D02*
X124450094Y-97993329D01*
X124450094Y-97993329D02*
X124556016Y-97990316D01*
X124556016Y-97990316D02*
X124669482Y-97989795D01*
X124669482Y-97989795D02*
X124783897Y-97991714D01*
X124783897Y-97991714D02*
X124892665Y-97996017D01*
X124892665Y-97996017D02*
X124989191Y-98002651D01*
X124989191Y-98002651D02*
X125066879Y-98011563D01*
X125066879Y-98011563D02*
X125078865Y-98013493D01*
X125078865Y-98013493D02*
X125271940Y-98056013D01*
X125271940Y-98056013D02*
X125442821Y-98113947D01*
X125442821Y-98113947D02*
X125592272Y-98187647D01*
X125592272Y-98187647D02*
X125721059Y-98277465D01*
X125721059Y-98277465D02*
X125790687Y-98341221D01*
X125790687Y-98341221D02*
X125885221Y-98455800D01*
X125885221Y-98455800D02*
X125955294Y-98581456D01*
X125955294Y-98581456D02*
X126000525Y-98716071D01*
X126000525Y-98716071D02*
X126020532Y-98857525D01*
X126020532Y-98857525D02*
X126014933Y-99003697D01*
X126014933Y-99003697D02*
X125983348Y-99152469D01*
X125983348Y-99152469D02*
X125952442Y-99240425D01*
X125952442Y-99240425D02*
X125890554Y-99362143D01*
X125890554Y-99362143D02*
X125801777Y-99487594D01*
X125801777Y-99487594D02*
X125741742Y-99557867D01*
X125741742Y-99557867D02*
X125706995Y-99597325D01*
X125706995Y-99597325D02*
X125681502Y-99628326D01*
X125681502Y-99628326D02*
X125669218Y-99645972D01*
X125669218Y-99645972D02*
X125668843Y-99648162D01*
X125668843Y-99648162D02*
X125681395Y-99656038D01*
X125681395Y-99656038D02*
X125714564Y-99676446D01*
X125714564Y-99676446D02*
X125765506Y-99707646D01*
X125765506Y-99707646D02*
X125831379Y-99747900D01*
X125831379Y-99747900D02*
X125909337Y-99795471D01*
X125909337Y-99795471D02*
X125996538Y-99848618D01*
X125996538Y-99848618D02*
X126045115Y-99878201D01*
X126045115Y-99878201D02*
X126416263Y-100104162D01*
X126416263Y-100104162D02*
X126555687Y-99822041D01*
X126555687Y-99822041D02*
X126605767Y-99720036D01*
X126605767Y-99720036D02*
X126645258Y-99637403D01*
X126645258Y-99637403D02*
X126676121Y-99569092D01*
X126676121Y-99569092D02*
X126700316Y-99510051D01*
X126700316Y-99510051D02*
X126719806Y-99455228D01*
X126719806Y-99455228D02*
X126736551Y-99399574D01*
X126736551Y-99399574D02*
X126752513Y-99338037D01*
X126752513Y-99338037D02*
X126766530Y-99279054D01*
X126766530Y-99279054D02*
X126777377Y-99226629D01*
X126777377Y-99226629D02*
X126785574Y-99171802D01*
X126785574Y-99171802D02*
X126791576Y-99109086D01*
X126791576Y-99109086D02*
X126795838Y-99032991D01*
X126795838Y-99032991D02*
X126798815Y-98938030D01*
X126798815Y-98938030D02*
X126800100Y-98874027D01*
X126800100Y-98874027D02*
X126800978Y-98782706D01*
X126800978Y-98782706D02*
X126800535Y-98695141D01*
X126800535Y-98695141D02*
X126798900Y-98617126D01*
X126798900Y-98617126D02*
X126796197Y-98554456D01*
X126796197Y-98554456D02*
X126792553Y-98512927D01*
X126792553Y-98512927D02*
X126792190Y-98510466D01*
X126792190Y-98510466D02*
X126745535Y-98294817D01*
X126745535Y-98294817D02*
X126674777Y-98092307D01*
X126674777Y-98092307D02*
X126579962Y-97903009D01*
X126579962Y-97903009D02*
X126461137Y-97726993D01*
X126461137Y-97726993D02*
X126318348Y-97564330D01*
X126318348Y-97564330D02*
X126151642Y-97415092D01*
X126151642Y-97415092D02*
X126003481Y-97307010D01*
X126003481Y-97307010D02*
X125809550Y-97191948D01*
X125809550Y-97191948D02*
X125604747Y-97098937D01*
X125604747Y-97098937D02*
X125387431Y-97027527D01*
X125387431Y-97027527D02*
X125155960Y-96977270D01*
X125155960Y-96977270D02*
X124908691Y-96947715D01*
X124908691Y-96947715D02*
X124657607Y-96938403D01*
X124657607Y-96938403D02*
X124414718Y-96946062D01*
X124414718Y-96946062D02*
X124190618Y-96970127D01*
X124190618Y-96970127D02*
X123981525Y-97011366D01*
X123981525Y-97011366D02*
X123783661Y-97070541D01*
X123783661Y-97070541D02*
X123593244Y-97148418D01*
X123593244Y-97148418D02*
X123573516Y-97157717D01*
X123573516Y-97157717D02*
X123389107Y-97260162D01*
X123389107Y-97260162D02*
X123213624Y-97385986D01*
X123213624Y-97385986D02*
X123050698Y-97531626D01*
X123050698Y-97531626D02*
X122903962Y-97693515D01*
X122903962Y-97693515D02*
X122777049Y-97868090D01*
X122777049Y-97868090D02*
X122683953Y-98030758D01*
X122683953Y-98030758D02*
X122611039Y-98195087D01*
X122611039Y-98195087D02*
X122558222Y-98359765D01*
X122558222Y-98359765D02*
X122524063Y-98531166D01*
X122524063Y-98531166D02*
X122507126Y-98715667D01*
X122507126Y-98715667D02*
X122504628Y-98825973D01*
X122504628Y-98825973D02*
X122509547Y-98984476D01*
X122509547Y-98984476D02*
X122509547Y-98984476D01*
G36*
X124908691Y-96947715D02*
G01*
X125155960Y-96977270D01*
X125387431Y-97027527D01*
X125604747Y-97098937D01*
X125809550Y-97191948D01*
X126003481Y-97307010D01*
X126151642Y-97415092D01*
X126318348Y-97564330D01*
X126461137Y-97726993D01*
X126579962Y-97903009D01*
X126674777Y-98092307D01*
X126745535Y-98294817D01*
X126792190Y-98510466D01*
X126792553Y-98512927D01*
X126796197Y-98554456D01*
X126798900Y-98617126D01*
X126800535Y-98695141D01*
X126800978Y-98782706D01*
X126800100Y-98874027D01*
X126798815Y-98938030D01*
X126795838Y-99032991D01*
X126791576Y-99109086D01*
X126785574Y-99171802D01*
X126777377Y-99226629D01*
X126766530Y-99279054D01*
X126752513Y-99338037D01*
X126736551Y-99399574D01*
X126719806Y-99455228D01*
X126700316Y-99510051D01*
X126676121Y-99569092D01*
X126645258Y-99637403D01*
X126605767Y-99720036D01*
X126555687Y-99822041D01*
X126416263Y-100104162D01*
X126045115Y-99878201D01*
X125996538Y-99848618D01*
X125909337Y-99795471D01*
X125831379Y-99747900D01*
X125765506Y-99707646D01*
X125714564Y-99676446D01*
X125681395Y-99656038D01*
X125668843Y-99648162D01*
X125669218Y-99645972D01*
X125681502Y-99628326D01*
X125706995Y-99597325D01*
X125741742Y-99557867D01*
X125801777Y-99487594D01*
X125890554Y-99362143D01*
X125952442Y-99240425D01*
X125983348Y-99152469D01*
X126014933Y-99003697D01*
X126020532Y-98857525D01*
X126000525Y-98716071D01*
X125955294Y-98581456D01*
X125885221Y-98455800D01*
X125790687Y-98341221D01*
X125721059Y-98277465D01*
X125592272Y-98187647D01*
X125442821Y-98113947D01*
X125271940Y-98056013D01*
X125078865Y-98013493D01*
X125066879Y-98011563D01*
X124989191Y-98002651D01*
X124892665Y-97996017D01*
X124783897Y-97991714D01*
X124669482Y-97989795D01*
X124556016Y-97990316D01*
X124450094Y-97993329D01*
X124358311Y-97998888D01*
X124287265Y-98007047D01*
X124126328Y-98038320D01*
X123938334Y-98090940D01*
X123773748Y-98157119D01*
X123632697Y-98236767D01*
X123515308Y-98329797D01*
X123421711Y-98436120D01*
X123352030Y-98555647D01*
X123306395Y-98688290D01*
X123300731Y-98717719D01*
X123293336Y-98791470D01*
X123290922Y-98877658D01*
X123293356Y-98966630D01*
X123300508Y-99048728D01*
X123312243Y-99114297D01*
X123349609Y-99223528D01*
X123417826Y-99350287D01*
X123507598Y-99463156D01*
X123526509Y-99483077D01*
X123559966Y-99519174D01*
X123582486Y-99544685D01*
X123589976Y-99555050D01*
X123586394Y-99557601D01*
X123563771Y-99573308D01*
X123522695Y-99601682D01*
X123465884Y-99640850D01*
X123396060Y-99688936D01*
X123315941Y-99744066D01*
X123228249Y-99804365D01*
X122869450Y-100051000D01*
X122852943Y-99995903D01*
X122851072Y-99990154D01*
X122836214Y-99952729D01*
X122812256Y-99898770D01*
X122782079Y-99834612D01*
X122748565Y-99766585D01*
X122733748Y-99736942D01*
X122657249Y-99572338D01*
X122598093Y-99420624D01*
X122554766Y-99275966D01*
X122525755Y-99132528D01*
X122509547Y-98984476D01*
X122504628Y-98825973D01*
X122507126Y-98715667D01*
X122524063Y-98531166D01*
X122558222Y-98359765D01*
X122611039Y-98195087D01*
X122683953Y-98030758D01*
X122777049Y-97868090D01*
X122903962Y-97693515D01*
X123050698Y-97531626D01*
X123213624Y-97385986D01*
X123389107Y-97260162D01*
X123573516Y-97157717D01*
X123593244Y-97148418D01*
X123783661Y-97070541D01*
X123981525Y-97011366D01*
X124190618Y-96970127D01*
X124414718Y-96946062D01*
X124657607Y-96938403D01*
X124908691Y-96947715D01*
G37*
X124908691Y-96947715D02*
X125155960Y-96977270D01*
X125387431Y-97027527D01*
X125604747Y-97098937D01*
X125809550Y-97191948D01*
X126003481Y-97307010D01*
X126151642Y-97415092D01*
X126318348Y-97564330D01*
X126461137Y-97726993D01*
X126579962Y-97903009D01*
X126674777Y-98092307D01*
X126745535Y-98294817D01*
X126792190Y-98510466D01*
X126792553Y-98512927D01*
X126796197Y-98554456D01*
X126798900Y-98617126D01*
X126800535Y-98695141D01*
X126800978Y-98782706D01*
X126800100Y-98874027D01*
X126798815Y-98938030D01*
X126795838Y-99032991D01*
X126791576Y-99109086D01*
X126785574Y-99171802D01*
X126777377Y-99226629D01*
X126766530Y-99279054D01*
X126752513Y-99338037D01*
X126736551Y-99399574D01*
X126719806Y-99455228D01*
X126700316Y-99510051D01*
X126676121Y-99569092D01*
X126645258Y-99637403D01*
X126605767Y-99720036D01*
X126555687Y-99822041D01*
X126416263Y-100104162D01*
X126045115Y-99878201D01*
X125996538Y-99848618D01*
X125909337Y-99795471D01*
X125831379Y-99747900D01*
X125765506Y-99707646D01*
X125714564Y-99676446D01*
X125681395Y-99656038D01*
X125668843Y-99648162D01*
X125669218Y-99645972D01*
X125681502Y-99628326D01*
X125706995Y-99597325D01*
X125741742Y-99557867D01*
X125801777Y-99487594D01*
X125890554Y-99362143D01*
X125952442Y-99240425D01*
X125983348Y-99152469D01*
X126014933Y-99003697D01*
X126020532Y-98857525D01*
X126000525Y-98716071D01*
X125955294Y-98581456D01*
X125885221Y-98455800D01*
X125790687Y-98341221D01*
X125721059Y-98277465D01*
X125592272Y-98187647D01*
X125442821Y-98113947D01*
X125271940Y-98056013D01*
X125078865Y-98013493D01*
X125066879Y-98011563D01*
X124989191Y-98002651D01*
X124892665Y-97996017D01*
X124783897Y-97991714D01*
X124669482Y-97989795D01*
X124556016Y-97990316D01*
X124450094Y-97993329D01*
X124358311Y-97998888D01*
X124287265Y-98007047D01*
X124126328Y-98038320D01*
X123938334Y-98090940D01*
X123773748Y-98157119D01*
X123632697Y-98236767D01*
X123515308Y-98329797D01*
X123421711Y-98436120D01*
X123352030Y-98555647D01*
X123306395Y-98688290D01*
X123300731Y-98717719D01*
X123293336Y-98791470D01*
X123290922Y-98877658D01*
X123293356Y-98966630D01*
X123300508Y-99048728D01*
X123312243Y-99114297D01*
X123349609Y-99223528D01*
X123417826Y-99350287D01*
X123507598Y-99463156D01*
X123526509Y-99483077D01*
X123559966Y-99519174D01*
X123582486Y-99544685D01*
X123589976Y-99555050D01*
X123586394Y-99557601D01*
X123563771Y-99573308D01*
X123522695Y-99601682D01*
X123465884Y-99640850D01*
X123396060Y-99688936D01*
X123315941Y-99744066D01*
X123228249Y-99804365D01*
X122869450Y-100051000D01*
X122852943Y-99995903D01*
X122851072Y-99990154D01*
X122836214Y-99952729D01*
X122812256Y-99898770D01*
X122782079Y-99834612D01*
X122748565Y-99766585D01*
X122733748Y-99736942D01*
X122657249Y-99572338D01*
X122598093Y-99420624D01*
X122554766Y-99275966D01*
X122525755Y-99132528D01*
X122509547Y-98984476D01*
X122504628Y-98825973D01*
X122507126Y-98715667D01*
X122524063Y-98531166D01*
X122558222Y-98359765D01*
X122611039Y-98195087D01*
X122683953Y-98030758D01*
X122777049Y-97868090D01*
X122903962Y-97693515D01*
X123050698Y-97531626D01*
X123213624Y-97385986D01*
X123389107Y-97260162D01*
X123573516Y-97157717D01*
X123593244Y-97148418D01*
X123783661Y-97070541D01*
X123981525Y-97011366D01*
X124190618Y-96970127D01*
X124414718Y-96946062D01*
X124657607Y-96938403D01*
X124908691Y-96947715D01*
X123613277Y-101712019D02*
X123618426Y-101780045D01*
X123618426Y-101780045D02*
X123644321Y-101974677D01*
X123644321Y-101974677D02*
X123685623Y-102147043D01*
X123685623Y-102147043D02*
X123742901Y-102297984D01*
X123742901Y-102297984D02*
X123816722Y-102428339D01*
X123816722Y-102428339D02*
X123907656Y-102538948D01*
X123907656Y-102538948D02*
X124016270Y-102630649D01*
X124016270Y-102630649D02*
X124143133Y-102704284D01*
X124143133Y-102704284D02*
X124280400Y-102758053D01*
X124280400Y-102758053D02*
X124324185Y-102771701D01*
X124324185Y-102771701D02*
X124365189Y-102783587D01*
X124365189Y-102783587D02*
X124405617Y-102793848D01*
X124405617Y-102793848D02*
X124447678Y-102802627D01*
X124447678Y-102802627D02*
X124493579Y-102810062D01*
X124493579Y-102810062D02*
X124545528Y-102816294D01*
X124545528Y-102816294D02*
X124605733Y-102821464D01*
X124605733Y-102821464D02*
X124676400Y-102825710D01*
X124676400Y-102825710D02*
X124759737Y-102829174D01*
X124759737Y-102829174D02*
X124857953Y-102831995D01*
X124857953Y-102831995D02*
X124973253Y-102834314D01*
X124973253Y-102834314D02*
X125107847Y-102836271D01*
X125107847Y-102836271D02*
X125263941Y-102838005D01*
X125263941Y-102838005D02*
X125443743Y-102839657D01*
X125443743Y-102839657D02*
X125584724Y-102840838D01*
X125584724Y-102840838D02*
X126552670Y-102848784D01*
X126552670Y-102848784D02*
X126645818Y-102900270D01*
X126645818Y-102900270D02*
X126690693Y-102924651D01*
X126690693Y-102924651D02*
X126725549Y-102942794D01*
X126725549Y-102942794D02*
X126744102Y-102951449D01*
X126744102Y-102951449D02*
X126745359Y-102951757D01*
X126745359Y-102951757D02*
X126746797Y-102938528D01*
X126746797Y-102938528D02*
X126748122Y-102900840D01*
X126748122Y-102900840D02*
X126749297Y-102841697D01*
X126749297Y-102841697D02*
X126750285Y-102764100D01*
X126750285Y-102764100D02*
X126751047Y-102671050D01*
X126751047Y-102671050D02*
X126751548Y-102565549D01*
X126751548Y-102565549D02*
X126751749Y-102450598D01*
X126751749Y-102450598D02*
X126751751Y-102436892D01*
X126751751Y-102436892D02*
X126751751Y-101922027D01*
X126751751Y-101922027D02*
X126635048Y-101922027D01*
X126635048Y-101922027D02*
X126582308Y-101921149D01*
X126582308Y-101921149D02*
X126541974Y-101918806D01*
X126541974Y-101918806D02*
X126520348Y-101915435D01*
X126520348Y-101915435D02*
X126518346Y-101913945D01*
X126518346Y-101913945D02*
X126526731Y-101900318D01*
X126526731Y-101900318D02*
X126548740Y-101872271D01*
X126548740Y-101872271D02*
X126579649Y-101835817D01*
X126579649Y-101835817D02*
X126580364Y-101834999D01*
X126580364Y-101834999D02*
X126629891Y-101768476D01*
X126629891Y-101768476D02*
X126679623Y-101684462D01*
X126679623Y-101684462D02*
X126724674Y-101592451D01*
X126724674Y-101592451D02*
X126760158Y-101501935D01*
X126760158Y-101501935D02*
X126772284Y-101462081D01*
X126772284Y-101462081D02*
X126787685Y-101382769D01*
X126787685Y-101382769D02*
X126797513Y-101285449D01*
X126797513Y-101285449D02*
X126801628Y-101179030D01*
X126801628Y-101179030D02*
X126799889Y-101072421D01*
X126799889Y-101072421D02*
X126792156Y-100974531D01*
X126792156Y-100974531D02*
X126781029Y-100906027D01*
X126781029Y-100906027D02*
X126731696Y-100738034D01*
X126731696Y-100738034D02*
X126661390Y-100586795D01*
X126661390Y-100586795D02*
X126570981Y-100453296D01*
X126570981Y-100453296D02*
X126461343Y-100338520D01*
X126461343Y-100338520D02*
X126333347Y-100243451D01*
X126333347Y-100243451D02*
X126187866Y-100169074D01*
X126187866Y-100169074D02*
X126099589Y-100136988D01*
X126099589Y-100136988D02*
X126013787Y-100116879D01*
X126013787Y-100116879D02*
X125910784Y-100103552D01*
X125910784Y-100103552D02*
X125800082Y-100097386D01*
X125800082Y-100097386D02*
X125783973Y-100097588D01*
X125783973Y-100097588D02*
X125783973Y-101026162D01*
X125783973Y-101026162D02*
X125866232Y-101033862D01*
X125866232Y-101033862D02*
X125934594Y-101059503D01*
X125934594Y-101059503D02*
X125998018Y-101106892D01*
X125998018Y-101106892D02*
X126016615Y-101125093D01*
X126016615Y-101125093D02*
X126066894Y-101189796D01*
X126066894Y-101189796D02*
X126099104Y-101264580D01*
X126099104Y-101264580D02*
X126114696Y-101354176D01*
X126114696Y-101354176D02*
X126115844Y-101448526D01*
X126115844Y-101448526D02*
X126108264Y-101538015D01*
X126108264Y-101538015D02*
X126093437Y-101606532D01*
X126093437Y-101606532D02*
X126082301Y-101636289D01*
X126082301Y-101636289D02*
X126051952Y-101689922D01*
X126051952Y-101689922D02*
X126009269Y-101746749D01*
X126009269Y-101746749D02*
X125961365Y-101798596D01*
X125961365Y-101798596D02*
X125915349Y-101837292D01*
X125915349Y-101837292D02*
X125898469Y-101847568D01*
X125898469Y-101847568D02*
X125874830Y-101855556D01*
X125874830Y-101855556D02*
X125837216Y-101861235D01*
X125837216Y-101861235D02*
X125782033Y-101864870D01*
X125782033Y-101864870D02*
X125705688Y-101866725D01*
X125705688Y-101866725D02*
X125633029Y-101867108D01*
X125633029Y-101867108D02*
X125548318Y-101866849D01*
X125548318Y-101866849D02*
X125487066Y-101865801D01*
X125487066Y-101865801D02*
X125445275Y-101863559D01*
X125445275Y-101863559D02*
X125418947Y-101859720D01*
X125418947Y-101859720D02*
X125404083Y-101853879D01*
X125404083Y-101853879D02*
X125396687Y-101845632D01*
X125396687Y-101845632D02*
X125395509Y-101843081D01*
X125395509Y-101843081D02*
X125391881Y-101820914D01*
X125391881Y-101820914D02*
X125388914Y-101777194D01*
X125388914Y-101777194D02*
X125386875Y-101717825D01*
X125386875Y-101717825D02*
X125386031Y-101648710D01*
X125386031Y-101648710D02*
X125386030Y-101633703D01*
X125386030Y-101633703D02*
X125387505Y-101541319D01*
X125387505Y-101541319D02*
X125391890Y-101469946D01*
X125391890Y-101469946D02*
X125399786Y-101413233D01*
X125399786Y-101413233D02*
X125411318Y-101366386D01*
X125411318Y-101366386D02*
X125455263Y-101250183D01*
X125455263Y-101250183D02*
X125509291Y-101159057D01*
X125509291Y-101159057D02*
X125574267Y-101092219D01*
X125574267Y-101092219D02*
X125651053Y-101048879D01*
X125651053Y-101048879D02*
X125740515Y-101028248D01*
X125740515Y-101028248D02*
X125783973Y-101026162D01*
X125783973Y-101026162D02*
X125783973Y-100097588D01*
X125783973Y-100097588D02*
X125691181Y-100098758D01*
X125691181Y-100098758D02*
X125593584Y-100108046D01*
X125593584Y-100108046D02*
X125554153Y-100115291D01*
X125554153Y-100115291D02*
X125407749Y-100161553D01*
X125407749Y-100161553D02*
X125273043Y-100231898D01*
X125273043Y-100231898D02*
X125151328Y-100324998D01*
X125151328Y-100324998D02*
X125043895Y-100439526D01*
X125043895Y-100439526D02*
X124952036Y-100574154D01*
X124952036Y-100574154D02*
X124877044Y-100727554D01*
X124877044Y-100727554D02*
X124831506Y-100857973D01*
X124831506Y-100857973D02*
X124807581Y-100945137D01*
X124807581Y-100945137D02*
X124788991Y-101028510D01*
X124788991Y-101028510D02*
X124775132Y-101113490D01*
X124775132Y-101113490D02*
X124765399Y-101205479D01*
X124765399Y-101205479D02*
X124759189Y-101309876D01*
X124759189Y-101309876D02*
X124755899Y-101432082D01*
X124755899Y-101432082D02*
X124754972Y-101542569D01*
X124754972Y-101542569D02*
X124754075Y-101870191D01*
X124754075Y-101870191D02*
X124655595Y-101863915D01*
X124655595Y-101863915D02*
X124548743Y-101846093D01*
X124548743Y-101846093D02*
X124456900Y-101808181D01*
X124456900Y-101808181D02*
X124382358Y-101751794D01*
X124382358Y-101751794D02*
X124327412Y-101678545D01*
X124327412Y-101678545D02*
X124300600Y-101614049D01*
X124300600Y-101614049D02*
X124283702Y-101521637D01*
X124283702Y-101521637D02*
X124281275Y-101411625D01*
X124281275Y-101411625D02*
X124292426Y-101289170D01*
X124292426Y-101289170D02*
X124316258Y-101159428D01*
X124316258Y-101159428D02*
X124351878Y-101027556D01*
X124351878Y-101027556D02*
X124398391Y-100898712D01*
X124398391Y-100898712D02*
X124440931Y-100805080D01*
X124440931Y-100805080D02*
X124462776Y-100760031D01*
X124462776Y-100760031D02*
X124478032Y-100725670D01*
X124478032Y-100725670D02*
X124483985Y-100708195D01*
X124483985Y-100708195D02*
X124483794Y-100707247D01*
X124483794Y-100707247D02*
X124470460Y-100701217D01*
X124470460Y-100701217D02*
X124435116Y-100686159D01*
X124435116Y-100686159D02*
X124381149Y-100663491D01*
X124381149Y-100663491D02*
X124311944Y-100634629D01*
X124311944Y-100634629D02*
X124230888Y-100600991D01*
X124230888Y-100600991D02*
X124148166Y-100566798D01*
X124148166Y-100566798D02*
X123816851Y-100430100D01*
X123816851Y-100430100D02*
X123800881Y-100527334D01*
X123800881Y-100527334D02*
X123792868Y-100569478D01*
X123792868Y-100569478D02*
X123779409Y-100632833D01*
X123779409Y-100632833D02*
X123761727Y-100711971D01*
X123761727Y-100711971D02*
X123741044Y-100801465D01*
X123741044Y-100801465D02*
X123718580Y-100895887D01*
X123718580Y-100895887D02*
X123709451Y-100933487D01*
X123709451Y-100933487D02*
X123671722Y-101096151D01*
X123671722Y-101096151D02*
X123643436Y-101238564D01*
X123643436Y-101238564D02*
X123624020Y-101366041D01*
X123624020Y-101366041D02*
X123612902Y-101483898D01*
X123612902Y-101483898D02*
X123609512Y-101597452D01*
X123609512Y-101597452D02*
X123613277Y-101712019D01*
X123613277Y-101712019D02*
X123613277Y-101712019D01*
G36*
X125910784Y-100103552D02*
G01*
X126013787Y-100116879D01*
X126099589Y-100136988D01*
X126187866Y-100169074D01*
X126333347Y-100243451D01*
X126461343Y-100338520D01*
X126570981Y-100453296D01*
X126661390Y-100586795D01*
X126731696Y-100738034D01*
X126781029Y-100906027D01*
X126792156Y-100974531D01*
X126799889Y-101072421D01*
X126801628Y-101179030D01*
X126797513Y-101285449D01*
X126787685Y-101382769D01*
X126772284Y-101462081D01*
X126760158Y-101501935D01*
X126724674Y-101592451D01*
X126679623Y-101684462D01*
X126629891Y-101768476D01*
X126580364Y-101834999D01*
X126579649Y-101835817D01*
X126548740Y-101872271D01*
X126526731Y-101900318D01*
X126518346Y-101913945D01*
X126520348Y-101915435D01*
X126541974Y-101918806D01*
X126582308Y-101921149D01*
X126635048Y-101922027D01*
X126751751Y-101922027D01*
X126751751Y-102436892D01*
X126751749Y-102450598D01*
X126751548Y-102565549D01*
X126751047Y-102671050D01*
X126750285Y-102764100D01*
X126749297Y-102841697D01*
X126748122Y-102900840D01*
X126746797Y-102938528D01*
X126745359Y-102951757D01*
X126744102Y-102951449D01*
X126725549Y-102942794D01*
X126690693Y-102924651D01*
X126645818Y-102900270D01*
X126552670Y-102848784D01*
X125584724Y-102840838D01*
X125443743Y-102839657D01*
X125263941Y-102838005D01*
X125107847Y-102836271D01*
X124973253Y-102834314D01*
X124857953Y-102831995D01*
X124759737Y-102829174D01*
X124676400Y-102825710D01*
X124605733Y-102821464D01*
X124545528Y-102816294D01*
X124493579Y-102810062D01*
X124447678Y-102802627D01*
X124405617Y-102793848D01*
X124365189Y-102783587D01*
X124324185Y-102771701D01*
X124280400Y-102758053D01*
X124143133Y-102704284D01*
X124016270Y-102630649D01*
X123907656Y-102538948D01*
X123816722Y-102428339D01*
X123742901Y-102297984D01*
X123685623Y-102147043D01*
X123644321Y-101974677D01*
X123618426Y-101780045D01*
X123613277Y-101712019D01*
X123609512Y-101597452D01*
X123612902Y-101483898D01*
X123624020Y-101366041D01*
X123643436Y-101238564D01*
X123671722Y-101096151D01*
X123709451Y-100933487D01*
X123718580Y-100895887D01*
X123741044Y-100801465D01*
X123761727Y-100711971D01*
X123779409Y-100632833D01*
X123792868Y-100569478D01*
X123800881Y-100527334D01*
X123816851Y-100430100D01*
X124148166Y-100566798D01*
X124230888Y-100600991D01*
X124311944Y-100634629D01*
X124381149Y-100663491D01*
X124435116Y-100686159D01*
X124470460Y-100701217D01*
X124483794Y-100707247D01*
X124483985Y-100708195D01*
X124478032Y-100725670D01*
X124462776Y-100760031D01*
X124440931Y-100805080D01*
X124398391Y-100898712D01*
X124351878Y-101027556D01*
X124316258Y-101159428D01*
X124292426Y-101289170D01*
X124281275Y-101411625D01*
X124283702Y-101521637D01*
X124300600Y-101614049D01*
X124327412Y-101678545D01*
X124382358Y-101751794D01*
X124456900Y-101808181D01*
X124548743Y-101846093D01*
X124655595Y-101863915D01*
X124754075Y-101870191D01*
X124754722Y-101633703D01*
X125386030Y-101633703D01*
X125386031Y-101648710D01*
X125386875Y-101717825D01*
X125388914Y-101777194D01*
X125391881Y-101820914D01*
X125395509Y-101843081D01*
X125396687Y-101845632D01*
X125404083Y-101853879D01*
X125418947Y-101859720D01*
X125445275Y-101863559D01*
X125487066Y-101865801D01*
X125548318Y-101866849D01*
X125633029Y-101867108D01*
X125705688Y-101866725D01*
X125782033Y-101864870D01*
X125837216Y-101861235D01*
X125874830Y-101855556D01*
X125898469Y-101847568D01*
X125915349Y-101837292D01*
X125961365Y-101798596D01*
X126009269Y-101746749D01*
X126051952Y-101689922D01*
X126082301Y-101636289D01*
X126093437Y-101606532D01*
X126108264Y-101538015D01*
X126115844Y-101448526D01*
X126114696Y-101354176D01*
X126099104Y-101264580D01*
X126066894Y-101189796D01*
X126016615Y-101125093D01*
X125998018Y-101106892D01*
X125934594Y-101059503D01*
X125866232Y-101033862D01*
X125783973Y-101026162D01*
X125740515Y-101028248D01*
X125651053Y-101048879D01*
X125574267Y-101092219D01*
X125509291Y-101159057D01*
X125455263Y-101250183D01*
X125411318Y-101366386D01*
X125399786Y-101413233D01*
X125391890Y-101469946D01*
X125387505Y-101541319D01*
X125386030Y-101633703D01*
X124754722Y-101633703D01*
X124754972Y-101542569D01*
X124755899Y-101432082D01*
X124759189Y-101309876D01*
X124765399Y-101205479D01*
X124775132Y-101113490D01*
X124788991Y-101028510D01*
X124807581Y-100945137D01*
X124831506Y-100857973D01*
X124877044Y-100727554D01*
X124952036Y-100574154D01*
X125043895Y-100439526D01*
X125151328Y-100324998D01*
X125273043Y-100231898D01*
X125407749Y-100161553D01*
X125554153Y-100115291D01*
X125593584Y-100108046D01*
X125691181Y-100098758D01*
X125783973Y-100097588D01*
X125800082Y-100097386D01*
X125910784Y-100103552D01*
G37*
X125910784Y-100103552D02*
X126013787Y-100116879D01*
X126099589Y-100136988D01*
X126187866Y-100169074D01*
X126333347Y-100243451D01*
X126461343Y-100338520D01*
X126570981Y-100453296D01*
X126661390Y-100586795D01*
X126731696Y-100738034D01*
X126781029Y-100906027D01*
X126792156Y-100974531D01*
X126799889Y-101072421D01*
X126801628Y-101179030D01*
X126797513Y-101285449D01*
X126787685Y-101382769D01*
X126772284Y-101462081D01*
X126760158Y-101501935D01*
X126724674Y-101592451D01*
X126679623Y-101684462D01*
X126629891Y-101768476D01*
X126580364Y-101834999D01*
X126579649Y-101835817D01*
X126548740Y-101872271D01*
X126526731Y-101900318D01*
X126518346Y-101913945D01*
X126520348Y-101915435D01*
X126541974Y-101918806D01*
X126582308Y-101921149D01*
X126635048Y-101922027D01*
X126751751Y-101922027D01*
X126751751Y-102436892D01*
X126751749Y-102450598D01*
X126751548Y-102565549D01*
X126751047Y-102671050D01*
X126750285Y-102764100D01*
X126749297Y-102841697D01*
X126748122Y-102900840D01*
X126746797Y-102938528D01*
X126745359Y-102951757D01*
X126744102Y-102951449D01*
X126725549Y-102942794D01*
X126690693Y-102924651D01*
X126645818Y-102900270D01*
X126552670Y-102848784D01*
X125584724Y-102840838D01*
X125443743Y-102839657D01*
X125263941Y-102838005D01*
X125107847Y-102836271D01*
X124973253Y-102834314D01*
X124857953Y-102831995D01*
X124759737Y-102829174D01*
X124676400Y-102825710D01*
X124605733Y-102821464D01*
X124545528Y-102816294D01*
X124493579Y-102810062D01*
X124447678Y-102802627D01*
X124405617Y-102793848D01*
X124365189Y-102783587D01*
X124324185Y-102771701D01*
X124280400Y-102758053D01*
X124143133Y-102704284D01*
X124016270Y-102630649D01*
X123907656Y-102538948D01*
X123816722Y-102428339D01*
X123742901Y-102297984D01*
X123685623Y-102147043D01*
X123644321Y-101974677D01*
X123618426Y-101780045D01*
X123613277Y-101712019D01*
X123609512Y-101597452D01*
X123612902Y-101483898D01*
X123624020Y-101366041D01*
X123643436Y-101238564D01*
X123671722Y-101096151D01*
X123709451Y-100933487D01*
X123718580Y-100895887D01*
X123741044Y-100801465D01*
X123761727Y-100711971D01*
X123779409Y-100632833D01*
X123792868Y-100569478D01*
X123800881Y-100527334D01*
X123816851Y-100430100D01*
X124148166Y-100566798D01*
X124230888Y-100600991D01*
X124311944Y-100634629D01*
X124381149Y-100663491D01*
X124435116Y-100686159D01*
X124470460Y-100701217D01*
X124483794Y-100707247D01*
X124483985Y-100708195D01*
X124478032Y-100725670D01*
X124462776Y-100760031D01*
X124440931Y-100805080D01*
X124398391Y-100898712D01*
X124351878Y-101027556D01*
X124316258Y-101159428D01*
X124292426Y-101289170D01*
X124281275Y-101411625D01*
X124283702Y-101521637D01*
X124300600Y-101614049D01*
X124327412Y-101678545D01*
X124382358Y-101751794D01*
X124456900Y-101808181D01*
X124548743Y-101846093D01*
X124655595Y-101863915D01*
X124754075Y-101870191D01*
X124754722Y-101633703D01*
X125386030Y-101633703D01*
X125386031Y-101648710D01*
X125386875Y-101717825D01*
X125388914Y-101777194D01*
X125391881Y-101820914D01*
X125395509Y-101843081D01*
X125396687Y-101845632D01*
X125404083Y-101853879D01*
X125418947Y-101859720D01*
X125445275Y-101863559D01*
X125487066Y-101865801D01*
X125548318Y-101866849D01*
X125633029Y-101867108D01*
X125705688Y-101866725D01*
X125782033Y-101864870D01*
X125837216Y-101861235D01*
X125874830Y-101855556D01*
X125898469Y-101847568D01*
X125915349Y-101837292D01*
X125961365Y-101798596D01*
X126009269Y-101746749D01*
X126051952Y-101689922D01*
X126082301Y-101636289D01*
X126093437Y-101606532D01*
X126108264Y-101538015D01*
X126115844Y-101448526D01*
X126114696Y-101354176D01*
X126099104Y-101264580D01*
X126066894Y-101189796D01*
X126016615Y-101125093D01*
X125998018Y-101106892D01*
X125934594Y-101059503D01*
X125866232Y-101033862D01*
X125783973Y-101026162D01*
X125740515Y-101028248D01*
X125651053Y-101048879D01*
X125574267Y-101092219D01*
X125509291Y-101159057D01*
X125455263Y-101250183D01*
X125411318Y-101366386D01*
X125399786Y-101413233D01*
X125391890Y-101469946D01*
X125387505Y-101541319D01*
X125386030Y-101633703D01*
X124754722Y-101633703D01*
X124754972Y-101542569D01*
X124755899Y-101432082D01*
X124759189Y-101309876D01*
X124765399Y-101205479D01*
X124775132Y-101113490D01*
X124788991Y-101028510D01*
X124807581Y-100945137D01*
X124831506Y-100857973D01*
X124877044Y-100727554D01*
X124952036Y-100574154D01*
X125043895Y-100439526D01*
X125151328Y-100324998D01*
X125273043Y-100231898D01*
X125407749Y-100161553D01*
X125554153Y-100115291D01*
X125593584Y-100108046D01*
X125691181Y-100098758D01*
X125783973Y-100097588D01*
X125800082Y-100097386D01*
X125910784Y-100103552D01*
X122305873Y-105386784D02*
X122306352Y-105503555D01*
X122306352Y-105503555D02*
X122306593Y-105543243D01*
X122306593Y-105543243D02*
X122310183Y-106089000D01*
X122310183Y-106089000D02*
X124403967Y-106095865D01*
X124403967Y-106095865D02*
X124687890Y-106096772D01*
X124687890Y-106096772D02*
X124945688Y-106097576D01*
X124945688Y-106097576D02*
X125178694Y-106098329D01*
X125178694Y-106098329D02*
X125388242Y-106099083D01*
X125388242Y-106099083D02*
X125575666Y-106099889D01*
X125575666Y-106099889D02*
X125742298Y-106100799D01*
X125742298Y-106100799D02*
X125889473Y-106101865D01*
X125889473Y-106101865D02*
X126018525Y-106103138D01*
X126018525Y-106103138D02*
X126130787Y-106104670D01*
X126130787Y-106104670D02*
X126227592Y-106106512D01*
X126227592Y-106106512D02*
X126310274Y-106108717D01*
X126310274Y-106108717D02*
X126380167Y-106111336D01*
X126380167Y-106111336D02*
X126438605Y-106114420D01*
X126438605Y-106114420D02*
X126486920Y-106118022D01*
X126486920Y-106118022D02*
X126526448Y-106122192D01*
X126526448Y-106122192D02*
X126558521Y-106126983D01*
X126558521Y-106126983D02*
X126584472Y-106132445D01*
X126584472Y-106132445D02*
X126605637Y-106138632D01*
X126605637Y-106138632D02*
X126623347Y-106145594D01*
X126623347Y-106145594D02*
X126638937Y-106153383D01*
X126638937Y-106153383D02*
X126653741Y-106162051D01*
X126653741Y-106162051D02*
X126669092Y-106171649D01*
X126669092Y-106171649D02*
X126686324Y-106182229D01*
X126686324Y-106182229D02*
X126689994Y-106184398D01*
X126689994Y-106184398D02*
X126752079Y-106220782D01*
X126752079Y-106220782D02*
X126748482Y-105694945D01*
X126748482Y-105694945D02*
X126744886Y-105169108D01*
X126744886Y-105169108D02*
X126629379Y-105162243D01*
X126629379Y-105162243D02*
X126573947Y-105158506D01*
X126573947Y-105158506D02*
X126541899Y-105154611D01*
X126541899Y-105154611D02*
X126529183Y-105149325D01*
X126529183Y-105149325D02*
X126531744Y-105141417D01*
X126531744Y-105141417D02*
X126539072Y-105134784D01*
X126539072Y-105134784D02*
X126565762Y-105105888D01*
X126565762Y-105105888D02*
X126600069Y-105058793D01*
X126600069Y-105058793D02*
X126637894Y-105000134D01*
X126637894Y-105000134D02*
X126675138Y-104936545D01*
X126675138Y-104936545D02*
X126707701Y-104874663D01*
X126707701Y-104874663D02*
X126729125Y-104827148D01*
X126729125Y-104827148D02*
X126764331Y-104715830D01*
X126764331Y-104715830D02*
X126789270Y-104588110D01*
X126789270Y-104588110D02*
X126802989Y-104453415D01*
X126802989Y-104453415D02*
X126804534Y-104321177D01*
X126804534Y-104321177D02*
X126792954Y-104200822D01*
X126792954Y-104200822D02*
X126792622Y-104198840D01*
X126792622Y-104198840D02*
X126751298Y-104034155D01*
X126751298Y-104034155D02*
X126685460Y-103879993D01*
X126685460Y-103879993D02*
X126596522Y-103737842D01*
X126596522Y-103737842D02*
X126485900Y-103609189D01*
X126485900Y-103609189D02*
X126355009Y-103495521D01*
X126355009Y-103495521D02*
X126205264Y-103398324D01*
X126205264Y-103398324D02*
X126038081Y-103319086D01*
X126038081Y-103319086D02*
X125914238Y-103275944D01*
X125914238Y-103275944D02*
X125810629Y-103247493D01*
X125810629Y-103247493D02*
X125710300Y-103226394D01*
X125710300Y-103226394D02*
X125607157Y-103212002D01*
X125607157Y-103212002D02*
X125495105Y-103203672D01*
X125495105Y-103203672D02*
X125368049Y-103200759D01*
X125368049Y-103200759D02*
X125264300Y-103202049D01*
X125264300Y-103202049D02*
X125264300Y-104215164D01*
X125264300Y-104215164D02*
X125438270Y-104219958D01*
X125438270Y-104219958D02*
X125587943Y-104235082D01*
X125587943Y-104235082D02*
X125714645Y-104260999D01*
X125714645Y-104260999D02*
X125819706Y-104298177D01*
X125819706Y-104298177D02*
X125904454Y-104347079D01*
X125904454Y-104347079D02*
X125970217Y-104408172D01*
X125970217Y-104408172D02*
X126016707Y-104478691D01*
X126016707Y-104478691D02*
X126034062Y-104515385D01*
X126034062Y-104515385D02*
X126044467Y-104547210D01*
X126044467Y-104547210D02*
X126049227Y-104582691D01*
X126049227Y-104582691D02*
X126049649Y-104630355D01*
X126049649Y-104630355D02*
X126047796Y-104681703D01*
X126047796Y-104681703D02*
X126038889Y-104782683D01*
X126038889Y-104782683D02*
X126021446Y-104862549D01*
X126021446Y-104862549D02*
X126012709Y-104887649D01*
X126012709Y-104887649D02*
X125986905Y-104944962D01*
X125986905Y-104944962D02*
X125954501Y-105005411D01*
X125954501Y-105005411D02*
X125938281Y-105031811D01*
X125938281Y-105031811D02*
X125893253Y-105100460D01*
X125893253Y-105100460D02*
X124466030Y-105100460D01*
X124466030Y-105100460D02*
X124420766Y-105024946D01*
X124420766Y-105024946D02*
X124369620Y-104919635D01*
X124369620Y-104919635D02*
X124339372Y-104812039D01*
X124339372Y-104812039D02*
X124329843Y-104706095D01*
X124329843Y-104706095D02*
X124340855Y-104605738D01*
X124340855Y-104605738D02*
X124372229Y-104514901D01*
X124372229Y-104514901D02*
X124423788Y-104437521D01*
X124423788Y-104437521D02*
X124448536Y-104412553D01*
X124448536Y-104412553D02*
X124529625Y-104352370D01*
X124529625Y-104352370D02*
X124627782Y-104303659D01*
X124627782Y-104303659D02*
X124744691Y-104266013D01*
X124744691Y-104266013D02*
X124882033Y-104239026D01*
X124882033Y-104239026D02*
X125041492Y-104222289D01*
X125041492Y-104222289D02*
X125224748Y-104215397D01*
X125224748Y-104215397D02*
X125264300Y-104215164D01*
X125264300Y-104215164D02*
X125264300Y-103202049D01*
X125264300Y-103202049D02*
X125221115Y-103202587D01*
X125221115Y-103202587D02*
X124995101Y-103214161D01*
X124995101Y-103214161D02*
X124791240Y-103237434D01*
X124791240Y-103237434D02*
X124606561Y-103273018D01*
X124606561Y-103273018D02*
X124438096Y-103321527D01*
X124438096Y-103321527D02*
X124282874Y-103383574D01*
X124282874Y-103383574D02*
X124236856Y-103405715D01*
X124236856Y-103405715D02*
X124086787Y-103494899D01*
X124086787Y-103494899D02*
X123953425Y-103602673D01*
X123953425Y-103602673D02*
X123838925Y-103726504D01*
X123838925Y-103726504D02*
X123745437Y-103863856D01*
X123745437Y-103863856D02*
X123675116Y-104012197D01*
X123675116Y-104012197D02*
X123646108Y-104101118D01*
X123646108Y-104101118D02*
X123628888Y-104188447D01*
X123628888Y-104188447D02*
X123618642Y-104293525D01*
X123618642Y-104293525D02*
X123615366Y-104407543D01*
X123615366Y-104407543D02*
X123619057Y-104521691D01*
X123619057Y-104521691D02*
X123629708Y-104627162D01*
X123629708Y-104627162D02*
X123646418Y-104711848D01*
X123646418Y-104711848D02*
X123679188Y-104812642D01*
X123679188Y-104812642D02*
X123721327Y-104910336D01*
X123721327Y-104910336D02*
X123768567Y-104995810D01*
X123768567Y-104995810D02*
X123800629Y-105041303D01*
X123800629Y-105041303D02*
X123824470Y-105072683D01*
X123824470Y-105072683D02*
X123838987Y-105094656D01*
X123838987Y-105094656D02*
X123841048Y-105099655D01*
X123841048Y-105099655D02*
X123827766Y-105101204D01*
X123827766Y-105101204D02*
X123789711Y-105102649D01*
X123789711Y-105102649D02*
X123729567Y-105103957D01*
X123729567Y-105103957D02*
X123650021Y-105105097D01*
X123650021Y-105105097D02*
X123553759Y-105106035D01*
X123553759Y-105106035D02*
X123443467Y-105106740D01*
X123443467Y-105106740D02*
X123321829Y-105107181D01*
X123321829Y-105107181D02*
X123197933Y-105107325D01*
X123197933Y-105107325D02*
X123039244Y-105107244D01*
X123039244Y-105107244D02*
X122905456Y-105106849D01*
X122905456Y-105106849D02*
X122794008Y-105105909D01*
X122794008Y-105105909D02*
X122702343Y-105104194D01*
X122702343Y-105104194D02*
X122627901Y-105101471D01*
X122627901Y-105101471D02*
X122568123Y-105097511D01*
X122568123Y-105097511D02*
X122520450Y-105092083D01*
X122520450Y-105092083D02*
X122482322Y-105084955D01*
X122482322Y-105084955D02*
X122451182Y-105075898D01*
X122451182Y-105075898D02*
X122424469Y-105064681D01*
X122424469Y-105064681D02*
X122399625Y-105051072D01*
X122399625Y-105051072D02*
X122374091Y-105034842D01*
X122374091Y-105034842D02*
X122370929Y-105032754D01*
X122370929Y-105032754D02*
X122337858Y-105011820D01*
X122337858Y-105011820D02*
X122315117Y-104999181D01*
X122315117Y-104999181D02*
X122310320Y-104997487D01*
X122310320Y-104997487D02*
X122308807Y-105010730D01*
X122308807Y-105010730D02*
X122307576Y-105048516D01*
X122307576Y-105048516D02*
X122306647Y-105107930D01*
X122306647Y-105107930D02*
X122306040Y-105186056D01*
X122306040Y-105186056D02*
X122305775Y-105279979D01*
X122305775Y-105279979D02*
X122305873Y-105386784D01*
X122305873Y-105386784D02*
X122305873Y-105386784D01*
G36*
X125495105Y-103203672D02*
G01*
X125607157Y-103212002D01*
X125710300Y-103226394D01*
X125810629Y-103247493D01*
X125914238Y-103275944D01*
X126038081Y-103319086D01*
X126205264Y-103398324D01*
X126355009Y-103495521D01*
X126485900Y-103609189D01*
X126596522Y-103737842D01*
X126685460Y-103879993D01*
X126751298Y-104034155D01*
X126792622Y-104198840D01*
X126792954Y-104200822D01*
X126804534Y-104321177D01*
X126802989Y-104453415D01*
X126789270Y-104588110D01*
X126764331Y-104715830D01*
X126729125Y-104827148D01*
X126707701Y-104874663D01*
X126675138Y-104936545D01*
X126637894Y-105000134D01*
X126600069Y-105058793D01*
X126565762Y-105105888D01*
X126539072Y-105134784D01*
X126531744Y-105141417D01*
X126529183Y-105149325D01*
X126541899Y-105154611D01*
X126573947Y-105158506D01*
X126629379Y-105162243D01*
X126744886Y-105169108D01*
X126748482Y-105694945D01*
X126752079Y-106220782D01*
X126689994Y-106184398D01*
X126686324Y-106182229D01*
X126669092Y-106171649D01*
X126653741Y-106162051D01*
X126638937Y-106153383D01*
X126623347Y-106145594D01*
X126605637Y-106138632D01*
X126584472Y-106132445D01*
X126558521Y-106126983D01*
X126526448Y-106122192D01*
X126486920Y-106118022D01*
X126438605Y-106114420D01*
X126380167Y-106111336D01*
X126310274Y-106108717D01*
X126227592Y-106106512D01*
X126130787Y-106104670D01*
X126018525Y-106103138D01*
X125889473Y-106101865D01*
X125742298Y-106100799D01*
X125575666Y-106099889D01*
X125388242Y-106099083D01*
X125178694Y-106098329D01*
X124945688Y-106097576D01*
X124687890Y-106096772D01*
X124403967Y-106095865D01*
X122310183Y-106089000D01*
X122306593Y-105543243D01*
X122306352Y-105503555D01*
X122305873Y-105386784D01*
X122305775Y-105279979D01*
X122306040Y-105186056D01*
X122306647Y-105107930D01*
X122307576Y-105048516D01*
X122308807Y-105010730D01*
X122310320Y-104997487D01*
X122315117Y-104999181D01*
X122337858Y-105011820D01*
X122370929Y-105032754D01*
X122374091Y-105034842D01*
X122399625Y-105051072D01*
X122424469Y-105064681D01*
X122451182Y-105075898D01*
X122482322Y-105084955D01*
X122520450Y-105092083D01*
X122568123Y-105097511D01*
X122627901Y-105101471D01*
X122702343Y-105104194D01*
X122794008Y-105105909D01*
X122905456Y-105106849D01*
X123039244Y-105107244D01*
X123197933Y-105107325D01*
X123321829Y-105107181D01*
X123443467Y-105106740D01*
X123553759Y-105106035D01*
X123650021Y-105105097D01*
X123729567Y-105103957D01*
X123789711Y-105102649D01*
X123827766Y-105101204D01*
X123841048Y-105099655D01*
X123838987Y-105094656D01*
X123824470Y-105072683D01*
X123800629Y-105041303D01*
X123768567Y-104995810D01*
X123721327Y-104910336D01*
X123679188Y-104812642D01*
X123646418Y-104711848D01*
X123645283Y-104706095D01*
X124329843Y-104706095D01*
X124339372Y-104812039D01*
X124369620Y-104919635D01*
X124420766Y-105024946D01*
X124466030Y-105100460D01*
X125893253Y-105100460D01*
X125938281Y-105031811D01*
X125954501Y-105005411D01*
X125986905Y-104944962D01*
X126012709Y-104887649D01*
X126021446Y-104862549D01*
X126038889Y-104782683D01*
X126047796Y-104681703D01*
X126049649Y-104630355D01*
X126049227Y-104582691D01*
X126044467Y-104547210D01*
X126034062Y-104515385D01*
X126016707Y-104478691D01*
X125970217Y-104408172D01*
X125904454Y-104347079D01*
X125819706Y-104298177D01*
X125714645Y-104260999D01*
X125587943Y-104235082D01*
X125438270Y-104219958D01*
X125264300Y-104215164D01*
X125224748Y-104215397D01*
X125041492Y-104222289D01*
X124882033Y-104239026D01*
X124744691Y-104266013D01*
X124627782Y-104303659D01*
X124529625Y-104352370D01*
X124448536Y-104412553D01*
X124423788Y-104437521D01*
X124372229Y-104514901D01*
X124340855Y-104605738D01*
X124329843Y-104706095D01*
X123645283Y-104706095D01*
X123629708Y-104627162D01*
X123619057Y-104521691D01*
X123615366Y-104407543D01*
X123618642Y-104293525D01*
X123628888Y-104188447D01*
X123646108Y-104101118D01*
X123675116Y-104012197D01*
X123745437Y-103863856D01*
X123838925Y-103726504D01*
X123953425Y-103602673D01*
X124086787Y-103494899D01*
X124236856Y-103405715D01*
X124282874Y-103383574D01*
X124438096Y-103321527D01*
X124606561Y-103273018D01*
X124791240Y-103237434D01*
X124995101Y-103214161D01*
X125221115Y-103202587D01*
X125264300Y-103202049D01*
X125368049Y-103200759D01*
X125495105Y-103203672D01*
G37*
X125495105Y-103203672D02*
X125607157Y-103212002D01*
X125710300Y-103226394D01*
X125810629Y-103247493D01*
X125914238Y-103275944D01*
X126038081Y-103319086D01*
X126205264Y-103398324D01*
X126355009Y-103495521D01*
X126485900Y-103609189D01*
X126596522Y-103737842D01*
X126685460Y-103879993D01*
X126751298Y-104034155D01*
X126792622Y-104198840D01*
X126792954Y-104200822D01*
X126804534Y-104321177D01*
X126802989Y-104453415D01*
X126789270Y-104588110D01*
X126764331Y-104715830D01*
X126729125Y-104827148D01*
X126707701Y-104874663D01*
X126675138Y-104936545D01*
X126637894Y-105000134D01*
X126600069Y-105058793D01*
X126565762Y-105105888D01*
X126539072Y-105134784D01*
X126531744Y-105141417D01*
X126529183Y-105149325D01*
X126541899Y-105154611D01*
X126573947Y-105158506D01*
X126629379Y-105162243D01*
X126744886Y-105169108D01*
X126748482Y-105694945D01*
X126752079Y-106220782D01*
X126689994Y-106184398D01*
X126686324Y-106182229D01*
X126669092Y-106171649D01*
X126653741Y-106162051D01*
X126638937Y-106153383D01*
X126623347Y-106145594D01*
X126605637Y-106138632D01*
X126584472Y-106132445D01*
X126558521Y-106126983D01*
X126526448Y-106122192D01*
X126486920Y-106118022D01*
X126438605Y-106114420D01*
X126380167Y-106111336D01*
X126310274Y-106108717D01*
X126227592Y-106106512D01*
X126130787Y-106104670D01*
X126018525Y-106103138D01*
X125889473Y-106101865D01*
X125742298Y-106100799D01*
X125575666Y-106099889D01*
X125388242Y-106099083D01*
X125178694Y-106098329D01*
X124945688Y-106097576D01*
X124687890Y-106096772D01*
X124403967Y-106095865D01*
X122310183Y-106089000D01*
X122306593Y-105543243D01*
X122306352Y-105503555D01*
X122305873Y-105386784D01*
X122305775Y-105279979D01*
X122306040Y-105186056D01*
X122306647Y-105107930D01*
X122307576Y-105048516D01*
X122308807Y-105010730D01*
X122310320Y-104997487D01*
X122315117Y-104999181D01*
X122337858Y-105011820D01*
X122370929Y-105032754D01*
X122374091Y-105034842D01*
X122399625Y-105051072D01*
X122424469Y-105064681D01*
X122451182Y-105075898D01*
X122482322Y-105084955D01*
X122520450Y-105092083D01*
X122568123Y-105097511D01*
X122627901Y-105101471D01*
X122702343Y-105104194D01*
X122794008Y-105105909D01*
X122905456Y-105106849D01*
X123039244Y-105107244D01*
X123197933Y-105107325D01*
X123321829Y-105107181D01*
X123443467Y-105106740D01*
X123553759Y-105106035D01*
X123650021Y-105105097D01*
X123729567Y-105103957D01*
X123789711Y-105102649D01*
X123827766Y-105101204D01*
X123841048Y-105099655D01*
X123838987Y-105094656D01*
X123824470Y-105072683D01*
X123800629Y-105041303D01*
X123768567Y-104995810D01*
X123721327Y-104910336D01*
X123679188Y-104812642D01*
X123646418Y-104711848D01*
X123645283Y-104706095D01*
X124329843Y-104706095D01*
X124339372Y-104812039D01*
X124369620Y-104919635D01*
X124420766Y-105024946D01*
X124466030Y-105100460D01*
X125893253Y-105100460D01*
X125938281Y-105031811D01*
X125954501Y-105005411D01*
X125986905Y-104944962D01*
X126012709Y-104887649D01*
X126021446Y-104862549D01*
X126038889Y-104782683D01*
X126047796Y-104681703D01*
X126049649Y-104630355D01*
X126049227Y-104582691D01*
X126044467Y-104547210D01*
X126034062Y-104515385D01*
X126016707Y-104478691D01*
X125970217Y-104408172D01*
X125904454Y-104347079D01*
X125819706Y-104298177D01*
X125714645Y-104260999D01*
X125587943Y-104235082D01*
X125438270Y-104219958D01*
X125264300Y-104215164D01*
X125224748Y-104215397D01*
X125041492Y-104222289D01*
X124882033Y-104239026D01*
X124744691Y-104266013D01*
X124627782Y-104303659D01*
X124529625Y-104352370D01*
X124448536Y-104412553D01*
X124423788Y-104437521D01*
X124372229Y-104514901D01*
X124340855Y-104605738D01*
X124329843Y-104706095D01*
X123645283Y-104706095D01*
X123629708Y-104627162D01*
X123619057Y-104521691D01*
X123615366Y-104407543D01*
X123618642Y-104293525D01*
X123628888Y-104188447D01*
X123646108Y-104101118D01*
X123675116Y-104012197D01*
X123745437Y-103863856D01*
X123838925Y-103726504D01*
X123953425Y-103602673D01*
X124086787Y-103494899D01*
X124236856Y-103405715D01*
X124282874Y-103383574D01*
X124438096Y-103321527D01*
X124606561Y-103273018D01*
X124791240Y-103237434D01*
X124995101Y-103214161D01*
X125221115Y-103202587D01*
X125264300Y-103202049D01*
X125368049Y-103200759D01*
X125495105Y-103203672D01*
X121385538Y-95818435D02*
X121421286Y-95921541D01*
X121421286Y-95921541D02*
X121477555Y-96017536D01*
X121477555Y-96017536D02*
X121554336Y-96103267D01*
X121554336Y-96103267D02*
X121651621Y-96175584D01*
X121651621Y-96175584D02*
X121712940Y-96208069D01*
X121712940Y-96208069D02*
X121798708Y-96236182D01*
X121798708Y-96236182D02*
X121897725Y-96249809D01*
X121897725Y-96249809D02*
X121999519Y-96248300D01*
X121999519Y-96248300D02*
X122091762Y-96231545D01*
X122091762Y-96231545D02*
X122204480Y-96185751D01*
X122204480Y-96185751D02*
X122302255Y-96119346D01*
X122302255Y-96119346D02*
X122383163Y-96035705D01*
X122383163Y-96035705D02*
X122445280Y-95938202D01*
X122445280Y-95938202D02*
X122486682Y-95830214D01*
X122486682Y-95830214D02*
X122505445Y-95715115D01*
X122505445Y-95715115D02*
X122499646Y-95596280D01*
X122499646Y-95596280D02*
X122487254Y-95537703D01*
X122487254Y-95537703D02*
X122442845Y-95423542D01*
X122442845Y-95423542D02*
X122375081Y-95322149D01*
X122375081Y-95322149D02*
X122286049Y-95235969D01*
X122286049Y-95235969D02*
X122177839Y-95167448D01*
X122177839Y-95167448D02*
X122166021Y-95161650D01*
X122166021Y-95161650D02*
X122121676Y-95141610D01*
X122121676Y-95141610D02*
X122084328Y-95129027D01*
X122084328Y-95129027D02*
X122044928Y-95122195D01*
X122044928Y-95122195D02*
X121994429Y-95119409D01*
X121994429Y-95119409D02*
X121939481Y-95118946D01*
X121939481Y-95118946D02*
X121873463Y-95119711D01*
X121873463Y-95119711D02*
X121825737Y-95123162D01*
X121825737Y-95123162D02*
X121787151Y-95131037D01*
X121787151Y-95131037D02*
X121748554Y-95145071D01*
X121748554Y-95145071D02*
X121710474Y-95162394D01*
X121710474Y-95162394D02*
X121602376Y-95227009D01*
X121602376Y-95227009D02*
X121514851Y-95306580D01*
X121514851Y-95306580D02*
X121447889Y-95397954D01*
X121447889Y-95397954D02*
X121401484Y-95497978D01*
X121401484Y-95497978D02*
X121375629Y-95603502D01*
X121375629Y-95603502D02*
X121370316Y-95711372D01*
X121370316Y-95711372D02*
X121385538Y-95818435D01*
X121385538Y-95818435D02*
X121385538Y-95818435D01*
G36*
X121994429Y-95119409D02*
G01*
X122044928Y-95122195D01*
X122084328Y-95129027D01*
X122121676Y-95141610D01*
X122166021Y-95161650D01*
X122177839Y-95167448D01*
X122286049Y-95235969D01*
X122375081Y-95322149D01*
X122442845Y-95423542D01*
X122487254Y-95537703D01*
X122499646Y-95596280D01*
X122505445Y-95715115D01*
X122486682Y-95830214D01*
X122445280Y-95938202D01*
X122383163Y-96035705D01*
X122302255Y-96119346D01*
X122204480Y-96185751D01*
X122091762Y-96231545D01*
X121999519Y-96248300D01*
X121897725Y-96249809D01*
X121798708Y-96236182D01*
X121712940Y-96208069D01*
X121651621Y-96175584D01*
X121554336Y-96103267D01*
X121477555Y-96017536D01*
X121421286Y-95921541D01*
X121385538Y-95818435D01*
X121370316Y-95711372D01*
X121375629Y-95603502D01*
X121401484Y-95497978D01*
X121447889Y-95397954D01*
X121514851Y-95306580D01*
X121602376Y-95227009D01*
X121710474Y-95162394D01*
X121748554Y-95145071D01*
X121787151Y-95131037D01*
X121825737Y-95123162D01*
X121873463Y-95119711D01*
X121939481Y-95118946D01*
X121994429Y-95119409D01*
G37*
X121994429Y-95119409D02*
X122044928Y-95122195D01*
X122084328Y-95129027D01*
X122121676Y-95141610D01*
X122166021Y-95161650D01*
X122177839Y-95167448D01*
X122286049Y-95235969D01*
X122375081Y-95322149D01*
X122442845Y-95423542D01*
X122487254Y-95537703D01*
X122499646Y-95596280D01*
X122505445Y-95715115D01*
X122486682Y-95830214D01*
X122445280Y-95938202D01*
X122383163Y-96035705D01*
X122302255Y-96119346D01*
X122204480Y-96185751D01*
X122091762Y-96231545D01*
X121999519Y-96248300D01*
X121897725Y-96249809D01*
X121798708Y-96236182D01*
X121712940Y-96208069D01*
X121651621Y-96175584D01*
X121554336Y-96103267D01*
X121477555Y-96017536D01*
X121421286Y-95921541D01*
X121385538Y-95818435D01*
X121370316Y-95711372D01*
X121375629Y-95603502D01*
X121401484Y-95497978D01*
X121447889Y-95397954D01*
X121514851Y-95306580D01*
X121602376Y-95227009D01*
X121710474Y-95162394D01*
X121748554Y-95145071D01*
X121787151Y-95131037D01*
X121825737Y-95123162D01*
X121873463Y-95119711D01*
X121939481Y-95118946D01*
X121994429Y-95119409D01*
X127989773Y-104785045D02*
X128012016Y-104816424D01*
X128012016Y-104816424D02*
X128039725Y-104844133D01*
X128039725Y-104844133D02*
X128349160Y-104844133D01*
X128349160Y-104844133D02*
X128441039Y-104844060D01*
X128441039Y-104844060D02*
X128513080Y-104843717D01*
X128513080Y-104843717D02*
X128568020Y-104842914D01*
X128568020Y-104842914D02*
X128608600Y-104841463D01*
X128608600Y-104841463D02*
X128637557Y-104839174D01*
X128637557Y-104839174D02*
X128657631Y-104835858D01*
X128657631Y-104835858D02*
X128671561Y-104831327D01*
X128671561Y-104831327D02*
X128682085Y-104825391D01*
X128682085Y-104825391D02*
X128688340Y-104820736D01*
X128688340Y-104820736D02*
X128712913Y-104790005D01*
X128712913Y-104790005D02*
X128715581Y-104754718D01*
X128715581Y-104754718D02*
X128700511Y-104722467D01*
X128700511Y-104722467D02*
X128691614Y-104711810D01*
X128691614Y-104711810D02*
X128679797Y-104704686D01*
X128679797Y-104704686D02*
X128660766Y-104700389D01*
X128660766Y-104700389D02*
X128630232Y-104698213D01*
X128630232Y-104698213D02*
X128583902Y-104697450D01*
X128583902Y-104697450D02*
X128548111Y-104697377D01*
X128548111Y-104697377D02*
X128413285Y-104697377D01*
X128413285Y-104697377D02*
X128413285Y-104200666D01*
X128413285Y-104200666D02*
X128535940Y-104200666D01*
X128535940Y-104200666D02*
X128592027Y-104200153D01*
X128592027Y-104200153D02*
X128630573Y-104198098D01*
X128630573Y-104198098D02*
X128656601Y-104193730D01*
X128656601Y-104193730D02*
X128675137Y-104186278D01*
X128675137Y-104186278D02*
X128688340Y-104177269D01*
X128688340Y-104177269D02*
X128712844Y-104146366D01*
X128712844Y-104146366D02*
X128715746Y-104111418D01*
X128715746Y-104111418D02*
X128698329Y-104077960D01*
X128698329Y-104077960D02*
X128689199Y-104068826D01*
X128689199Y-104068826D02*
X128677095Y-104062374D01*
X128677095Y-104062374D02*
X128658241Y-104058119D01*
X128658241Y-104058119D02*
X128628860Y-104055574D01*
X128628860Y-104055574D02*
X128585177Y-104054251D01*
X128585177Y-104054251D02*
X128523415Y-104053665D01*
X128523415Y-104053665D02*
X128509240Y-104053597D01*
X128509240Y-104053597D02*
X128392871Y-104053113D01*
X128392871Y-104053113D02*
X128296967Y-104052863D01*
X128296967Y-104052863D02*
X128219417Y-104052945D01*
X128219417Y-104052945D02*
X128158109Y-104053453D01*
X128158109Y-104053453D02*
X128110930Y-104054484D01*
X128110930Y-104054484D02*
X128075770Y-104056135D01*
X128075770Y-104056135D02*
X128050516Y-104058501D01*
X128050516Y-104058501D02*
X128033057Y-104061679D01*
X128033057Y-104061679D02*
X128021281Y-104065766D01*
X128021281Y-104065766D02*
X128013075Y-104070856D01*
X128013075Y-104070856D02*
X128006885Y-104076488D01*
X128006885Y-104076488D02*
X127987084Y-104108350D01*
X127987084Y-104108350D02*
X127989773Y-104141579D01*
X127989773Y-104141579D02*
X128012016Y-104172957D01*
X128012016Y-104172957D02*
X128026366Y-104185655D01*
X128026366Y-104185655D02*
X128042218Y-104193748D01*
X128042218Y-104193748D02*
X128064794Y-104198264D01*
X128064794Y-104198264D02*
X128099318Y-104200228D01*
X128099318Y-104200228D02*
X128151016Y-104200666D01*
X128151016Y-104200666D02*
X128266529Y-104200666D01*
X128266529Y-104200666D02*
X128266529Y-104697377D01*
X128266529Y-104697377D02*
X128147996Y-104697377D01*
X128147996Y-104697377D02*
X128093388Y-104697884D01*
X128093388Y-104697884D02*
X128056515Y-104699920D01*
X128056515Y-104699920D02*
X128032547Y-104704257D01*
X128032547Y-104704257D02*
X128016655Y-104711669D01*
X128016655Y-104711669D02*
X128006885Y-104719955D01*
X128006885Y-104719955D02*
X127987084Y-104751816D01*
X127987084Y-104751816D02*
X127989773Y-104785045D01*
X127989773Y-104785045D02*
X127989773Y-104785045D01*
G36*
X128392871Y-104053113D02*
G01*
X128509240Y-104053597D01*
X128523415Y-104053665D01*
X128585177Y-104054251D01*
X128628860Y-104055574D01*
X128658241Y-104058119D01*
X128677095Y-104062374D01*
X128689199Y-104068826D01*
X128698329Y-104077960D01*
X128715746Y-104111418D01*
X128712844Y-104146366D01*
X128688340Y-104177269D01*
X128675137Y-104186278D01*
X128656601Y-104193730D01*
X128630573Y-104198098D01*
X128592027Y-104200153D01*
X128535940Y-104200666D01*
X128413285Y-104200666D01*
X128413285Y-104697377D01*
X128548111Y-104697377D01*
X128583902Y-104697450D01*
X128630232Y-104698213D01*
X128660766Y-104700389D01*
X128679797Y-104704686D01*
X128691614Y-104711810D01*
X128700511Y-104722467D01*
X128715581Y-104754718D01*
X128712913Y-104790005D01*
X128688340Y-104820736D01*
X128682085Y-104825391D01*
X128671561Y-104831327D01*
X128657631Y-104835858D01*
X128637557Y-104839174D01*
X128608600Y-104841463D01*
X128568020Y-104842914D01*
X128513080Y-104843717D01*
X128441039Y-104844060D01*
X128349160Y-104844133D01*
X128039725Y-104844133D01*
X128012016Y-104816424D01*
X127989773Y-104785045D01*
X127987084Y-104751816D01*
X128006885Y-104719955D01*
X128016655Y-104711669D01*
X128032547Y-104704257D01*
X128056515Y-104699920D01*
X128093388Y-104697884D01*
X128147996Y-104697377D01*
X128266529Y-104697377D01*
X128266529Y-104200666D01*
X128151016Y-104200666D01*
X128099318Y-104200228D01*
X128064794Y-104198264D01*
X128042218Y-104193748D01*
X128026366Y-104185655D01*
X128012016Y-104172957D01*
X127989773Y-104141579D01*
X127987084Y-104108350D01*
X128006885Y-104076488D01*
X128013075Y-104070856D01*
X128021281Y-104065766D01*
X128033057Y-104061679D01*
X128050516Y-104058501D01*
X128075770Y-104056135D01*
X128110930Y-104054484D01*
X128158109Y-104053453D01*
X128219417Y-104052945D01*
X128296967Y-104052863D01*
X128392871Y-104053113D01*
G37*
X128392871Y-104053113D02*
X128509240Y-104053597D01*
X128523415Y-104053665D01*
X128585177Y-104054251D01*
X128628860Y-104055574D01*
X128658241Y-104058119D01*
X128677095Y-104062374D01*
X128689199Y-104068826D01*
X128698329Y-104077960D01*
X128715746Y-104111418D01*
X128712844Y-104146366D01*
X128688340Y-104177269D01*
X128675137Y-104186278D01*
X128656601Y-104193730D01*
X128630573Y-104198098D01*
X128592027Y-104200153D01*
X128535940Y-104200666D01*
X128413285Y-104200666D01*
X128413285Y-104697377D01*
X128548111Y-104697377D01*
X128583902Y-104697450D01*
X128630232Y-104698213D01*
X128660766Y-104700389D01*
X128679797Y-104704686D01*
X128691614Y-104711810D01*
X128700511Y-104722467D01*
X128715581Y-104754718D01*
X128712913Y-104790005D01*
X128688340Y-104820736D01*
X128682085Y-104825391D01*
X128671561Y-104831327D01*
X128657631Y-104835858D01*
X128637557Y-104839174D01*
X128608600Y-104841463D01*
X128568020Y-104842914D01*
X128513080Y-104843717D01*
X128441039Y-104844060D01*
X128349160Y-104844133D01*
X128039725Y-104844133D01*
X128012016Y-104816424D01*
X127989773Y-104785045D01*
X127987084Y-104751816D01*
X128006885Y-104719955D01*
X128016655Y-104711669D01*
X128032547Y-104704257D01*
X128056515Y-104699920D01*
X128093388Y-104697884D01*
X128147996Y-104697377D01*
X128266529Y-104697377D01*
X128266529Y-104200666D01*
X128151016Y-104200666D01*
X128099318Y-104200228D01*
X128064794Y-104198264D01*
X128042218Y-104193748D01*
X128026366Y-104185655D01*
X128012016Y-104172957D01*
X127989773Y-104141579D01*
X127987084Y-104108350D01*
X128006885Y-104076488D01*
X128013075Y-104070856D01*
X128021281Y-104065766D01*
X128033057Y-104061679D01*
X128050516Y-104058501D01*
X128075770Y-104056135D01*
X128110930Y-104054484D01*
X128158109Y-104053453D01*
X128219417Y-104052945D01*
X128296967Y-104052863D01*
X128392871Y-104053113D01*
X127984403Y-103519287D02*
X127984782Y-103597994D01*
X127984782Y-103597994D02*
X127985573Y-103659085D01*
X127985573Y-103659085D02*
X127986910Y-103705039D01*
X127986910Y-103705039D02*
X127988923Y-103738336D01*
X127988923Y-103738336D02*
X127991746Y-103761458D01*
X127991746Y-103761458D02*
X127995509Y-103776884D01*
X127995509Y-103776884D02*
X128000345Y-103787093D01*
X128000345Y-103787093D02*
X128004062Y-103792035D01*
X128004062Y-103792035D02*
X128036598Y-103817679D01*
X128036598Y-103817679D02*
X128070378Y-103820781D01*
X128070378Y-103820781D02*
X128101066Y-103804933D01*
X128101066Y-103804933D02*
X128113329Y-103794570D01*
X128113329Y-103794570D02*
X128121690Y-103783418D01*
X128121690Y-103783418D02*
X128126897Y-103767257D01*
X128126897Y-103767257D02*
X128129697Y-103741864D01*
X128129697Y-103741864D02*
X128130836Y-103703020D01*
X128130836Y-103703020D02*
X128131061Y-103646502D01*
X128131061Y-103646502D02*
X128131062Y-103635402D01*
X128131062Y-103635402D02*
X128131062Y-103489466D01*
X128131062Y-103489466D02*
X128401996Y-103489466D01*
X128401996Y-103489466D02*
X128487394Y-103489370D01*
X128487394Y-103489370D02*
X128553104Y-103488933D01*
X128553104Y-103488933D02*
X128602014Y-103487934D01*
X128602014Y-103487934D02*
X128637013Y-103486150D01*
X128637013Y-103486150D02*
X128660989Y-103483359D01*
X128660989Y-103483359D02*
X128676833Y-103479339D01*
X128676833Y-103479339D02*
X128687431Y-103473867D01*
X128687431Y-103473867D02*
X128695507Y-103466888D01*
X128695507Y-103466888D02*
X128715352Y-103433956D01*
X128715352Y-103433956D02*
X128713788Y-103399576D01*
X128713788Y-103399576D02*
X128691146Y-103368398D01*
X128691146Y-103368398D02*
X128688340Y-103366108D01*
X128688340Y-103366108D02*
X128677732Y-103358651D01*
X128677732Y-103358651D02*
X128665321Y-103352969D01*
X128665321Y-103352969D02*
X128648090Y-103348823D01*
X128648090Y-103348823D02*
X128623024Y-103345972D01*
X128623024Y-103345972D02*
X128587107Y-103344176D01*
X128587107Y-103344176D02*
X128537323Y-103343194D01*
X128537323Y-103343194D02*
X128470657Y-103342786D01*
X128470657Y-103342786D02*
X128394829Y-103342711D01*
X128394829Y-103342711D02*
X128131062Y-103342711D01*
X128131062Y-103342711D02*
X128131062Y-103203349D01*
X128131062Y-103203349D02*
X128130658Y-103143544D01*
X128130658Y-103143544D02*
X128129080Y-103102140D01*
X128129080Y-103102140D02*
X128125787Y-103074970D01*
X128125787Y-103074970D02*
X128120232Y-103057868D01*
X128120232Y-103057868D02*
X128111871Y-103046665D01*
X128111871Y-103046665D02*
X128110418Y-103045305D01*
X128110418Y-103045305D02*
X128077179Y-103028947D01*
X128077179Y-103028947D02*
X128039602Y-103030394D01*
X128039602Y-103030394D02*
X128006885Y-103049200D01*
X128006885Y-103049200D02*
X128000538Y-103056472D01*
X128000538Y-103056472D02*
X127995506Y-103065849D01*
X127995506Y-103065849D02*
X127991636Y-103079831D01*
X127991636Y-103079831D02*
X127988777Y-103100918D01*
X127988777Y-103100918D02*
X127986775Y-103131611D01*
X127986775Y-103131611D02*
X127985479Y-103174411D01*
X127985479Y-103174411D02*
X127984738Y-103231817D01*
X127984738Y-103231817D02*
X127984398Y-103306332D01*
X127984398Y-103306332D02*
X127984308Y-103400455D01*
X127984308Y-103400455D02*
X127984307Y-103420482D01*
X127984307Y-103420482D02*
X127984403Y-103519287D01*
X127984403Y-103519287D02*
X127984403Y-103519287D01*
G36*
X128110418Y-103045305D02*
G01*
X128111871Y-103046665D01*
X128120232Y-103057868D01*
X128125787Y-103074970D01*
X128129080Y-103102140D01*
X128130658Y-103143544D01*
X128131062Y-103203349D01*
X128131062Y-103342711D01*
X128394829Y-103342711D01*
X128470657Y-103342786D01*
X128537323Y-103343194D01*
X128587107Y-103344176D01*
X128623024Y-103345972D01*
X128648090Y-103348823D01*
X128665321Y-103352969D01*
X128677732Y-103358651D01*
X128688340Y-103366108D01*
X128691146Y-103368398D01*
X128713788Y-103399576D01*
X128715352Y-103433956D01*
X128695507Y-103466888D01*
X128687431Y-103473867D01*
X128676833Y-103479339D01*
X128660989Y-103483359D01*
X128637013Y-103486150D01*
X128602014Y-103487934D01*
X128553104Y-103488933D01*
X128487394Y-103489370D01*
X128401996Y-103489466D01*
X128131062Y-103489466D01*
X128131062Y-103635402D01*
X128131061Y-103646502D01*
X128130836Y-103703020D01*
X128129697Y-103741864D01*
X128126897Y-103767257D01*
X128121690Y-103783418D01*
X128113329Y-103794570D01*
X128101066Y-103804933D01*
X128070378Y-103820781D01*
X128036598Y-103817679D01*
X128004062Y-103792035D01*
X128000345Y-103787093D01*
X127995509Y-103776884D01*
X127991746Y-103761458D01*
X127988923Y-103738336D01*
X127986910Y-103705039D01*
X127985573Y-103659085D01*
X127984782Y-103597994D01*
X127984403Y-103519287D01*
X127984307Y-103420482D01*
X127984308Y-103400455D01*
X127984398Y-103306332D01*
X127984738Y-103231817D01*
X127985479Y-103174411D01*
X127986775Y-103131611D01*
X127988777Y-103100918D01*
X127991636Y-103079831D01*
X127995506Y-103065849D01*
X128000538Y-103056472D01*
X128006885Y-103049200D01*
X128039602Y-103030394D01*
X128077179Y-103028947D01*
X128110418Y-103045305D01*
G37*
X128110418Y-103045305D02*
X128111871Y-103046665D01*
X128120232Y-103057868D01*
X128125787Y-103074970D01*
X128129080Y-103102140D01*
X128130658Y-103143544D01*
X128131062Y-103203349D01*
X128131062Y-103342711D01*
X128394829Y-103342711D01*
X128470657Y-103342786D01*
X128537323Y-103343194D01*
X128587107Y-103344176D01*
X128623024Y-103345972D01*
X128648090Y-103348823D01*
X128665321Y-103352969D01*
X128677732Y-103358651D01*
X128688340Y-103366108D01*
X128691146Y-103368398D01*
X128713788Y-103399576D01*
X128715352Y-103433956D01*
X128695507Y-103466888D01*
X128687431Y-103473867D01*
X128676833Y-103479339D01*
X128660989Y-103483359D01*
X128637013Y-103486150D01*
X128602014Y-103487934D01*
X128553104Y-103488933D01*
X128487394Y-103489370D01*
X128401996Y-103489466D01*
X128131062Y-103489466D01*
X128131062Y-103635402D01*
X128131061Y-103646502D01*
X128130836Y-103703020D01*
X128129697Y-103741864D01*
X128126897Y-103767257D01*
X128121690Y-103783418D01*
X128113329Y-103794570D01*
X128101066Y-103804933D01*
X128070378Y-103820781D01*
X128036598Y-103817679D01*
X128004062Y-103792035D01*
X128000345Y-103787093D01*
X127995509Y-103776884D01*
X127991746Y-103761458D01*
X127988923Y-103738336D01*
X127986910Y-103705039D01*
X127985573Y-103659085D01*
X127984782Y-103597994D01*
X127984403Y-103519287D01*
X127984307Y-103420482D01*
X127984308Y-103400455D01*
X127984398Y-103306332D01*
X127984738Y-103231817D01*
X127985479Y-103174411D01*
X127986775Y-103131611D01*
X127988777Y-103100918D01*
X127991636Y-103079831D01*
X127995506Y-103065849D01*
X128000538Y-103056472D01*
X128006885Y-103049200D01*
X128039602Y-103030394D01*
X128077179Y-103028947D01*
X128110418Y-103045305D01*
X127991117Y-102744836D02*
X128005887Y-102768549D01*
X128005887Y-102768549D02*
X128027467Y-102795200D01*
X128027467Y-102795200D02*
X128349013Y-102795200D01*
X128349013Y-102795200D02*
X128443070Y-102795115D01*
X128443070Y-102795115D02*
X128517172Y-102794751D01*
X128517172Y-102794751D02*
X128573944Y-102793946D01*
X128573944Y-102793946D02*
X128616008Y-102792535D01*
X128616008Y-102792535D02*
X128645988Y-102790355D01*
X128645988Y-102790355D02*
X128666507Y-102787243D01*
X128666507Y-102787243D02*
X128680189Y-102783036D01*
X128680189Y-102783036D02*
X128689656Y-102777570D01*
X128689656Y-102777570D02*
X128694322Y-102773694D01*
X128694322Y-102773694D02*
X128714815Y-102742256D01*
X128714815Y-102742256D02*
X128713979Y-102706455D01*
X128713979Y-102706455D02*
X128696504Y-102675095D01*
X128696504Y-102675095D02*
X128674924Y-102648444D01*
X128674924Y-102648444D02*
X128027467Y-102648444D01*
X128027467Y-102648444D02*
X128005887Y-102675095D01*
X128005887Y-102675095D02*
X127990189Y-102700816D01*
X127990189Y-102700816D02*
X127984307Y-102721822D01*
X127984307Y-102721822D02*
X127991117Y-102744836D01*
X127991117Y-102744836D02*
X127991117Y-102744836D01*
G36*
X128696504Y-102675095D02*
G01*
X128713979Y-102706455D01*
X128714815Y-102742256D01*
X128694322Y-102773694D01*
X128689656Y-102777570D01*
X128680189Y-102783036D01*
X128666507Y-102787243D01*
X128645988Y-102790355D01*
X128616008Y-102792535D01*
X128573944Y-102793946D01*
X128517172Y-102794751D01*
X128443070Y-102795115D01*
X128349013Y-102795200D01*
X128027467Y-102795200D01*
X128005887Y-102768549D01*
X127991117Y-102744836D01*
X127984307Y-102721822D01*
X127990189Y-102700816D01*
X128005887Y-102675095D01*
X128027467Y-102648444D01*
X128674924Y-102648444D01*
X128696504Y-102675095D01*
G37*
X128696504Y-102675095D02*
X128713979Y-102706455D01*
X128714815Y-102742256D01*
X128694322Y-102773694D01*
X128689656Y-102777570D01*
X128680189Y-102783036D01*
X128666507Y-102787243D01*
X128645988Y-102790355D01*
X128616008Y-102792535D01*
X128573944Y-102793946D01*
X128517172Y-102794751D01*
X128443070Y-102795115D01*
X128349013Y-102795200D01*
X128027467Y-102795200D01*
X128005887Y-102768549D01*
X127991117Y-102744836D01*
X127984307Y-102721822D01*
X127990189Y-102700816D01*
X128005887Y-102675095D01*
X128027467Y-102648444D01*
X128674924Y-102648444D01*
X128696504Y-102675095D01*
X127986274Y-102300887D02*
X127993275Y-102320477D01*
X127993275Y-102320477D02*
X127993617Y-102321232D01*
X127993617Y-102321232D02*
X128013918Y-102347835D01*
X128013918Y-102347835D02*
X128034801Y-102362492D01*
X128034801Y-102362492D02*
X128044592Y-102365360D01*
X128044592Y-102365360D02*
X128057601Y-102365218D01*
X128057601Y-102365218D02*
X128076135Y-102361183D01*
X128076135Y-102361183D02*
X128102497Y-102352368D01*
X128102497Y-102352368D02*
X128138992Y-102337891D01*
X128138992Y-102337891D02*
X128187927Y-102316867D01*
X128187927Y-102316867D02*
X128251605Y-102288410D01*
X128251605Y-102288410D02*
X128332333Y-102251637D01*
X128332333Y-102251637D02*
X128376456Y-102231397D01*
X128376456Y-102231397D02*
X128455225Y-102194847D01*
X128455225Y-102194847D02*
X128527663Y-102160537D01*
X128527663Y-102160537D02*
X128591120Y-102129774D01*
X128591120Y-102129774D02*
X128642948Y-102103870D01*
X128642948Y-102103870D02*
X128680499Y-102084132D01*
X128680499Y-102084132D02*
X128701124Y-102071872D01*
X128701124Y-102071872D02*
X128703973Y-102069446D01*
X128703973Y-102069446D02*
X128716542Y-102038405D01*
X128716542Y-102038405D02*
X128714859Y-102003343D01*
X128714859Y-102003343D02*
X128699572Y-101975222D01*
X128699572Y-101975222D02*
X128698329Y-101974076D01*
X128698329Y-101974076D02*
X128681394Y-101962890D01*
X128681394Y-101962890D02*
X128648410Y-101944126D01*
X128648410Y-101944126D02*
X128603620Y-101920097D01*
X128603620Y-101920097D02*
X128551272Y-101893119D01*
X128551272Y-101893119D02*
X128531982Y-101883423D01*
X128531982Y-101883423D02*
X128385390Y-101810236D01*
X128385390Y-101810236D02*
X128544633Y-101730462D01*
X128544633Y-101730462D02*
X128599655Y-101701989D01*
X128599655Y-101701989D02*
X128647372Y-101675572D01*
X128647372Y-101675572D02*
X128684133Y-101653370D01*
X128684133Y-101653370D02*
X128706284Y-101637541D01*
X128706284Y-101637541D02*
X128710981Y-101632176D01*
X128710981Y-101632176D02*
X128717342Y-101590479D01*
X128717342Y-101590479D02*
X128703973Y-101556071D01*
X128703973Y-101556071D02*
X128689686Y-101545950D01*
X128689686Y-101545950D02*
X128657932Y-101528436D01*
X128657932Y-101528436D02*
X128611837Y-101504957D01*
X128611837Y-101504957D02*
X128554525Y-101476942D01*
X128554525Y-101476942D02*
X128489120Y-101445821D01*
X128489120Y-101445821D02*
X128418747Y-101413021D01*
X128418747Y-101413021D02*
X128346531Y-101379972D01*
X128346531Y-101379972D02*
X128275595Y-101348103D01*
X128275595Y-101348103D02*
X128209065Y-101318841D01*
X128209065Y-101318841D02*
X128150066Y-101293617D01*
X128150066Y-101293617D02*
X128101721Y-101273858D01*
X128101721Y-101273858D02*
X128067155Y-101260994D01*
X128067155Y-101260994D02*
X128049493Y-101256453D01*
X128049493Y-101256453D02*
X128048853Y-101256499D01*
X128048853Y-101256499D02*
X128026628Y-101267548D01*
X128026628Y-101267548D02*
X128003993Y-101289632D01*
X128003993Y-101289632D02*
X128003008Y-101290932D01*
X128003008Y-101290932D02*
X127987665Y-101318075D01*
X127987665Y-101318075D02*
X127987814Y-101343180D01*
X127987814Y-101343180D02*
X127990706Y-101352590D01*
X127990706Y-101352590D02*
X127996958Y-101364056D01*
X127996958Y-101364056D02*
X128009254Y-101376232D01*
X128009254Y-101376232D02*
X128030148Y-101390579D01*
X128030148Y-101390579D02*
X128062189Y-101408558D01*
X128062189Y-101408558D02*
X128107928Y-101431629D01*
X128107928Y-101431629D02*
X128169917Y-101461252D01*
X128169917Y-101461252D02*
X128227138Y-101487967D01*
X128227138Y-101487967D02*
X128293466Y-101518702D01*
X128293466Y-101518702D02*
X128353114Y-101546243D01*
X128353114Y-101546243D02*
X128402965Y-101569160D01*
X128402965Y-101569160D02*
X128439904Y-101586020D01*
X128439904Y-101586020D02*
X128460813Y-101595395D01*
X128460813Y-101595395D02*
X128464085Y-101596762D01*
X128464085Y-101596762D02*
X128458737Y-101602911D01*
X128458737Y-101602911D02*
X128436349Y-101617044D01*
X128436349Y-101617044D02*
X128400186Y-101637279D01*
X128400186Y-101637279D02*
X128353517Y-101661737D01*
X128353517Y-101661737D02*
X128334262Y-101671470D01*
X128334262Y-101671470D02*
X128269244Y-101704439D01*
X128269244Y-101704439D02*
X128221894Y-101729865D01*
X128221894Y-101729865D02*
X128189459Y-101749834D01*
X128189459Y-101749834D02*
X128169186Y-101766432D01*
X128169186Y-101766432D02*
X128158322Y-101781746D01*
X128158322Y-101781746D02*
X128154115Y-101797862D01*
X128154115Y-101797862D02*
X128153640Y-101808365D01*
X128153640Y-101808365D02*
X128155282Y-101826892D01*
X128155282Y-101826892D02*
X128162071Y-101843126D01*
X128162071Y-101843126D02*
X128176806Y-101859257D01*
X128176806Y-101859257D02*
X128202284Y-101877473D01*
X128202284Y-101877473D02*
X128241301Y-101899961D01*
X128241301Y-101899961D02*
X128296654Y-101928911D01*
X128296654Y-101928911D02*
X128328143Y-101944884D01*
X128328143Y-101944884D02*
X128378327Y-101970792D01*
X128378327Y-101970792D02*
X128419944Y-101993389D01*
X128419944Y-101993389D02*
X128449482Y-102010680D01*
X128449482Y-102010680D02*
X128463429Y-102020672D01*
X128463429Y-102020672D02*
X128464010Y-102022031D01*
X128464010Y-102022031D02*
X128453033Y-102028483D01*
X128453033Y-102028483D02*
X128424530Y-102042930D01*
X128424530Y-102042930D02*
X128381484Y-102063925D01*
X128381484Y-102063925D02*
X128326878Y-102090019D01*
X128326878Y-102090019D02*
X128263694Y-102119768D01*
X128263694Y-102119768D02*
X128232311Y-102134402D01*
X128232311Y-102134402D02*
X128151318Y-102172472D01*
X128151318Y-102172472D02*
X128088996Y-102203127D01*
X128088996Y-102203127D02*
X128043311Y-102227959D01*
X128043311Y-102227959D02*
X128012229Y-102248559D01*
X128012229Y-102248559D02*
X127993718Y-102266520D01*
X127993718Y-102266520D02*
X127985744Y-102283432D01*
X127985744Y-102283432D02*
X127986274Y-102300887D01*
X127986274Y-102300887D02*
X127986274Y-102300887D01*
G36*
X128067155Y-101260994D02*
G01*
X128101721Y-101273858D01*
X128150066Y-101293617D01*
X128209065Y-101318841D01*
X128275595Y-101348103D01*
X128346531Y-101379972D01*
X128418747Y-101413021D01*
X128489120Y-101445821D01*
X128554525Y-101476942D01*
X128611837Y-101504957D01*
X128657932Y-101528436D01*
X128689686Y-101545950D01*
X128703973Y-101556071D01*
X128717342Y-101590479D01*
X128710981Y-101632176D01*
X128706284Y-101637541D01*
X128684133Y-101653370D01*
X128647372Y-101675572D01*
X128599655Y-101701989D01*
X128544633Y-101730462D01*
X128385390Y-101810236D01*
X128531982Y-101883423D01*
X128551272Y-101893119D01*
X128603620Y-101920097D01*
X128648410Y-101944126D01*
X128681394Y-101962890D01*
X128698329Y-101974076D01*
X128699572Y-101975222D01*
X128714859Y-102003343D01*
X128716542Y-102038405D01*
X128703973Y-102069446D01*
X128701124Y-102071872D01*
X128680499Y-102084132D01*
X128642948Y-102103870D01*
X128591120Y-102129774D01*
X128527663Y-102160537D01*
X128455225Y-102194847D01*
X128376456Y-102231397D01*
X128332333Y-102251637D01*
X128251605Y-102288410D01*
X128187927Y-102316867D01*
X128138992Y-102337891D01*
X128102497Y-102352368D01*
X128076135Y-102361183D01*
X128057601Y-102365218D01*
X128044592Y-102365360D01*
X128034801Y-102362492D01*
X128013918Y-102347835D01*
X127993617Y-102321232D01*
X127993275Y-102320477D01*
X127986274Y-102300887D01*
X127985744Y-102283432D01*
X127993718Y-102266520D01*
X128012229Y-102248559D01*
X128043311Y-102227959D01*
X128088996Y-102203127D01*
X128151318Y-102172472D01*
X128232311Y-102134402D01*
X128263694Y-102119768D01*
X128326878Y-102090019D01*
X128381484Y-102063925D01*
X128424530Y-102042930D01*
X128453033Y-102028483D01*
X128464010Y-102022031D01*
X128463429Y-102020672D01*
X128449482Y-102010680D01*
X128419944Y-101993389D01*
X128378327Y-101970792D01*
X128328143Y-101944884D01*
X128296654Y-101928911D01*
X128241301Y-101899961D01*
X128202284Y-101877473D01*
X128176806Y-101859257D01*
X128162071Y-101843126D01*
X128155282Y-101826892D01*
X128153640Y-101808365D01*
X128154115Y-101797862D01*
X128158322Y-101781746D01*
X128169186Y-101766432D01*
X128189459Y-101749834D01*
X128221894Y-101729865D01*
X128269244Y-101704439D01*
X128334262Y-101671470D01*
X128353517Y-101661737D01*
X128400186Y-101637279D01*
X128436349Y-101617044D01*
X128458737Y-101602911D01*
X128464085Y-101596762D01*
X128460813Y-101595395D01*
X128439904Y-101586020D01*
X128402965Y-101569160D01*
X128353114Y-101546243D01*
X128293466Y-101518702D01*
X128227138Y-101487967D01*
X128169917Y-101461252D01*
X128107928Y-101431629D01*
X128062189Y-101408558D01*
X128030148Y-101390579D01*
X128009254Y-101376232D01*
X127996958Y-101364056D01*
X127990706Y-101352590D01*
X127987814Y-101343180D01*
X127987665Y-101318075D01*
X128003008Y-101290932D01*
X128003993Y-101289632D01*
X128026628Y-101267548D01*
X128048853Y-101256499D01*
X128049493Y-101256453D01*
X128067155Y-101260994D01*
G37*
X128067155Y-101260994D02*
X128101721Y-101273858D01*
X128150066Y-101293617D01*
X128209065Y-101318841D01*
X128275595Y-101348103D01*
X128346531Y-101379972D01*
X128418747Y-101413021D01*
X128489120Y-101445821D01*
X128554525Y-101476942D01*
X128611837Y-101504957D01*
X128657932Y-101528436D01*
X128689686Y-101545950D01*
X128703973Y-101556071D01*
X128717342Y-101590479D01*
X128710981Y-101632176D01*
X128706284Y-101637541D01*
X128684133Y-101653370D01*
X128647372Y-101675572D01*
X128599655Y-101701989D01*
X128544633Y-101730462D01*
X128385390Y-101810236D01*
X128531982Y-101883423D01*
X128551272Y-101893119D01*
X128603620Y-101920097D01*
X128648410Y-101944126D01*
X128681394Y-101962890D01*
X128698329Y-101974076D01*
X128699572Y-101975222D01*
X128714859Y-102003343D01*
X128716542Y-102038405D01*
X128703973Y-102069446D01*
X128701124Y-102071872D01*
X128680499Y-102084132D01*
X128642948Y-102103870D01*
X128591120Y-102129774D01*
X128527663Y-102160537D01*
X128455225Y-102194847D01*
X128376456Y-102231397D01*
X128332333Y-102251637D01*
X128251605Y-102288410D01*
X128187927Y-102316867D01*
X128138992Y-102337891D01*
X128102497Y-102352368D01*
X128076135Y-102361183D01*
X128057601Y-102365218D01*
X128044592Y-102365360D01*
X128034801Y-102362492D01*
X128013918Y-102347835D01*
X127993617Y-102321232D01*
X127993275Y-102320477D01*
X127986274Y-102300887D01*
X127985744Y-102283432D01*
X127993718Y-102266520D01*
X128012229Y-102248559D01*
X128043311Y-102227959D01*
X128088996Y-102203127D01*
X128151318Y-102172472D01*
X128232311Y-102134402D01*
X128263694Y-102119768D01*
X128326878Y-102090019D01*
X128381484Y-102063925D01*
X128424530Y-102042930D01*
X128453033Y-102028483D01*
X128464010Y-102022031D01*
X128463429Y-102020672D01*
X128449482Y-102010680D01*
X128419944Y-101993389D01*
X128378327Y-101970792D01*
X128328143Y-101944884D01*
X128296654Y-101928911D01*
X128241301Y-101899961D01*
X128202284Y-101877473D01*
X128176806Y-101859257D01*
X128162071Y-101843126D01*
X128155282Y-101826892D01*
X128153640Y-101808365D01*
X128154115Y-101797862D01*
X128158322Y-101781746D01*
X128169186Y-101766432D01*
X128189459Y-101749834D01*
X128221894Y-101729865D01*
X128269244Y-101704439D01*
X128334262Y-101671470D01*
X128353517Y-101661737D01*
X128400186Y-101637279D01*
X128436349Y-101617044D01*
X128458737Y-101602911D01*
X128464085Y-101596762D01*
X128460813Y-101595395D01*
X128439904Y-101586020D01*
X128402965Y-101569160D01*
X128353114Y-101546243D01*
X128293466Y-101518702D01*
X128227138Y-101487967D01*
X128169917Y-101461252D01*
X128107928Y-101431629D01*
X128062189Y-101408558D01*
X128030148Y-101390579D01*
X128009254Y-101376232D01*
X127996958Y-101364056D01*
X127990706Y-101352590D01*
X127987814Y-101343180D01*
X127987665Y-101318075D01*
X128003008Y-101290932D01*
X128003993Y-101289632D01*
X128026628Y-101267548D01*
X128048853Y-101256499D01*
X128049493Y-101256453D01*
X128067155Y-101260994D01*
X127984515Y-99574531D02*
X127988876Y-99703510D01*
X127988876Y-99703510D02*
X128002101Y-99813213D01*
X128002101Y-99813213D02*
X128024981Y-99905448D01*
X128024981Y-99905448D02*
X128058310Y-99982024D01*
X128058310Y-99982024D02*
X128102878Y-100044749D01*
X128102878Y-100044749D02*
X128159476Y-100095434D01*
X128159476Y-100095434D02*
X128228898Y-100135885D01*
X128228898Y-100135885D02*
X128230591Y-100136681D01*
X128230591Y-100136681D02*
X128292723Y-100160823D01*
X128292723Y-100160823D02*
X128347749Y-100169425D01*
X128347749Y-100169425D02*
X128403127Y-100162453D01*
X128403127Y-100162453D02*
X128466313Y-100139876D01*
X128466313Y-100139876D02*
X128475929Y-100135594D01*
X128475929Y-100135594D02*
X128532206Y-100106394D01*
X128532206Y-100106394D02*
X128575691Y-100073578D01*
X128575691Y-100073578D02*
X128612657Y-100031224D01*
X128612657Y-100031224D02*
X128649375Y-99973412D01*
X128649375Y-99973412D02*
X128651292Y-99970053D01*
X128651292Y-99970053D02*
X128675467Y-99919726D01*
X128675467Y-99919726D02*
X128693522Y-99862843D01*
X128693522Y-99862843D02*
X128706079Y-99795749D01*
X128706079Y-99795749D02*
X128713762Y-99714787D01*
X128713762Y-99714787D02*
X128717193Y-99616304D01*
X128717193Y-99616304D02*
X128717491Y-99581508D01*
X128717491Y-99581508D02*
X128718085Y-99415816D01*
X128718085Y-99415816D02*
X128688340Y-99392419D01*
X128688340Y-99392419D02*
X128678559Y-99385479D01*
X128678559Y-99385479D02*
X128667137Y-99380064D01*
X128667137Y-99380064D02*
X128651335Y-99375987D01*
X128651335Y-99375987D02*
X128628415Y-99373059D01*
X128628415Y-99373059D02*
X128595636Y-99371089D01*
X128595636Y-99371089D02*
X128571329Y-99370447D01*
X128571329Y-99370447D02*
X128571329Y-99527066D01*
X128571329Y-99527066D02*
X128571329Y-99620948D01*
X128571329Y-99620948D02*
X128569723Y-99675886D01*
X128569723Y-99675886D02*
X128565495Y-99732282D01*
X128565495Y-99732282D02*
X128559532Y-99778567D01*
X128559532Y-99778567D02*
X128559030Y-99781361D01*
X128559030Y-99781361D02*
X128536976Y-99863570D01*
X128536976Y-99863570D02*
X128503840Y-99927336D01*
X128503840Y-99927336D02*
X128458087Y-99974674D01*
X128458087Y-99974674D02*
X128398179Y-100007604D01*
X128398179Y-100007604D02*
X128382301Y-100013330D01*
X128382301Y-100013330D02*
X128357573Y-100018943D01*
X128357573Y-100018943D02*
X128333142Y-100016513D01*
X128333142Y-100016513D02*
X128300640Y-100004689D01*
X128300640Y-100004689D02*
X128284674Y-99997562D01*
X128284674Y-99997562D02*
X128242246Y-99974222D01*
X128242246Y-99974222D02*
X128212480Y-99946102D01*
X128212480Y-99946102D02*
X128191751Y-99915162D01*
X128191751Y-99915162D02*
X128164777Y-99853188D01*
X128164777Y-99853188D02*
X128145238Y-99773873D01*
X128145238Y-99773873D02*
X128133986Y-99681475D01*
X128133986Y-99681475D02*
X128131510Y-99614555D01*
X128131510Y-99614555D02*
X128131062Y-99527066D01*
X128131062Y-99527066D02*
X128571329Y-99527066D01*
X128571329Y-99527066D02*
X128571329Y-99370447D01*
X128571329Y-99370447D02*
X128550261Y-99369890D01*
X128550261Y-99369890D02*
X128489551Y-99369272D01*
X128489551Y-99369272D02*
X128410766Y-99369047D01*
X128410766Y-99369047D02*
X128349160Y-99369022D01*
X128349160Y-99369022D02*
X128039725Y-99369022D01*
X128039725Y-99369022D02*
X128012016Y-99396731D01*
X128012016Y-99396731D02*
X128000784Y-99409028D01*
X128000784Y-99409028D02*
X127993093Y-99422325D01*
X127993093Y-99422325D02*
X127988280Y-99440894D01*
X127988280Y-99440894D02*
X127985686Y-99469008D01*
X127985686Y-99469008D02*
X127984650Y-99510939D01*
X127984650Y-99510939D02*
X127984510Y-99570959D01*
X127984510Y-99570959D02*
X127984515Y-99574531D01*
X127984515Y-99574531D02*
X127984515Y-99574531D01*
G36*
X128410766Y-99369047D02*
G01*
X128489551Y-99369272D01*
X128550261Y-99369890D01*
X128571329Y-99370447D01*
X128595636Y-99371089D01*
X128628415Y-99373059D01*
X128651335Y-99375987D01*
X128667137Y-99380064D01*
X128678559Y-99385479D01*
X128688340Y-99392419D01*
X128718085Y-99415816D01*
X128717491Y-99581508D01*
X128717193Y-99616304D01*
X128713762Y-99714787D01*
X128706079Y-99795749D01*
X128693522Y-99862843D01*
X128675467Y-99919726D01*
X128651292Y-99970053D01*
X128649375Y-99973412D01*
X128612657Y-100031224D01*
X128575691Y-100073578D01*
X128532206Y-100106394D01*
X128475929Y-100135594D01*
X128466313Y-100139876D01*
X128403127Y-100162453D01*
X128347749Y-100169425D01*
X128292723Y-100160823D01*
X128230591Y-100136681D01*
X128228898Y-100135885D01*
X128159476Y-100095434D01*
X128102878Y-100044749D01*
X128058310Y-99982024D01*
X128024981Y-99905448D01*
X128002101Y-99813213D01*
X127988876Y-99703510D01*
X127984515Y-99574531D01*
X127984510Y-99570959D01*
X127984612Y-99527066D01*
X128131062Y-99527066D01*
X128131510Y-99614555D01*
X128133986Y-99681475D01*
X128145238Y-99773873D01*
X128164777Y-99853188D01*
X128191751Y-99915162D01*
X128212480Y-99946102D01*
X128242246Y-99974222D01*
X128284674Y-99997562D01*
X128300640Y-100004689D01*
X128333142Y-100016513D01*
X128357573Y-100018943D01*
X128382301Y-100013330D01*
X128398179Y-100007604D01*
X128458087Y-99974674D01*
X128503840Y-99927336D01*
X128536976Y-99863570D01*
X128559030Y-99781361D01*
X128559532Y-99778567D01*
X128565495Y-99732282D01*
X128569723Y-99675886D01*
X128571329Y-99620948D01*
X128571329Y-99527066D01*
X128131062Y-99527066D01*
X127984612Y-99527066D01*
X127984650Y-99510939D01*
X127985686Y-99469008D01*
X127988280Y-99440894D01*
X127993093Y-99422325D01*
X128000784Y-99409028D01*
X128012016Y-99396731D01*
X128039725Y-99369022D01*
X128349160Y-99369022D01*
X128410766Y-99369047D01*
G37*
X128410766Y-99369047D02*
X128489551Y-99369272D01*
X128550261Y-99369890D01*
X128571329Y-99370447D01*
X128595636Y-99371089D01*
X128628415Y-99373059D01*
X128651335Y-99375987D01*
X128667137Y-99380064D01*
X128678559Y-99385479D01*
X128688340Y-99392419D01*
X128718085Y-99415816D01*
X128717491Y-99581508D01*
X128717193Y-99616304D01*
X128713762Y-99714787D01*
X128706079Y-99795749D01*
X128693522Y-99862843D01*
X128675467Y-99919726D01*
X128651292Y-99970053D01*
X128649375Y-99973412D01*
X128612657Y-100031224D01*
X128575691Y-100073578D01*
X128532206Y-100106394D01*
X128475929Y-100135594D01*
X128466313Y-100139876D01*
X128403127Y-100162453D01*
X128347749Y-100169425D01*
X128292723Y-100160823D01*
X128230591Y-100136681D01*
X128228898Y-100135885D01*
X128159476Y-100095434D01*
X128102878Y-100044749D01*
X128058310Y-99982024D01*
X128024981Y-99905448D01*
X128002101Y-99813213D01*
X127988876Y-99703510D01*
X127984515Y-99574531D01*
X127984510Y-99570959D01*
X127984612Y-99527066D01*
X128131062Y-99527066D01*
X128131510Y-99614555D01*
X128133986Y-99681475D01*
X128145238Y-99773873D01*
X128164777Y-99853188D01*
X128191751Y-99915162D01*
X128212480Y-99946102D01*
X128242246Y-99974222D01*
X128284674Y-99997562D01*
X128300640Y-100004689D01*
X128333142Y-100016513D01*
X128357573Y-100018943D01*
X128382301Y-100013330D01*
X128398179Y-100007604D01*
X128458087Y-99974674D01*
X128503840Y-99927336D01*
X128536976Y-99863570D01*
X128559030Y-99781361D01*
X128559532Y-99778567D01*
X128565495Y-99732282D01*
X128569723Y-99675886D01*
X128571329Y-99620948D01*
X128571329Y-99527066D01*
X128131062Y-99527066D01*
X127984612Y-99527066D01*
X127984650Y-99510939D01*
X127985686Y-99469008D01*
X127988280Y-99440894D01*
X127993093Y-99422325D01*
X128000784Y-99409028D01*
X128012016Y-99396731D01*
X128039725Y-99369022D01*
X128349160Y-99369022D01*
X128410766Y-99369047D01*
X127984500Y-98786565D02*
X127985414Y-98862923D01*
X127985414Y-98862923D02*
X127987551Y-98921439D01*
X127987551Y-98921439D02*
X127991415Y-98964477D01*
X127991415Y-98964477D02*
X127997507Y-98994405D01*
X127997507Y-98994405D02*
X128006330Y-99013590D01*
X128006330Y-99013590D02*
X128018386Y-99024398D01*
X128018386Y-99024398D02*
X128034179Y-99029195D01*
X128034179Y-99029195D02*
X128054210Y-99030349D01*
X128054210Y-99030349D02*
X128056575Y-99030355D01*
X128056575Y-99030355D02*
X128079232Y-99029353D01*
X128079232Y-99029353D02*
X128096743Y-99024618D01*
X128096743Y-99024618D02*
X128109814Y-99013555D01*
X128109814Y-99013555D02*
X128119153Y-98993570D01*
X128119153Y-98993570D02*
X128125467Y-98962068D01*
X128125467Y-98962068D02*
X128129462Y-98916454D01*
X128129462Y-98916454D02*
X128131846Y-98854135D01*
X128131846Y-98854135D02*
X128133326Y-98772515D01*
X128133326Y-98772515D02*
X128133654Y-98747499D01*
X128133654Y-98747499D02*
X128136707Y-98505422D01*
X128136707Y-98505422D02*
X128201618Y-98502036D01*
X128201618Y-98502036D02*
X128266529Y-98498651D01*
X128266529Y-98498651D02*
X128266529Y-98666798D01*
X128266529Y-98666798D02*
X128266771Y-98732488D01*
X128266771Y-98732488D02*
X128267796Y-98779394D01*
X128267796Y-98779394D02*
X128270051Y-98811305D01*
X128270051Y-98811305D02*
X128273982Y-98832013D01*
X128273982Y-98832013D02*
X128280038Y-98845306D01*
X128280038Y-98845306D02*
X128288664Y-98854977D01*
X128288664Y-98854977D02*
X128288733Y-98855039D01*
X128288733Y-98855039D02*
X128322352Y-98872578D01*
X128322352Y-98872578D02*
X128358688Y-98871944D01*
X128358688Y-98871944D02*
X128389663Y-98853536D01*
X128389663Y-98853536D02*
X128392847Y-98849893D01*
X128392847Y-98849893D02*
X128401052Y-98836963D01*
X128401052Y-98836963D02*
X128406761Y-98819246D01*
X128406761Y-98819246D02*
X128410402Y-98792792D01*
X128410402Y-98792792D02*
X128412407Y-98753654D01*
X128412407Y-98753654D02*
X128413204Y-98697884D01*
X128413204Y-98697884D02*
X128413285Y-98662216D01*
X128413285Y-98662216D02*
X128413285Y-98499777D01*
X128413285Y-98499777D02*
X128571329Y-98499777D01*
X128571329Y-98499777D02*
X128571329Y-98746383D01*
X128571329Y-98746383D02*
X128571471Y-98827802D01*
X128571471Y-98827802D02*
X128572054Y-98889632D01*
X128572054Y-98889632D02*
X128573308Y-98934859D01*
X128573308Y-98934859D02*
X128575467Y-98966470D01*
X128575467Y-98966470D02*
X128578763Y-98987453D01*
X128578763Y-98987453D02*
X128583429Y-99000795D01*
X128583429Y-99000795D02*
X128589697Y-99009483D01*
X128589697Y-99009483D02*
X128591973Y-99011672D01*
X128591973Y-99011672D02*
X128623520Y-99027836D01*
X128623520Y-99027836D02*
X128659408Y-99029019D01*
X128659408Y-99029019D02*
X128690525Y-99015758D01*
X128690525Y-99015758D02*
X128700511Y-99005265D01*
X128700511Y-99005265D02*
X128706009Y-98994351D01*
X128706009Y-98994351D02*
X128710262Y-98977439D01*
X128710262Y-98977439D02*
X128713420Y-98951855D01*
X128713420Y-98951855D02*
X128715632Y-98914923D01*
X128715632Y-98914923D02*
X128717046Y-98863968D01*
X128717046Y-98863968D02*
X128717812Y-98796316D01*
X128717812Y-98796316D02*
X128718078Y-98709291D01*
X128718078Y-98709291D02*
X128718085Y-98689616D01*
X128718085Y-98689616D02*
X128718027Y-98601133D01*
X128718027Y-98601133D02*
X128717707Y-98532449D01*
X128717707Y-98532449D02*
X128716907Y-98480786D01*
X128716907Y-98480786D02*
X128715407Y-98443367D01*
X128715407Y-98443367D02*
X128712989Y-98417412D01*
X128712989Y-98417412D02*
X128709434Y-98400144D01*
X128709434Y-98400144D02*
X128704522Y-98388784D01*
X128704522Y-98388784D02*
X128698035Y-98380554D01*
X128698035Y-98380554D02*
X128693378Y-98376039D01*
X128693378Y-98376039D02*
X128685129Y-98369243D01*
X128685129Y-98369243D02*
X128674909Y-98363934D01*
X128674909Y-98363934D02*
X128660040Y-98359928D01*
X128660040Y-98359928D02*
X128637842Y-98357043D01*
X128637842Y-98357043D02*
X128605633Y-98355096D01*
X128605633Y-98355096D02*
X128560736Y-98353903D01*
X128560736Y-98353903D02*
X128500468Y-98353283D01*
X128500468Y-98353283D02*
X128422151Y-98353051D01*
X128422151Y-98353051D02*
X128356234Y-98353022D01*
X128356234Y-98353022D02*
X128263868Y-98353093D01*
X128263868Y-98353093D02*
X128191357Y-98353430D01*
X128191357Y-98353430D02*
X128135977Y-98354220D01*
X128135977Y-98354220D02*
X128095005Y-98355648D01*
X128095005Y-98355648D02*
X128065718Y-98357901D01*
X128065718Y-98357901D02*
X128045393Y-98361165D01*
X128045393Y-98361165D02*
X128031306Y-98365626D01*
X128031306Y-98365626D02*
X128020735Y-98371470D01*
X128020735Y-98371470D02*
X128014051Y-98376419D01*
X128014051Y-98376419D02*
X127984307Y-98399816D01*
X127984307Y-98399816D02*
X127984307Y-98689996D01*
X127984307Y-98689996D02*
X127984500Y-98786565D01*
X127984500Y-98786565D02*
X127984500Y-98786565D01*
G36*
X128422151Y-98353051D02*
G01*
X128500468Y-98353283D01*
X128560736Y-98353903D01*
X128605633Y-98355096D01*
X128637842Y-98357043D01*
X128660040Y-98359928D01*
X128674909Y-98363934D01*
X128685129Y-98369243D01*
X128693378Y-98376039D01*
X128698035Y-98380554D01*
X128704522Y-98388784D01*
X128709434Y-98400144D01*
X128712989Y-98417412D01*
X128715407Y-98443367D01*
X128716907Y-98480786D01*
X128717707Y-98532449D01*
X128718027Y-98601133D01*
X128718085Y-98689616D01*
X128718078Y-98709291D01*
X128717812Y-98796316D01*
X128717046Y-98863968D01*
X128715632Y-98914923D01*
X128713420Y-98951855D01*
X128710262Y-98977439D01*
X128706009Y-98994351D01*
X128700511Y-99005265D01*
X128690525Y-99015758D01*
X128659408Y-99029019D01*
X128623520Y-99027836D01*
X128591973Y-99011672D01*
X128589697Y-99009483D01*
X128583429Y-99000795D01*
X128578763Y-98987453D01*
X128575467Y-98966470D01*
X128573308Y-98934859D01*
X128572054Y-98889632D01*
X128571471Y-98827802D01*
X128571329Y-98746383D01*
X128571329Y-98499777D01*
X128413285Y-98499777D01*
X128413285Y-98662216D01*
X128413204Y-98697884D01*
X128412407Y-98753654D01*
X128410402Y-98792792D01*
X128406761Y-98819246D01*
X128401052Y-98836963D01*
X128392847Y-98849893D01*
X128389663Y-98853536D01*
X128358688Y-98871944D01*
X128322352Y-98872578D01*
X128288733Y-98855039D01*
X128288664Y-98854977D01*
X128280038Y-98845306D01*
X128273982Y-98832013D01*
X128270051Y-98811305D01*
X128267796Y-98779394D01*
X128266771Y-98732488D01*
X128266529Y-98666798D01*
X128266529Y-98498651D01*
X128201618Y-98502036D01*
X128136707Y-98505422D01*
X128133654Y-98747499D01*
X128133326Y-98772515D01*
X128131846Y-98854135D01*
X128129462Y-98916454D01*
X128125467Y-98962068D01*
X128119153Y-98993570D01*
X128109814Y-99013555D01*
X128096743Y-99024618D01*
X128079232Y-99029353D01*
X128056575Y-99030355D01*
X128054210Y-99030349D01*
X128034179Y-99029195D01*
X128018386Y-99024398D01*
X128006330Y-99013590D01*
X127997507Y-98994405D01*
X127991415Y-98964477D01*
X127987551Y-98921439D01*
X127985414Y-98862923D01*
X127984500Y-98786565D01*
X127984307Y-98689996D01*
X127984307Y-98399816D01*
X128014051Y-98376419D01*
X128020735Y-98371470D01*
X128031306Y-98365626D01*
X128045393Y-98361165D01*
X128065718Y-98357901D01*
X128095005Y-98355648D01*
X128135977Y-98354220D01*
X128191357Y-98353430D01*
X128263868Y-98353093D01*
X128356234Y-98353022D01*
X128422151Y-98353051D01*
G37*
X128422151Y-98353051D02*
X128500468Y-98353283D01*
X128560736Y-98353903D01*
X128605633Y-98355096D01*
X128637842Y-98357043D01*
X128660040Y-98359928D01*
X128674909Y-98363934D01*
X128685129Y-98369243D01*
X128693378Y-98376039D01*
X128698035Y-98380554D01*
X128704522Y-98388784D01*
X128709434Y-98400144D01*
X128712989Y-98417412D01*
X128715407Y-98443367D01*
X128716907Y-98480786D01*
X128717707Y-98532449D01*
X128718027Y-98601133D01*
X128718085Y-98689616D01*
X128718078Y-98709291D01*
X128717812Y-98796316D01*
X128717046Y-98863968D01*
X128715632Y-98914923D01*
X128713420Y-98951855D01*
X128710262Y-98977439D01*
X128706009Y-98994351D01*
X128700511Y-99005265D01*
X128690525Y-99015758D01*
X128659408Y-99029019D01*
X128623520Y-99027836D01*
X128591973Y-99011672D01*
X128589697Y-99009483D01*
X128583429Y-99000795D01*
X128578763Y-98987453D01*
X128575467Y-98966470D01*
X128573308Y-98934859D01*
X128572054Y-98889632D01*
X128571471Y-98827802D01*
X128571329Y-98746383D01*
X128571329Y-98499777D01*
X128413285Y-98499777D01*
X128413285Y-98662216D01*
X128413204Y-98697884D01*
X128412407Y-98753654D01*
X128410402Y-98792792D01*
X128406761Y-98819246D01*
X128401052Y-98836963D01*
X128392847Y-98849893D01*
X128389663Y-98853536D01*
X128358688Y-98871944D01*
X128322352Y-98872578D01*
X128288733Y-98855039D01*
X128288664Y-98854977D01*
X128280038Y-98845306D01*
X128273982Y-98832013D01*
X128270051Y-98811305D01*
X128267796Y-98779394D01*
X128266771Y-98732488D01*
X128266529Y-98666798D01*
X128266529Y-98498651D01*
X128201618Y-98502036D01*
X128136707Y-98505422D01*
X128133654Y-98747499D01*
X128133326Y-98772515D01*
X128131846Y-98854135D01*
X128129462Y-98916454D01*
X128125467Y-98962068D01*
X128119153Y-98993570D01*
X128109814Y-99013555D01*
X128096743Y-99024618D01*
X128079232Y-99029353D01*
X128056575Y-99030355D01*
X128054210Y-99030349D01*
X128034179Y-99029195D01*
X128018386Y-99024398D01*
X128006330Y-99013590D01*
X127997507Y-98994405D01*
X127991415Y-98964477D01*
X127987551Y-98921439D01*
X127985414Y-98862923D01*
X127984500Y-98786565D01*
X127984307Y-98689996D01*
X127984307Y-98399816D01*
X128014051Y-98376419D01*
X128020735Y-98371470D01*
X128031306Y-98365626D01*
X128045393Y-98361165D01*
X128065718Y-98357901D01*
X128095005Y-98355648D01*
X128135977Y-98354220D01*
X128191357Y-98353430D01*
X128263868Y-98353093D01*
X128356234Y-98353022D01*
X128422151Y-98353051D01*
X127988688Y-97256108D02*
X128002513Y-97279674D01*
X128002513Y-97279674D02*
X128025121Y-97310487D01*
X128025121Y-97310487D02*
X128057578Y-97350144D01*
X128057578Y-97350144D02*
X128100948Y-97400242D01*
X128100948Y-97400242D02*
X128156298Y-97462379D01*
X128156298Y-97462379D02*
X128224691Y-97538150D01*
X128224691Y-97538150D02*
X128303324Y-97624888D01*
X128303324Y-97624888D02*
X128467118Y-97805511D01*
X128467118Y-97805511D02*
X128247269Y-97811155D01*
X128247269Y-97811155D02*
X128171591Y-97813193D01*
X128171591Y-97813193D02*
X128115234Y-97815159D01*
X128115234Y-97815159D02*
X128074946Y-97817488D01*
X128074946Y-97817488D02*
X128047475Y-97820616D01*
X128047475Y-97820616D02*
X128029569Y-97824977D01*
X128029569Y-97824977D02*
X128017977Y-97831006D01*
X128017977Y-97831006D02*
X128009448Y-97839138D01*
X128009448Y-97839138D02*
X128005863Y-97843450D01*
X128005863Y-97843450D02*
X127986910Y-97877981D01*
X127986910Y-97877981D02*
X127989681Y-97910839D01*
X127989681Y-97910839D02*
X128005873Y-97936904D01*
X128005873Y-97936904D02*
X128027439Y-97963555D01*
X128027439Y-97963555D02*
X128342391Y-97966870D01*
X128342391Y-97966870D02*
X128435019Y-97967787D01*
X128435019Y-97967787D02*
X128507784Y-97968254D01*
X128507784Y-97968254D02*
X128563401Y-97968109D01*
X128563401Y-97968109D02*
X128604582Y-97967190D01*
X128604582Y-97967190D02*
X128634043Y-97965335D01*
X128634043Y-97965335D02*
X128654495Y-97962383D01*
X128654495Y-97962383D02*
X128668653Y-97958172D01*
X128668653Y-97958172D02*
X128679231Y-97952540D01*
X128679231Y-97952540D02*
X128687714Y-97946295D01*
X128687714Y-97946295D02*
X128703447Y-97932783D01*
X128703447Y-97932783D02*
X128713876Y-97919339D01*
X128713876Y-97919339D02*
X128717879Y-97904098D01*
X128717879Y-97904098D02*
X128714334Y-97885196D01*
X128714334Y-97885196D02*
X128702119Y-97860767D01*
X128702119Y-97860767D02*
X128680111Y-97828949D01*
X128680111Y-97828949D02*
X128647189Y-97787874D01*
X128647189Y-97787874D02*
X128602231Y-97735680D01*
X128602231Y-97735680D02*
X128544115Y-97670500D01*
X128544115Y-97670500D02*
X128477339Y-97596666D01*
X128477339Y-97596666D02*
X128236698Y-97331377D01*
X128236698Y-97331377D02*
X128455829Y-97325733D01*
X128455829Y-97325733D02*
X128531368Y-97323691D01*
X128531368Y-97323691D02*
X128587594Y-97321720D01*
X128587594Y-97321720D02*
X128627764Y-97319383D01*
X128627764Y-97319383D02*
X128655136Y-97316241D01*
X128655136Y-97316241D02*
X128672968Y-97311858D01*
X128672968Y-97311858D02*
X128684519Y-97305798D01*
X128684519Y-97305798D02*
X128693047Y-97297622D01*
X128693047Y-97297622D02*
X128696522Y-97293438D01*
X128696522Y-97293438D02*
X128715612Y-97256457D01*
X128715612Y-97256457D02*
X128712733Y-97221514D01*
X128712733Y-97221514D02*
X128688340Y-97191086D01*
X128688340Y-97191086D02*
X128678526Y-97184125D01*
X128678526Y-97184125D02*
X128667066Y-97178699D01*
X128667066Y-97178699D02*
X128651208Y-97174619D01*
X128651208Y-97174619D02*
X128628203Y-97171693D01*
X128628203Y-97171693D02*
X128595302Y-97169730D01*
X128595302Y-97169730D02*
X128549756Y-97168539D01*
X128549756Y-97168539D02*
X128488813Y-97167930D01*
X128488813Y-97167930D02*
X128409726Y-97167711D01*
X128409726Y-97167711D02*
X128351196Y-97167688D01*
X128351196Y-97167688D02*
X128259647Y-97167762D01*
X128259647Y-97167762D02*
X128187927Y-97168109D01*
X128187927Y-97168109D02*
X128133285Y-97168921D01*
X128133285Y-97168921D02*
X128092972Y-97170389D01*
X128092972Y-97170389D02*
X128064238Y-97172703D01*
X128064238Y-97172703D02*
X128044333Y-97176055D01*
X128044333Y-97176055D02*
X128030508Y-97180634D01*
X128030508Y-97180634D02*
X128020012Y-97186633D01*
X128020012Y-97186633D02*
X128014051Y-97191086D01*
X128014051Y-97191086D02*
X127999931Y-97202372D01*
X127999931Y-97202372D02*
X127989269Y-97212921D01*
X127989269Y-97212921D02*
X127983132Y-97224329D01*
X127983132Y-97224329D02*
X127982583Y-97238192D01*
X127982583Y-97238192D02*
X127988688Y-97256108D01*
X127988688Y-97256108D02*
X127988688Y-97256108D01*
G36*
X128409726Y-97167711D02*
G01*
X128488813Y-97167930D01*
X128549756Y-97168539D01*
X128595302Y-97169730D01*
X128628203Y-97171693D01*
X128651208Y-97174619D01*
X128667066Y-97178699D01*
X128678526Y-97184125D01*
X128688340Y-97191086D01*
X128712733Y-97221514D01*
X128715612Y-97256457D01*
X128696522Y-97293438D01*
X128693047Y-97297622D01*
X128684519Y-97305798D01*
X128672968Y-97311858D01*
X128655136Y-97316241D01*
X128627764Y-97319383D01*
X128587594Y-97321720D01*
X128531368Y-97323691D01*
X128455829Y-97325733D01*
X128236698Y-97331377D01*
X128477339Y-97596666D01*
X128544115Y-97670500D01*
X128602231Y-97735680D01*
X128647189Y-97787874D01*
X128680111Y-97828949D01*
X128702119Y-97860767D01*
X128714334Y-97885196D01*
X128717879Y-97904098D01*
X128713876Y-97919339D01*
X128703447Y-97932783D01*
X128687714Y-97946295D01*
X128679231Y-97952540D01*
X128668653Y-97958172D01*
X128654495Y-97962383D01*
X128634043Y-97965335D01*
X128604582Y-97967190D01*
X128563401Y-97968109D01*
X128507784Y-97968254D01*
X128435019Y-97967787D01*
X128342391Y-97966870D01*
X128027439Y-97963555D01*
X128005873Y-97936904D01*
X127989681Y-97910839D01*
X127986910Y-97877981D01*
X128005863Y-97843450D01*
X128009448Y-97839138D01*
X128017977Y-97831006D01*
X128029569Y-97824977D01*
X128047475Y-97820616D01*
X128074946Y-97817488D01*
X128115234Y-97815159D01*
X128171591Y-97813193D01*
X128247269Y-97811155D01*
X128467118Y-97805511D01*
X128303324Y-97624888D01*
X128224691Y-97538150D01*
X128156298Y-97462379D01*
X128100948Y-97400242D01*
X128057578Y-97350144D01*
X128025121Y-97310487D01*
X128002513Y-97279674D01*
X127988688Y-97256108D01*
X127982583Y-97238192D01*
X127983132Y-97224329D01*
X127989269Y-97212921D01*
X127999931Y-97202372D01*
X128014051Y-97191086D01*
X128020012Y-97186633D01*
X128030508Y-97180634D01*
X128044333Y-97176055D01*
X128064238Y-97172703D01*
X128092972Y-97170389D01*
X128133285Y-97168921D01*
X128187927Y-97168109D01*
X128259647Y-97167762D01*
X128351196Y-97167688D01*
X128409726Y-97167711D01*
G37*
X128409726Y-97167711D02*
X128488813Y-97167930D01*
X128549756Y-97168539D01*
X128595302Y-97169730D01*
X128628203Y-97171693D01*
X128651208Y-97174619D01*
X128667066Y-97178699D01*
X128678526Y-97184125D01*
X128688340Y-97191086D01*
X128712733Y-97221514D01*
X128715612Y-97256457D01*
X128696522Y-97293438D01*
X128693047Y-97297622D01*
X128684519Y-97305798D01*
X128672968Y-97311858D01*
X128655136Y-97316241D01*
X128627764Y-97319383D01*
X128587594Y-97321720D01*
X128531368Y-97323691D01*
X128455829Y-97325733D01*
X128236698Y-97331377D01*
X128477339Y-97596666D01*
X128544115Y-97670500D01*
X128602231Y-97735680D01*
X128647189Y-97787874D01*
X128680111Y-97828949D01*
X128702119Y-97860767D01*
X128714334Y-97885196D01*
X128717879Y-97904098D01*
X128713876Y-97919339D01*
X128703447Y-97932783D01*
X128687714Y-97946295D01*
X128679231Y-97952540D01*
X128668653Y-97958172D01*
X128654495Y-97962383D01*
X128634043Y-97965335D01*
X128604582Y-97967190D01*
X128563401Y-97968109D01*
X128507784Y-97968254D01*
X128435019Y-97967787D01*
X128342391Y-97966870D01*
X128027439Y-97963555D01*
X128005873Y-97936904D01*
X127989681Y-97910839D01*
X127986910Y-97877981D01*
X128005863Y-97843450D01*
X128009448Y-97839138D01*
X128017977Y-97831006D01*
X128029569Y-97824977D01*
X128047475Y-97820616D01*
X128074946Y-97817488D01*
X128115234Y-97815159D01*
X128171591Y-97813193D01*
X128247269Y-97811155D01*
X128467118Y-97805511D01*
X128303324Y-97624888D01*
X128224691Y-97538150D01*
X128156298Y-97462379D01*
X128100948Y-97400242D01*
X128057578Y-97350144D01*
X128025121Y-97310487D01*
X128002513Y-97279674D01*
X127988688Y-97256108D01*
X127982583Y-97238192D01*
X127983132Y-97224329D01*
X127989269Y-97212921D01*
X127999931Y-97202372D01*
X128014051Y-97191086D01*
X128020012Y-97186633D01*
X128030508Y-97180634D01*
X128044333Y-97176055D01*
X128064238Y-97172703D01*
X128092972Y-97170389D01*
X128133285Y-97168921D01*
X128187927Y-97168109D01*
X128259647Y-97167762D01*
X128351196Y-97167688D01*
X128409726Y-97167711D01*
X127989839Y-96606141D02*
X128001335Y-96674657D01*
X128001335Y-96674657D02*
X128019207Y-96727279D01*
X128019207Y-96727279D02*
X128042739Y-96761514D01*
X128042739Y-96761514D02*
X128056164Y-96770843D01*
X128056164Y-96770843D02*
X128087388Y-96780329D01*
X128087388Y-96780329D02*
X128115635Y-96773945D01*
X128115635Y-96773945D02*
X128142422Y-96753792D01*
X128142422Y-96753792D02*
X128154953Y-96722477D01*
X128154953Y-96722477D02*
X128153936Y-96677039D01*
X128153936Y-96677039D02*
X128147146Y-96641896D01*
X128147146Y-96641896D02*
X128134211Y-96563803D01*
X128134211Y-96563803D02*
X128132982Y-96483996D01*
X128132982Y-96483996D02*
X128143481Y-96394667D01*
X128143481Y-96394667D02*
X128147930Y-96369993D01*
X128147930Y-96369993D02*
X128171348Y-96286931D01*
X128171348Y-96286931D02*
X128206185Y-96221949D01*
X128206185Y-96221949D02*
X128251844Y-96175761D01*
X128251844Y-96175761D02*
X128307734Y-96149077D01*
X128307734Y-96149077D02*
X128336628Y-96143559D01*
X128336628Y-96143559D02*
X128395252Y-96147171D01*
X128395252Y-96147171D02*
X128447119Y-96170493D01*
X128447119Y-96170493D02*
X128491218Y-96211398D01*
X128491218Y-96211398D02*
X128526539Y-96267763D01*
X128526539Y-96267763D02*
X128552069Y-96337462D01*
X128552069Y-96337462D02*
X128566799Y-96418370D01*
X128566799Y-96418370D02*
X128569718Y-96508362D01*
X128569718Y-96508362D02*
X128559815Y-96605312D01*
X128559815Y-96605312D02*
X128558881Y-96610786D01*
X128558881Y-96610786D02*
X128551699Y-96649347D01*
X128551699Y-96649347D02*
X128544761Y-96670728D01*
X128544761Y-96670728D02*
X128534467Y-96679995D01*
X128534467Y-96679995D02*
X128517216Y-96682216D01*
X128517216Y-96682216D02*
X128508081Y-96682266D01*
X128508081Y-96682266D02*
X128469729Y-96682266D01*
X128469729Y-96682266D02*
X128469729Y-96613791D01*
X128469729Y-96613791D02*
X128465587Y-96553322D01*
X128465587Y-96553322D02*
X128452387Y-96512057D01*
X128452387Y-96512057D02*
X128428970Y-96488047D01*
X128428970Y-96488047D02*
X128394176Y-96479345D01*
X128394176Y-96479345D02*
X128389634Y-96479239D01*
X128389634Y-96479239D02*
X128359894Y-96484330D01*
X128359894Y-96484330D02*
X128338659Y-96501789D01*
X128338659Y-96501789D02*
X128324606Y-96534283D01*
X128324606Y-96534283D02*
X128316413Y-96584479D01*
X128316413Y-96584479D02*
X128313401Y-96633099D01*
X128313401Y-96633099D02*
X128311673Y-96703766D01*
X128311673Y-96703766D02*
X128314310Y-96755024D01*
X128314310Y-96755024D02*
X128324040Y-96789983D01*
X128324040Y-96789983D02*
X128343593Y-96811752D01*
X128343593Y-96811752D02*
X128375696Y-96823442D01*
X128375696Y-96823442D02*
X128423078Y-96828162D01*
X128423078Y-96828162D02*
X128485311Y-96829022D01*
X128485311Y-96829022D02*
X128554775Y-96827613D01*
X128554775Y-96827613D02*
X128602026Y-96823374D01*
X128602026Y-96823374D02*
X128627252Y-96816286D01*
X128627252Y-96816286D02*
X128629228Y-96814911D01*
X128629228Y-96814911D02*
X128660748Y-96775994D01*
X128660748Y-96775994D02*
X128685710Y-96718936D01*
X128685710Y-96718936D02*
X128703580Y-96647353D01*
X128703580Y-96647353D02*
X128713826Y-96564864D01*
X128713826Y-96564864D02*
X128715913Y-96475083D01*
X128715913Y-96475083D02*
X128709308Y-96381630D01*
X128709308Y-96381630D02*
X128701196Y-96326666D01*
X128701196Y-96326666D02*
X128676794Y-96240456D01*
X128676794Y-96240456D02*
X128636902Y-96160330D01*
X128636902Y-96160330D02*
X128585127Y-96093245D01*
X128585127Y-96093245D02*
X128574779Y-96083049D01*
X128574779Y-96083049D02*
X128531275Y-96049920D01*
X128531275Y-96049920D02*
X128477358Y-96020028D01*
X128477358Y-96020028D02*
X128420832Y-95996865D01*
X128420832Y-95996865D02*
X128369499Y-95983924D01*
X128369499Y-95983924D02*
X128349784Y-95982364D01*
X128349784Y-95982364D02*
X128308659Y-95989004D01*
X128308659Y-95989004D02*
X128257492Y-96006654D01*
X128257492Y-96006654D02*
X128203634Y-96031925D01*
X128203634Y-96031925D02*
X128154435Y-96061433D01*
X128154435Y-96061433D02*
X128121574Y-96087503D01*
X128121574Y-96087503D02*
X128072692Y-96148457D01*
X128072692Y-96148457D02*
X128033785Y-96227253D01*
X128033785Y-96227253D02*
X128005734Y-96321065D01*
X128005734Y-96321065D02*
X127989419Y-96427072D01*
X127989419Y-96427072D02*
X127985432Y-96524222D01*
X127985432Y-96524222D02*
X127989839Y-96606141D01*
X127989839Y-96606141D02*
X127989839Y-96606141D01*
G36*
X128369499Y-95983924D02*
G01*
X128420832Y-95996865D01*
X128477358Y-96020028D01*
X128531275Y-96049920D01*
X128574779Y-96083049D01*
X128585127Y-96093245D01*
X128636902Y-96160330D01*
X128676794Y-96240456D01*
X128701196Y-96326666D01*
X128709308Y-96381630D01*
X128715913Y-96475083D01*
X128713826Y-96564864D01*
X128703580Y-96647353D01*
X128685710Y-96718936D01*
X128660748Y-96775994D01*
X128629228Y-96814911D01*
X128627252Y-96816286D01*
X128602026Y-96823374D01*
X128554775Y-96827613D01*
X128485311Y-96829022D01*
X128423078Y-96828162D01*
X128375696Y-96823442D01*
X128343593Y-96811752D01*
X128324040Y-96789983D01*
X128314310Y-96755024D01*
X128311673Y-96703766D01*
X128313401Y-96633099D01*
X128316413Y-96584479D01*
X128324606Y-96534283D01*
X128338659Y-96501789D01*
X128359894Y-96484330D01*
X128389634Y-96479239D01*
X128394176Y-96479345D01*
X128428970Y-96488047D01*
X128452387Y-96512057D01*
X128465587Y-96553322D01*
X128469729Y-96613791D01*
X128469729Y-96682266D01*
X128508081Y-96682266D01*
X128517216Y-96682216D01*
X128534467Y-96679995D01*
X128544761Y-96670728D01*
X128551699Y-96649347D01*
X128558881Y-96610786D01*
X128559815Y-96605312D01*
X128569718Y-96508362D01*
X128566799Y-96418370D01*
X128552069Y-96337462D01*
X128526539Y-96267763D01*
X128491218Y-96211398D01*
X128447119Y-96170493D01*
X128395252Y-96147171D01*
X128336628Y-96143559D01*
X128307734Y-96149077D01*
X128251844Y-96175761D01*
X128206185Y-96221949D01*
X128171348Y-96286931D01*
X128147930Y-96369993D01*
X128143481Y-96394667D01*
X128132982Y-96483996D01*
X128134211Y-96563803D01*
X128147146Y-96641896D01*
X128153936Y-96677039D01*
X128154953Y-96722477D01*
X128142422Y-96753792D01*
X128115635Y-96773945D01*
X128087388Y-96780329D01*
X128056164Y-96770843D01*
X128042739Y-96761514D01*
X128019207Y-96727279D01*
X128001335Y-96674657D01*
X127989839Y-96606141D01*
X127985432Y-96524222D01*
X127989419Y-96427072D01*
X128005734Y-96321065D01*
X128033785Y-96227253D01*
X128072692Y-96148457D01*
X128121574Y-96087503D01*
X128154435Y-96061433D01*
X128203634Y-96031925D01*
X128257492Y-96006654D01*
X128308659Y-95989004D01*
X128349784Y-95982364D01*
X128369499Y-95983924D01*
G37*
X128369499Y-95983924D02*
X128420832Y-95996865D01*
X128477358Y-96020028D01*
X128531275Y-96049920D01*
X128574779Y-96083049D01*
X128585127Y-96093245D01*
X128636902Y-96160330D01*
X128676794Y-96240456D01*
X128701196Y-96326666D01*
X128709308Y-96381630D01*
X128715913Y-96475083D01*
X128713826Y-96564864D01*
X128703580Y-96647353D01*
X128685710Y-96718936D01*
X128660748Y-96775994D01*
X128629228Y-96814911D01*
X128627252Y-96816286D01*
X128602026Y-96823374D01*
X128554775Y-96827613D01*
X128485311Y-96829022D01*
X128423078Y-96828162D01*
X128375696Y-96823442D01*
X128343593Y-96811752D01*
X128324040Y-96789983D01*
X128314310Y-96755024D01*
X128311673Y-96703766D01*
X128313401Y-96633099D01*
X128316413Y-96584479D01*
X128324606Y-96534283D01*
X128338659Y-96501789D01*
X128359894Y-96484330D01*
X128389634Y-96479239D01*
X128394176Y-96479345D01*
X128428970Y-96488047D01*
X128452387Y-96512057D01*
X128465587Y-96553322D01*
X128469729Y-96613791D01*
X128469729Y-96682266D01*
X128508081Y-96682266D01*
X128517216Y-96682216D01*
X128534467Y-96679995D01*
X128544761Y-96670728D01*
X128551699Y-96649347D01*
X128558881Y-96610786D01*
X128559815Y-96605312D01*
X128569718Y-96508362D01*
X128566799Y-96418370D01*
X128552069Y-96337462D01*
X128526539Y-96267763D01*
X128491218Y-96211398D01*
X128447119Y-96170493D01*
X128395252Y-96147171D01*
X128336628Y-96143559D01*
X128307734Y-96149077D01*
X128251844Y-96175761D01*
X128206185Y-96221949D01*
X128171348Y-96286931D01*
X128147930Y-96369993D01*
X128143481Y-96394667D01*
X128132982Y-96483996D01*
X128134211Y-96563803D01*
X128147146Y-96641896D01*
X128153936Y-96677039D01*
X128154953Y-96722477D01*
X128142422Y-96753792D01*
X128115635Y-96773945D01*
X128087388Y-96780329D01*
X128056164Y-96770843D01*
X128042739Y-96761514D01*
X128019207Y-96727279D01*
X128001335Y-96674657D01*
X127989839Y-96606141D01*
X127985432Y-96524222D01*
X127989419Y-96427072D01*
X128005734Y-96321065D01*
X128033785Y-96227253D01*
X128072692Y-96148457D01*
X128121574Y-96087503D01*
X128154435Y-96061433D01*
X128203634Y-96031925D01*
X128257492Y-96006654D01*
X128308659Y-95989004D01*
X128349784Y-95982364D01*
X128369499Y-95983924D01*
X128006885Y-95632400D02*
X128014458Y-95638980D01*
X128014458Y-95638980D02*
X128024227Y-95644143D01*
X128024227Y-95644143D02*
X128038811Y-95648058D01*
X128038811Y-95648058D02*
X128060825Y-95650898D01*
X128060825Y-95650898D02*
X128092888Y-95652835D01*
X128092888Y-95652835D02*
X128137615Y-95654039D01*
X128137615Y-95654039D02*
X128197625Y-95654683D01*
X128197625Y-95654683D02*
X128275534Y-95654938D01*
X128275534Y-95654938D02*
X128351196Y-95654977D01*
X128351196Y-95654977D02*
X128445042Y-95654908D01*
X128445042Y-95654908D02*
X128518929Y-95654584D01*
X128518929Y-95654584D02*
X128575472Y-95653836D01*
X128575472Y-95653836D02*
X128617289Y-95652490D01*
X128617289Y-95652490D02*
X128646997Y-95650376D01*
X128646997Y-95650376D02*
X128667213Y-95647322D01*
X128667213Y-95647322D02*
X128680554Y-95643156D01*
X128680554Y-95643156D02*
X128689638Y-95637706D01*
X128689638Y-95637706D02*
X128695507Y-95632400D01*
X128695507Y-95632400D02*
X128715187Y-95599396D01*
X128715187Y-95599396D02*
X128713421Y-95564231D01*
X128713421Y-95564231D02*
X128691957Y-95532767D01*
X128691957Y-95532767D02*
X128683577Y-95525538D01*
X128683577Y-95525538D02*
X128673854Y-95519888D01*
X128673854Y-95519888D02*
X128660101Y-95515623D01*
X128660101Y-95515623D02*
X128639629Y-95512549D01*
X128639629Y-95512549D02*
X128609752Y-95510470D01*
X128609752Y-95510470D02*
X128567781Y-95509192D01*
X128567781Y-95509192D02*
X128511029Y-95508521D01*
X128511029Y-95508521D02*
X128436807Y-95508263D01*
X128436807Y-95508263D02*
X128352777Y-95508222D01*
X128352777Y-95508222D02*
X128039725Y-95508222D01*
X128039725Y-95508222D02*
X128012016Y-95535931D01*
X128012016Y-95535931D02*
X127988703Y-95570085D01*
X127988703Y-95570085D02*
X127987863Y-95603216D01*
X127987863Y-95603216D02*
X128006885Y-95632400D01*
X128006885Y-95632400D02*
X128006885Y-95632400D01*
G36*
X128436807Y-95508263D02*
G01*
X128511029Y-95508521D01*
X128567781Y-95509192D01*
X128609752Y-95510470D01*
X128639629Y-95512549D01*
X128660101Y-95515623D01*
X128673854Y-95519888D01*
X128683577Y-95525538D01*
X128691957Y-95532767D01*
X128713421Y-95564231D01*
X128715187Y-95599396D01*
X128695507Y-95632400D01*
X128689638Y-95637706D01*
X128680554Y-95643156D01*
X128667213Y-95647322D01*
X128646997Y-95650376D01*
X128617289Y-95652490D01*
X128575472Y-95653836D01*
X128518929Y-95654584D01*
X128445042Y-95654908D01*
X128351196Y-95654977D01*
X128275534Y-95654938D01*
X128197625Y-95654683D01*
X128137615Y-95654039D01*
X128092888Y-95652835D01*
X128060825Y-95650898D01*
X128038811Y-95648058D01*
X128024227Y-95644143D01*
X128014458Y-95638980D01*
X128006885Y-95632400D01*
X127987863Y-95603216D01*
X127988703Y-95570085D01*
X128012016Y-95535931D01*
X128039725Y-95508222D01*
X128352777Y-95508222D01*
X128436807Y-95508263D01*
G37*
X128436807Y-95508263D02*
X128511029Y-95508521D01*
X128567781Y-95509192D01*
X128609752Y-95510470D01*
X128639629Y-95512549D01*
X128660101Y-95515623D01*
X128673854Y-95519888D01*
X128683577Y-95525538D01*
X128691957Y-95532767D01*
X128713421Y-95564231D01*
X128715187Y-95599396D01*
X128695507Y-95632400D01*
X128689638Y-95637706D01*
X128680554Y-95643156D01*
X128667213Y-95647322D01*
X128646997Y-95650376D01*
X128617289Y-95652490D01*
X128575472Y-95653836D01*
X128518929Y-95654584D01*
X128445042Y-95654908D01*
X128351196Y-95654977D01*
X128275534Y-95654938D01*
X128197625Y-95654683D01*
X128137615Y-95654039D01*
X128092888Y-95652835D01*
X128060825Y-95650898D01*
X128038811Y-95648058D01*
X128024227Y-95644143D01*
X128014458Y-95638980D01*
X128006885Y-95632400D01*
X127987863Y-95603216D01*
X127988703Y-95570085D01*
X128012016Y-95535931D01*
X128039725Y-95508222D01*
X128352777Y-95508222D01*
X128436807Y-95508263D01*
X127985591Y-94864519D02*
X127990821Y-94939334D01*
X127990821Y-94939334D02*
X127998990Y-95008916D01*
X127998990Y-95008916D02*
X128009790Y-95069220D01*
X128009790Y-95069220D02*
X128022913Y-95116202D01*
X128022913Y-95116202D02*
X128038053Y-95145816D01*
X128038053Y-95145816D02*
X128042509Y-95150362D01*
X128042509Y-95150362D02*
X128077090Y-95166168D01*
X128077090Y-95166168D02*
X128112591Y-95161375D01*
X128112591Y-95161375D02*
X128142965Y-95136858D01*
X128142965Y-95136858D02*
X128143836Y-95135688D01*
X128143836Y-95135688D02*
X128153194Y-95121268D01*
X128153194Y-95121268D02*
X128158116Y-95106214D01*
X128158116Y-95106214D02*
X128158713Y-95085217D01*
X128158713Y-95085217D02*
X128155101Y-95052965D01*
X128155101Y-95052965D02*
X128147394Y-95004149D01*
X128147394Y-95004149D02*
X128146745Y-95000222D01*
X128146745Y-95000222D02*
X128137809Y-94927483D01*
X128137809Y-94927483D02*
X128133401Y-94849005D01*
X128133401Y-94849005D02*
X128133359Y-94770295D01*
X128133359Y-94770295D02*
X128137519Y-94696861D01*
X128137519Y-94696861D02*
X128145719Y-94634211D01*
X128145719Y-94634211D02*
X128157797Y-94587852D01*
X128157797Y-94587852D02*
X128159011Y-94584806D01*
X128159011Y-94584806D02*
X128177855Y-94551174D01*
X128177855Y-94551174D02*
X128196925Y-94539358D01*
X128196925Y-94539358D02*
X128215679Y-94548608D01*
X128215679Y-94548608D02*
X128233577Y-94578175D01*
X128233577Y-94578175D02*
X128250077Y-94627311D01*
X128250077Y-94627311D02*
X128264636Y-94695265D01*
X128264636Y-94695265D02*
X128271646Y-94740577D01*
X128271646Y-94740577D02*
X128285129Y-94834766D01*
X128285129Y-94834766D02*
X128297454Y-94909678D01*
X128297454Y-94909678D02*
X128309689Y-94968505D01*
X128309689Y-94968505D02*
X128322901Y-95014437D01*
X128322901Y-95014437D02*
X128338157Y-95050667D01*
X128338157Y-95050667D02*
X128356525Y-95080384D01*
X128356525Y-95080384D02*
X128379071Y-95106780D01*
X128379071Y-95106780D02*
X128401211Y-95127992D01*
X128401211Y-95127992D02*
X128432059Y-95153157D01*
X128432059Y-95153157D02*
X128458585Y-95165541D01*
X128458585Y-95165541D02*
X128491266Y-95169414D01*
X128491266Y-95169414D02*
X128503235Y-95169555D01*
X128503235Y-95169555D02*
X128542952Y-95166646D01*
X128542952Y-95166646D02*
X128572499Y-95155020D01*
X128572499Y-95155020D02*
X128598726Y-95134899D01*
X128598726Y-95134899D02*
X128638816Y-95094006D01*
X128638816Y-95094006D02*
X128669389Y-95048405D01*
X128669389Y-95048405D02*
X128691443Y-94994709D01*
X128691443Y-94994709D02*
X128705975Y-94929530D01*
X128705975Y-94929530D02*
X128713981Y-94849478D01*
X128713981Y-94849478D02*
X128716458Y-94751165D01*
X128716458Y-94751165D02*
X128716417Y-94734933D01*
X128716417Y-94734933D02*
X128715058Y-94669373D01*
X128715058Y-94669373D02*
X128711970Y-94604356D01*
X128711970Y-94604356D02*
X128707596Y-94546970D01*
X128707596Y-94546970D02*
X128702380Y-94504300D01*
X128702380Y-94504300D02*
X128701781Y-94500850D01*
X128701781Y-94500850D02*
X128691731Y-94458426D01*
X128691731Y-94458426D02*
X128679036Y-94422442D01*
X128679036Y-94422442D02*
X128667430Y-94402072D01*
X128667430Y-94402072D02*
X128636812Y-94383115D01*
X128636812Y-94383115D02*
X128601158Y-94381795D01*
X128601158Y-94381795D02*
X128569384Y-94398137D01*
X128569384Y-94398137D02*
X128565791Y-94401793D01*
X128565791Y-94401793D02*
X128555116Y-94416907D01*
X128555116Y-94416907D02*
X128550516Y-94435807D01*
X128550516Y-94435807D02*
X128551299Y-94465060D01*
X128551299Y-94465060D02*
X128555367Y-94500571D01*
X128555367Y-94500571D02*
X128559002Y-94540252D01*
X128559002Y-94540252D02*
X128562068Y-94595877D01*
X128562068Y-94595877D02*
X128564293Y-94660816D01*
X128564293Y-94660816D02*
X128565404Y-94728437D01*
X128565404Y-94728437D02*
X128565477Y-94746222D01*
X128565477Y-94746222D02*
X128565204Y-94814094D01*
X128565204Y-94814094D02*
X128563886Y-94863768D01*
X128563886Y-94863768D02*
X128561067Y-94899612D01*
X128561067Y-94899612D02*
X128556290Y-94925998D01*
X128556290Y-94925998D02*
X128549097Y-94947296D01*
X128549097Y-94947296D02*
X128543107Y-94960096D01*
X128543107Y-94960096D02*
X128526473Y-94988222D01*
X128526473Y-94988222D02*
X128511408Y-95006154D01*
X128511408Y-95006154D02*
X128507137Y-95008775D01*
X128507137Y-95008775D02*
X128489503Y-95003246D01*
X128489503Y-95003246D02*
X128472432Y-94976962D01*
X128472432Y-94976962D02*
X128456698Y-94931744D01*
X128456698Y-94931744D02*
X128443078Y-94869414D01*
X128443078Y-94869414D02*
X128440044Y-94851051D01*
X128440044Y-94851051D02*
X128424978Y-94755132D01*
X128424978Y-94755132D02*
X128412386Y-94678581D01*
X128412386Y-94678581D02*
X128401351Y-94618442D01*
X128401351Y-94618442D02*
X128390960Y-94571762D01*
X128390960Y-94571762D02*
X128380296Y-94535585D01*
X128380296Y-94535585D02*
X128368445Y-94506957D01*
X128368445Y-94506957D02*
X128354491Y-94482924D01*
X128354491Y-94482924D02*
X128337521Y-94460530D01*
X128337521Y-94460530D02*
X128316618Y-94436820D01*
X128316618Y-94436820D02*
X128309289Y-94428842D01*
X128309289Y-94428842D02*
X128281939Y-94400869D01*
X128281939Y-94400869D02*
X128260269Y-94386062D01*
X128260269Y-94386062D02*
X128235472Y-94380270D01*
X128235472Y-94380270D02*
X128204223Y-94379333D01*
X128204223Y-94379333D02*
X128142945Y-94389647D01*
X128142945Y-94389647D02*
X128090880Y-94420470D01*
X128090880Y-94420470D02*
X128048198Y-94471627D01*
X128048198Y-94471627D02*
X128015065Y-94542939D01*
X128015065Y-94542939D02*
X128000204Y-94593822D01*
X128000204Y-94593822D02*
X127990606Y-94649122D01*
X127990606Y-94649122D02*
X127985176Y-94715369D01*
X127985176Y-94715369D02*
X127983607Y-94788516D01*
X127983607Y-94788516D02*
X127985591Y-94864519D01*
X127985591Y-94864519D02*
X127985591Y-94864519D01*
G36*
X128235472Y-94380270D02*
G01*
X128260269Y-94386062D01*
X128281939Y-94400869D01*
X128309289Y-94428842D01*
X128316618Y-94436820D01*
X128337521Y-94460530D01*
X128354491Y-94482924D01*
X128368445Y-94506957D01*
X128380296Y-94535585D01*
X128390960Y-94571762D01*
X128401351Y-94618442D01*
X128412386Y-94678581D01*
X128424978Y-94755132D01*
X128440044Y-94851051D01*
X128443078Y-94869414D01*
X128456698Y-94931744D01*
X128472432Y-94976962D01*
X128489503Y-95003246D01*
X128507137Y-95008775D01*
X128511408Y-95006154D01*
X128526473Y-94988222D01*
X128543107Y-94960096D01*
X128549097Y-94947296D01*
X128556290Y-94925998D01*
X128561067Y-94899612D01*
X128563886Y-94863768D01*
X128565204Y-94814094D01*
X128565477Y-94746222D01*
X128565404Y-94728437D01*
X128564293Y-94660816D01*
X128562068Y-94595877D01*
X128559002Y-94540252D01*
X128555367Y-94500571D01*
X128551299Y-94465060D01*
X128550516Y-94435807D01*
X128555116Y-94416907D01*
X128565791Y-94401793D01*
X128569384Y-94398137D01*
X128601158Y-94381795D01*
X128636812Y-94383115D01*
X128667430Y-94402072D01*
X128679036Y-94422442D01*
X128691731Y-94458426D01*
X128701781Y-94500850D01*
X128702380Y-94504300D01*
X128707596Y-94546970D01*
X128711970Y-94604356D01*
X128715058Y-94669373D01*
X128716417Y-94734933D01*
X128716458Y-94751165D01*
X128713981Y-94849478D01*
X128705975Y-94929530D01*
X128691443Y-94994709D01*
X128669389Y-95048405D01*
X128638816Y-95094006D01*
X128598726Y-95134899D01*
X128572499Y-95155020D01*
X128542952Y-95166646D01*
X128503235Y-95169555D01*
X128491266Y-95169414D01*
X128458585Y-95165541D01*
X128432059Y-95153157D01*
X128401211Y-95127992D01*
X128379071Y-95106780D01*
X128356525Y-95080384D01*
X128338157Y-95050667D01*
X128322901Y-95014437D01*
X128309689Y-94968505D01*
X128297454Y-94909678D01*
X128285129Y-94834766D01*
X128271646Y-94740577D01*
X128264636Y-94695265D01*
X128250077Y-94627311D01*
X128233577Y-94578175D01*
X128215679Y-94548608D01*
X128196925Y-94539358D01*
X128177855Y-94551174D01*
X128159011Y-94584806D01*
X128157797Y-94587852D01*
X128145719Y-94634211D01*
X128137519Y-94696861D01*
X128133359Y-94770295D01*
X128133401Y-94849005D01*
X128137809Y-94927483D01*
X128146745Y-95000222D01*
X128147394Y-95004149D01*
X128155101Y-95052965D01*
X128158713Y-95085217D01*
X128158116Y-95106214D01*
X128153194Y-95121268D01*
X128143836Y-95135688D01*
X128142965Y-95136858D01*
X128112591Y-95161375D01*
X128077090Y-95166168D01*
X128042509Y-95150362D01*
X128038053Y-95145816D01*
X128022913Y-95116202D01*
X128009790Y-95069220D01*
X127998990Y-95008916D01*
X127990821Y-94939334D01*
X127985591Y-94864519D01*
X127983607Y-94788516D01*
X127985176Y-94715369D01*
X127990606Y-94649122D01*
X128000204Y-94593822D01*
X128015065Y-94542939D01*
X128048198Y-94471627D01*
X128090880Y-94420470D01*
X128142945Y-94389647D01*
X128204223Y-94379333D01*
X128235472Y-94380270D01*
G37*
X128235472Y-94380270D02*
X128260269Y-94386062D01*
X128281939Y-94400869D01*
X128309289Y-94428842D01*
X128316618Y-94436820D01*
X128337521Y-94460530D01*
X128354491Y-94482924D01*
X128368445Y-94506957D01*
X128380296Y-94535585D01*
X128390960Y-94571762D01*
X128401351Y-94618442D01*
X128412386Y-94678581D01*
X128424978Y-94755132D01*
X128440044Y-94851051D01*
X128443078Y-94869414D01*
X128456698Y-94931744D01*
X128472432Y-94976962D01*
X128489503Y-95003246D01*
X128507137Y-95008775D01*
X128511408Y-95006154D01*
X128526473Y-94988222D01*
X128543107Y-94960096D01*
X128549097Y-94947296D01*
X128556290Y-94925998D01*
X128561067Y-94899612D01*
X128563886Y-94863768D01*
X128565204Y-94814094D01*
X128565477Y-94746222D01*
X128565404Y-94728437D01*
X128564293Y-94660816D01*
X128562068Y-94595877D01*
X128559002Y-94540252D01*
X128555367Y-94500571D01*
X128551299Y-94465060D01*
X128550516Y-94435807D01*
X128555116Y-94416907D01*
X128565791Y-94401793D01*
X128569384Y-94398137D01*
X128601158Y-94381795D01*
X128636812Y-94383115D01*
X128667430Y-94402072D01*
X128679036Y-94422442D01*
X128691731Y-94458426D01*
X128701781Y-94500850D01*
X128702380Y-94504300D01*
X128707596Y-94546970D01*
X128711970Y-94604356D01*
X128715058Y-94669373D01*
X128716417Y-94734933D01*
X128716458Y-94751165D01*
X128713981Y-94849478D01*
X128705975Y-94929530D01*
X128691443Y-94994709D01*
X128669389Y-95048405D01*
X128638816Y-95094006D01*
X128598726Y-95134899D01*
X128572499Y-95155020D01*
X128542952Y-95166646D01*
X128503235Y-95169555D01*
X128491266Y-95169414D01*
X128458585Y-95165541D01*
X128432059Y-95153157D01*
X128401211Y-95127992D01*
X128379071Y-95106780D01*
X128356525Y-95080384D01*
X128338157Y-95050667D01*
X128322901Y-95014437D01*
X128309689Y-94968505D01*
X128297454Y-94909678D01*
X128285129Y-94834766D01*
X128271646Y-94740577D01*
X128264636Y-94695265D01*
X128250077Y-94627311D01*
X128233577Y-94578175D01*
X128215679Y-94548608D01*
X128196925Y-94539358D01*
X128177855Y-94551174D01*
X128159011Y-94584806D01*
X128157797Y-94587852D01*
X128145719Y-94634211D01*
X128137519Y-94696861D01*
X128133359Y-94770295D01*
X128133401Y-94849005D01*
X128137809Y-94927483D01*
X128146745Y-95000222D01*
X128147394Y-95004149D01*
X128155101Y-95052965D01*
X128158713Y-95085217D01*
X128158116Y-95106214D01*
X128153194Y-95121268D01*
X128143836Y-95135688D01*
X128142965Y-95136858D01*
X128112591Y-95161375D01*
X128077090Y-95166168D01*
X128042509Y-95150362D01*
X128038053Y-95145816D01*
X128022913Y-95116202D01*
X128009790Y-95069220D01*
X127998990Y-95008916D01*
X127990821Y-94939334D01*
X127985591Y-94864519D01*
X127983607Y-94788516D01*
X127985176Y-94715369D01*
X127990606Y-94649122D01*
X128000204Y-94593822D01*
X128015065Y-94542939D01*
X128048198Y-94471627D01*
X128090880Y-94420470D01*
X128142945Y-94389647D01*
X128204223Y-94379333D01*
X128235472Y-94380270D01*
X127984386Y-93843428D02*
X127984758Y-93912836D01*
X127984758Y-93912836D02*
X127985625Y-93965225D01*
X127985625Y-93965225D02*
X127987186Y-94003375D01*
X127987186Y-94003375D02*
X127989643Y-94030063D01*
X127989643Y-94030063D02*
X127993197Y-94048069D01*
X127993197Y-94048069D02*
X127998050Y-94060173D01*
X127998050Y-94060173D02*
X128004401Y-94069153D01*
X128004401Y-94069153D02*
X128007324Y-94072404D01*
X128007324Y-94072404D02*
X128038382Y-94092179D01*
X128038382Y-94092179D02*
X128074068Y-94095740D01*
X128074068Y-94095740D02*
X128105750Y-94082731D01*
X128105750Y-94082731D02*
X128112153Y-94076716D01*
X128112153Y-94076716D02*
X128118361Y-94066987D01*
X128118361Y-94066987D02*
X128123150Y-94051321D01*
X128123150Y-94051321D02*
X128126754Y-94026814D01*
X128126754Y-94026814D02*
X128129404Y-93990561D01*
X128129404Y-93990561D02*
X128131335Y-93939657D01*
X128131335Y-93939657D02*
X128132779Y-93871196D01*
X128132779Y-93871196D02*
X128133658Y-93808605D01*
X128133658Y-93808605D02*
X128136707Y-93560888D01*
X128136707Y-93560888D02*
X128201618Y-93557503D01*
X128201618Y-93557503D02*
X128266529Y-93554117D01*
X128266529Y-93554117D02*
X128266529Y-93722264D01*
X128266529Y-93722264D02*
X128267159Y-93795263D01*
X128267159Y-93795263D02*
X128269793Y-93848705D01*
X128269793Y-93848705D02*
X128275549Y-93885594D01*
X128275549Y-93885594D02*
X128285544Y-93908934D01*
X128285544Y-93908934D02*
X128300896Y-93921728D01*
X128300896Y-93921728D02*
X128322722Y-93926980D01*
X128322722Y-93926980D02*
X128342978Y-93927777D01*
X128342978Y-93927777D02*
X128367832Y-93925299D01*
X128367832Y-93925299D02*
X128386146Y-93915945D01*
X128386146Y-93915945D02*
X128398877Y-93896839D01*
X128398877Y-93896839D02*
X128406981Y-93865104D01*
X128406981Y-93865104D02*
X128411416Y-93817863D01*
X128411416Y-93817863D02*
X128413139Y-93752239D01*
X128413139Y-93752239D02*
X128413285Y-93716421D01*
X128413285Y-93716421D02*
X128413285Y-93555244D01*
X128413285Y-93555244D02*
X128571329Y-93555244D01*
X128571329Y-93555244D02*
X128571329Y-93803600D01*
X128571329Y-93803600D02*
X128571442Y-93885009D01*
X128571442Y-93885009D02*
X128571952Y-93946880D01*
X128571952Y-93946880D02*
X128573110Y-93992254D01*
X128573110Y-93992254D02*
X128575170Y-94024168D01*
X128575170Y-94024168D02*
X128578386Y-94045663D01*
X128578386Y-94045663D02*
X128583012Y-94059779D01*
X128583012Y-94059779D02*
X128589299Y-94069554D01*
X128589299Y-94069554D02*
X128593907Y-94074533D01*
X128593907Y-94074533D02*
X128620800Y-94091612D01*
X128620800Y-94091612D02*
X128644707Y-94097111D01*
X128644707Y-94097111D02*
X128673907Y-94089259D01*
X128673907Y-94089259D02*
X128695507Y-94074533D01*
X128695507Y-94074533D02*
X128702306Y-94066676D01*
X128702306Y-94066676D02*
X128707586Y-94056534D01*
X128707586Y-94056534D02*
X128711538Y-94041378D01*
X128711538Y-94041378D02*
X128714353Y-94018481D01*
X128714353Y-94018481D02*
X128716222Y-93985113D01*
X128716222Y-93985113D02*
X128717338Y-93938547D01*
X128717338Y-93938547D02*
X128717891Y-93876055D01*
X128717891Y-93876055D02*
X128718073Y-93794908D01*
X128718073Y-93794908D02*
X128718085Y-93752800D01*
X128718085Y-93752800D02*
X128718005Y-93662624D01*
X128718005Y-93662624D02*
X128717638Y-93592298D01*
X128717638Y-93592298D02*
X128716792Y-93539093D01*
X128716792Y-93539093D02*
X128715276Y-93500282D01*
X128715276Y-93500282D02*
X128712899Y-93473135D01*
X128712899Y-93473135D02*
X128709469Y-93454924D01*
X128709469Y-93454924D02*
X128704794Y-93442922D01*
X128704794Y-93442922D02*
X128698684Y-93434400D01*
X128698684Y-93434400D02*
X128695507Y-93431066D01*
X128695507Y-93431066D02*
X128687910Y-93424467D01*
X128687910Y-93424467D02*
X128678110Y-93419295D01*
X128678110Y-93419295D02*
X128663479Y-93415376D01*
X128663479Y-93415376D02*
X128641392Y-93412538D01*
X128641392Y-93412538D02*
X128609222Y-93410607D01*
X128609222Y-93410607D02*
X128564343Y-93409410D01*
X128564343Y-93409410D02*
X128504129Y-93408774D01*
X128504129Y-93408774D02*
X128425953Y-93408525D01*
X128425953Y-93408525D02*
X128353163Y-93408488D01*
X128353163Y-93408488D02*
X128259947Y-93408522D01*
X128259947Y-93408522D02*
X128186671Y-93408757D01*
X128186671Y-93408757D02*
X128130698Y-93409392D01*
X128130698Y-93409392D02*
X128089391Y-93410628D01*
X128089391Y-93410628D02*
X128060112Y-93412666D01*
X128060112Y-93412666D02*
X128040224Y-93415705D01*
X128040224Y-93415705D02*
X128027090Y-93419945D01*
X128027090Y-93419945D02*
X128018072Y-93425587D01*
X128018072Y-93425587D02*
X128010533Y-93432831D01*
X128010533Y-93432831D02*
X128008852Y-93434616D01*
X128008852Y-93434616D02*
X128001412Y-93443277D01*
X128001412Y-93443277D02*
X127995649Y-93453340D01*
X127995649Y-93453340D02*
X127991352Y-93467597D01*
X127991352Y-93467597D02*
X127988304Y-93488839D01*
X127988304Y-93488839D02*
X127986291Y-93519858D01*
X127986291Y-93519858D02*
X127985100Y-93563445D01*
X127985100Y-93563445D02*
X127984515Y-93622391D01*
X127984515Y-93622391D02*
X127984323Y-93699488D01*
X127984323Y-93699488D02*
X127984307Y-93754221D01*
X127984307Y-93754221D02*
X127984386Y-93843428D01*
X127984386Y-93843428D02*
X127984386Y-93843428D01*
G36*
X128425953Y-93408525D02*
G01*
X128504129Y-93408774D01*
X128564343Y-93409410D01*
X128609222Y-93410607D01*
X128641392Y-93412538D01*
X128663479Y-93415376D01*
X128678110Y-93419295D01*
X128687910Y-93424467D01*
X128695507Y-93431066D01*
X128698684Y-93434400D01*
X128704794Y-93442922D01*
X128709469Y-93454924D01*
X128712899Y-93473135D01*
X128715276Y-93500282D01*
X128716792Y-93539093D01*
X128717638Y-93592298D01*
X128718005Y-93662624D01*
X128718085Y-93752800D01*
X128718073Y-93794908D01*
X128717891Y-93876055D01*
X128717338Y-93938547D01*
X128716222Y-93985113D01*
X128714353Y-94018481D01*
X128711538Y-94041378D01*
X128707586Y-94056534D01*
X128702306Y-94066676D01*
X128695507Y-94074533D01*
X128673907Y-94089259D01*
X128644707Y-94097111D01*
X128620800Y-94091612D01*
X128593907Y-94074533D01*
X128589299Y-94069554D01*
X128583012Y-94059779D01*
X128578386Y-94045663D01*
X128575170Y-94024168D01*
X128573110Y-93992254D01*
X128571952Y-93946880D01*
X128571442Y-93885009D01*
X128571329Y-93803600D01*
X128571329Y-93555244D01*
X128413285Y-93555244D01*
X128413285Y-93716421D01*
X128413139Y-93752239D01*
X128411416Y-93817863D01*
X128406981Y-93865104D01*
X128398877Y-93896839D01*
X128386146Y-93915945D01*
X128367832Y-93925299D01*
X128342978Y-93927777D01*
X128322722Y-93926980D01*
X128300896Y-93921728D01*
X128285544Y-93908934D01*
X128275549Y-93885594D01*
X128269793Y-93848705D01*
X128267159Y-93795263D01*
X128266529Y-93722264D01*
X128266529Y-93554117D01*
X128201618Y-93557503D01*
X128136707Y-93560888D01*
X128133658Y-93808605D01*
X128132779Y-93871196D01*
X128131335Y-93939657D01*
X128129404Y-93990561D01*
X128126754Y-94026814D01*
X128123150Y-94051321D01*
X128118361Y-94066987D01*
X128112153Y-94076716D01*
X128105750Y-94082731D01*
X128074068Y-94095740D01*
X128038382Y-94092179D01*
X128007324Y-94072404D01*
X128004401Y-94069153D01*
X127998050Y-94060173D01*
X127993197Y-94048069D01*
X127989643Y-94030063D01*
X127987186Y-94003375D01*
X127985625Y-93965225D01*
X127984758Y-93912836D01*
X127984386Y-93843428D01*
X127984307Y-93754221D01*
X127984323Y-93699488D01*
X127984515Y-93622391D01*
X127985100Y-93563445D01*
X127986291Y-93519858D01*
X127988304Y-93488839D01*
X127991352Y-93467597D01*
X127995649Y-93453340D01*
X128001412Y-93443277D01*
X128008852Y-93434616D01*
X128010533Y-93432831D01*
X128018072Y-93425587D01*
X128027090Y-93419945D01*
X128040224Y-93415705D01*
X128060112Y-93412666D01*
X128089391Y-93410628D01*
X128130698Y-93409392D01*
X128186671Y-93408757D01*
X128259947Y-93408522D01*
X128353163Y-93408488D01*
X128425953Y-93408525D01*
G37*
X128425953Y-93408525D02*
X128504129Y-93408774D01*
X128564343Y-93409410D01*
X128609222Y-93410607D01*
X128641392Y-93412538D01*
X128663479Y-93415376D01*
X128678110Y-93419295D01*
X128687910Y-93424467D01*
X128695507Y-93431066D01*
X128698684Y-93434400D01*
X128704794Y-93442922D01*
X128709469Y-93454924D01*
X128712899Y-93473135D01*
X128715276Y-93500282D01*
X128716792Y-93539093D01*
X128717638Y-93592298D01*
X128718005Y-93662624D01*
X128718085Y-93752800D01*
X128718073Y-93794908D01*
X128717891Y-93876055D01*
X128717338Y-93938547D01*
X128716222Y-93985113D01*
X128714353Y-94018481D01*
X128711538Y-94041378D01*
X128707586Y-94056534D01*
X128702306Y-94066676D01*
X128695507Y-94074533D01*
X128673907Y-94089259D01*
X128644707Y-94097111D01*
X128620800Y-94091612D01*
X128593907Y-94074533D01*
X128589299Y-94069554D01*
X128583012Y-94059779D01*
X128578386Y-94045663D01*
X128575170Y-94024168D01*
X128573110Y-93992254D01*
X128571952Y-93946880D01*
X128571442Y-93885009D01*
X128571329Y-93803600D01*
X128571329Y-93555244D01*
X128413285Y-93555244D01*
X128413285Y-93716421D01*
X128413139Y-93752239D01*
X128411416Y-93817863D01*
X128406981Y-93865104D01*
X128398877Y-93896839D01*
X128386146Y-93915945D01*
X128367832Y-93925299D01*
X128342978Y-93927777D01*
X128322722Y-93926980D01*
X128300896Y-93921728D01*
X128285544Y-93908934D01*
X128275549Y-93885594D01*
X128269793Y-93848705D01*
X128267159Y-93795263D01*
X128266529Y-93722264D01*
X128266529Y-93554117D01*
X128201618Y-93557503D01*
X128136707Y-93560888D01*
X128133658Y-93808605D01*
X128132779Y-93871196D01*
X128131335Y-93939657D01*
X128129404Y-93990561D01*
X128126754Y-94026814D01*
X128123150Y-94051321D01*
X128118361Y-94066987D01*
X128112153Y-94076716D01*
X128105750Y-94082731D01*
X128074068Y-94095740D01*
X128038382Y-94092179D01*
X128007324Y-94072404D01*
X128004401Y-94069153D01*
X127998050Y-94060173D01*
X127993197Y-94048069D01*
X127989643Y-94030063D01*
X127987186Y-94003375D01*
X127985625Y-93965225D01*
X127984758Y-93912836D01*
X127984386Y-93843428D01*
X127984307Y-93754221D01*
X127984323Y-93699488D01*
X127984515Y-93622391D01*
X127985100Y-93563445D01*
X127986291Y-93519858D01*
X127988304Y-93488839D01*
X127991352Y-93467597D01*
X127995649Y-93453340D01*
X128001412Y-93443277D01*
X128008852Y-93434616D01*
X128010533Y-93432831D01*
X128018072Y-93425587D01*
X128027090Y-93419945D01*
X128040224Y-93415705D01*
X128060112Y-93412666D01*
X128089391Y-93410628D01*
X128130698Y-93409392D01*
X128186671Y-93408757D01*
X128259947Y-93408522D01*
X128353163Y-93408488D01*
X128425953Y-93408525D01*
X127984306Y-92434851D02*
X127984707Y-92474333D01*
X127984707Y-92474333D02*
X127987499Y-92590022D01*
X127987499Y-92590022D02*
X127995790Y-92686911D01*
X127995790Y-92686911D02*
X128010472Y-92768303D01*
X128010472Y-92768303D02*
X128032433Y-92837499D01*
X128032433Y-92837499D02*
X128062562Y-92897802D01*
X128062562Y-92897802D02*
X128101750Y-92952514D01*
X128101750Y-92952514D02*
X128118772Y-92972055D01*
X128118772Y-92972055D02*
X128158603Y-93004472D01*
X128158603Y-93004472D02*
X128212653Y-93033702D01*
X128212653Y-93033702D02*
X128272563Y-93056231D01*
X128272563Y-93056231D02*
X128329979Y-93068543D01*
X128329979Y-93068543D02*
X128351196Y-93069822D01*
X128351196Y-93069822D02*
X128410009Y-93061805D01*
X128410009Y-93061805D02*
X128474253Y-93040323D01*
X128474253Y-93040323D02*
X128535061Y-93009223D01*
X128535061Y-93009223D02*
X128583570Y-92972356D01*
X128583570Y-92972356D02*
X128589422Y-92966368D01*
X128589422Y-92966368D02*
X128630561Y-92915643D01*
X128630561Y-92915643D02*
X128662675Y-92860097D01*
X128662675Y-92860097D02*
X128686605Y-92796526D01*
X128686605Y-92796526D02*
X128703193Y-92721728D01*
X128703193Y-92721728D02*
X128713281Y-92632500D01*
X128713281Y-92632500D02*
X128717709Y-92525640D01*
X128717709Y-92525640D02*
X128718085Y-92476694D01*
X128718085Y-92476694D02*
X128717785Y-92414460D01*
X128717785Y-92414460D02*
X128716532Y-92370694D01*
X128716532Y-92370694D02*
X128713794Y-92341291D01*
X128713794Y-92341291D02*
X128709041Y-92322143D01*
X128709041Y-92322143D02*
X128701741Y-92309145D01*
X128701741Y-92309145D02*
X128695507Y-92302177D01*
X128695507Y-92302177D02*
X128687934Y-92295596D01*
X128687934Y-92295596D02*
X128678164Y-92290434D01*
X128678164Y-92290434D02*
X128663580Y-92286519D01*
X128663580Y-92286519D02*
X128641566Y-92283679D01*
X128641566Y-92283679D02*
X128609504Y-92281742D01*
X128609504Y-92281742D02*
X128564776Y-92280538D01*
X128564776Y-92280538D02*
X128504766Y-92279894D01*
X128504766Y-92279894D02*
X128426857Y-92279639D01*
X128426857Y-92279639D02*
X128351196Y-92279600D01*
X128351196Y-92279600D02*
X128250281Y-92279352D01*
X128250281Y-92279352D02*
X128169667Y-92279405D01*
X128169667Y-92279405D02*
X128131062Y-92280365D01*
X128131062Y-92280365D02*
X128131062Y-92426355D01*
X128131062Y-92426355D02*
X128571329Y-92426355D01*
X128571329Y-92426355D02*
X128571244Y-92519488D01*
X128571244Y-92519488D02*
X128569636Y-92575529D01*
X128569636Y-92575529D02*
X128565496Y-92634223D01*
X128565496Y-92634223D02*
X128559704Y-92683194D01*
X128559704Y-92683194D02*
X128559466Y-92684684D01*
X128559466Y-92684684D02*
X128540330Y-92763830D01*
X128540330Y-92763830D02*
X128510527Y-92825220D01*
X128510527Y-92825220D02*
X128468118Y-92871917D01*
X128468118Y-92871917D02*
X128422201Y-92901587D01*
X128422201Y-92901587D02*
X128371266Y-92919869D01*
X128371266Y-92919869D02*
X128323440Y-92918451D01*
X128323440Y-92918451D02*
X128272173Y-92897234D01*
X128272173Y-92897234D02*
X128219139Y-92855733D01*
X128219139Y-92855733D02*
X128179840Y-92798224D01*
X128179840Y-92798224D02*
X128153571Y-92723472D01*
X128153571Y-92723472D02*
X128144275Y-92673514D01*
X128144275Y-92673514D02*
X128137747Y-92616806D01*
X128137747Y-92616806D02*
X128133022Y-92556703D01*
X128133022Y-92556703D02*
X128131057Y-92505583D01*
X128131057Y-92505583D02*
X128131048Y-92502555D01*
X128131048Y-92502555D02*
X128131062Y-92426355D01*
X128131062Y-92426355D02*
X128131062Y-92280365D01*
X128131062Y-92280365D02*
X128107091Y-92280962D01*
X128107091Y-92280962D02*
X128060295Y-92285224D01*
X128060295Y-92285224D02*
X128027018Y-92293392D01*
X128027018Y-92293392D02*
X128004999Y-92306666D01*
X128004999Y-92306666D02*
X127991979Y-92326248D01*
X127991979Y-92326248D02*
X127985697Y-92353339D01*
X127985697Y-92353339D02*
X127983893Y-92389140D01*
X127983893Y-92389140D02*
X127984306Y-92434851D01*
X127984306Y-92434851D02*
X127984306Y-92434851D01*
G36*
X128250281Y-92279352D02*
G01*
X128351196Y-92279600D01*
X128426857Y-92279639D01*
X128504766Y-92279894D01*
X128564776Y-92280538D01*
X128609504Y-92281742D01*
X128641566Y-92283679D01*
X128663580Y-92286519D01*
X128678164Y-92290434D01*
X128687934Y-92295596D01*
X128695507Y-92302177D01*
X128701741Y-92309145D01*
X128709041Y-92322143D01*
X128713794Y-92341291D01*
X128716532Y-92370694D01*
X128717785Y-92414460D01*
X128718085Y-92476694D01*
X128717709Y-92525640D01*
X128713281Y-92632500D01*
X128703193Y-92721728D01*
X128686605Y-92796526D01*
X128662675Y-92860097D01*
X128630561Y-92915643D01*
X128589422Y-92966368D01*
X128583570Y-92972356D01*
X128535061Y-93009223D01*
X128474253Y-93040323D01*
X128410009Y-93061805D01*
X128351196Y-93069822D01*
X128329979Y-93068543D01*
X128272563Y-93056231D01*
X128212653Y-93033702D01*
X128158603Y-93004472D01*
X128118772Y-92972055D01*
X128101750Y-92952514D01*
X128062562Y-92897802D01*
X128032433Y-92837499D01*
X128010472Y-92768303D01*
X127995790Y-92686911D01*
X127987499Y-92590022D01*
X127985388Y-92502555D01*
X128131048Y-92502555D01*
X128131057Y-92505583D01*
X128133022Y-92556703D01*
X128137747Y-92616806D01*
X128144275Y-92673514D01*
X128153571Y-92723472D01*
X128179840Y-92798224D01*
X128219139Y-92855733D01*
X128272173Y-92897234D01*
X128323440Y-92918451D01*
X128371266Y-92919869D01*
X128422201Y-92901587D01*
X128468118Y-92871917D01*
X128510527Y-92825220D01*
X128540330Y-92763830D01*
X128559466Y-92684684D01*
X128559704Y-92683194D01*
X128565496Y-92634223D01*
X128569636Y-92575529D01*
X128571244Y-92519488D01*
X128571329Y-92426355D01*
X128131062Y-92426355D01*
X128131048Y-92502555D01*
X127985388Y-92502555D01*
X127984707Y-92474333D01*
X127984306Y-92434851D01*
X127983893Y-92389140D01*
X127985697Y-92353339D01*
X127991979Y-92326248D01*
X128004999Y-92306666D01*
X128027018Y-92293392D01*
X128060295Y-92285224D01*
X128107091Y-92280962D01*
X128131062Y-92280365D01*
X128169667Y-92279405D01*
X128250281Y-92279352D01*
G37*
X128250281Y-92279352D02*
X128351196Y-92279600D01*
X128426857Y-92279639D01*
X128504766Y-92279894D01*
X128564776Y-92280538D01*
X128609504Y-92281742D01*
X128641566Y-92283679D01*
X128663580Y-92286519D01*
X128678164Y-92290434D01*
X128687934Y-92295596D01*
X128695507Y-92302177D01*
X128701741Y-92309145D01*
X128709041Y-92322143D01*
X128713794Y-92341291D01*
X128716532Y-92370694D01*
X128717785Y-92414460D01*
X128718085Y-92476694D01*
X128717709Y-92525640D01*
X128713281Y-92632500D01*
X128703193Y-92721728D01*
X128686605Y-92796526D01*
X128662675Y-92860097D01*
X128630561Y-92915643D01*
X128589422Y-92966368D01*
X128583570Y-92972356D01*
X128535061Y-93009223D01*
X128474253Y-93040323D01*
X128410009Y-93061805D01*
X128351196Y-93069822D01*
X128329979Y-93068543D01*
X128272563Y-93056231D01*
X128212653Y-93033702D01*
X128158603Y-93004472D01*
X128118772Y-92972055D01*
X128101750Y-92952514D01*
X128062562Y-92897802D01*
X128032433Y-92837499D01*
X128010472Y-92768303D01*
X127995790Y-92686911D01*
X127987499Y-92590022D01*
X127985388Y-92502555D01*
X128131048Y-92502555D01*
X128131057Y-92505583D01*
X128133022Y-92556703D01*
X128137747Y-92616806D01*
X128144275Y-92673514D01*
X128153571Y-92723472D01*
X128179840Y-92798224D01*
X128219139Y-92855733D01*
X128272173Y-92897234D01*
X128323440Y-92918451D01*
X128371266Y-92919869D01*
X128422201Y-92901587D01*
X128468118Y-92871917D01*
X128510527Y-92825220D01*
X128540330Y-92763830D01*
X128559466Y-92684684D01*
X128559704Y-92683194D01*
X128565496Y-92634223D01*
X128569636Y-92575529D01*
X128571244Y-92519488D01*
X128571329Y-92426355D01*
X128131062Y-92426355D01*
X128131048Y-92502555D01*
X127985388Y-92502555D01*
X127984707Y-92474333D01*
X127984306Y-92434851D01*
X127983893Y-92389140D01*
X127985697Y-92353339D01*
X127991979Y-92326248D01*
X128004999Y-92306666D01*
X128027018Y-92293392D01*
X128060295Y-92285224D01*
X128107091Y-92280962D01*
X128131062Y-92280365D01*
X128169667Y-92279405D01*
X128250281Y-92279352D01*
%TD*%
M02*
