M48
; DRILL file {KiCad (6.0.0)} date Sun May 28 15:05:05 2023
; FORMAT={-:-/ absolute / inch / decimal}
; #@! TF.CreationDate,2023-05-28T15:05:05-04:00
; #@! TF.GenerationSoftware,Kicad,Pcbnew,(6.0.0)
; #@! TF.FileFunction,Plated,1,2,PTH
FMAT,2
INCH
; #@! TA.AperFunction,Plated,PTH,ViaDrill
T1C0.0157
; #@! TA.AperFunction,Plated,PTH,ComponentDrill
T2C0.0276
; #@! TA.AperFunction,Plated,PTH,ComponentDrill
T3C0.0315
; #@! TA.AperFunction,Plated,PTH,ComponentDrill
T4C0.0354
; #@! TA.AperFunction,Plated,PTH,ComponentDrill
T5C0.0394
; #@! TA.AperFunction,Plated,PTH,ComponentDrill
T6C0.0433
; #@! TA.AperFunction,Plated,PTH,ComponentDrill
T7C0.0598
%
G90
G05
T1
X4.7395Y-3.929
T2
X4.692Y-3.058
X4.8Y-3.846
X4.8Y-3.994
X4.992Y-3.058
X5.1Y-3.846
X5.1Y-3.994
T3
X4.2628Y-4.133
X4.2638Y-2.8192
X4.3612Y-4.133
X4.3622Y-2.8192
X4.5078Y-2.8192
X4.6062Y-2.8192
T4
X4.7949Y-2.865
X4.8934Y-2.865
X4.937Y-3.476
X4.9918Y-2.865
X5.037Y-3.476
T5
X4.3946Y-4.311
X4.4256Y-2.456
X4.4946Y-4.311
X4.5256Y-2.456
X4.5946Y-4.311
X4.6256Y-2.456
X5.354Y-4.2658
X5.354Y-4.3658
X5.356Y-2.453
X5.356Y-2.553
T6
X4.324Y-3.041
X4.376Y-3.8972
X4.424Y-3.041
X4.476Y-3.8972
X4.524Y-3.041
X4.576Y-3.8972
T7
X4.8296Y-4.2696
X4.831Y-2.546
X5.0296Y-4.2696
X5.031Y-2.546
T5
G00X4.5408Y-3.4236
M15
G01X4.5408Y-3.5024
M16
G05
G00X4.6195Y-3.648
M15
G01X4.6983Y-3.648
M16
G05
G00X4.777Y-3.4236
M15
G01X4.777Y-3.5024
M16
G05
T0
M30
